<?xml version="1.0" encoding="UTF-8" standalone="no"?>
<!-- Created with Inkscape (http://www.inkscape.org/) -->

<svg
   xmlns:dc="http://purl.org/dc/elements/1.1/"
   xmlns:cc="http://creativecommons.org/ns#"
   xmlns:rdf="http://www.w3.org/1999/02/22-rdf-syntax-ns#"
   xmlns:svg="http://www.w3.org/2000/svg"
   xmlns="http://www.w3.org/2000/svg"
   xmlns:xlink="http://www.w3.org/1999/xlink"
   xmlns:sodipodi="http://sodipodi.sourceforge.net/DTD/sodipodi-0.dtd"
   xmlns:inkscape="http://www.inkscape.org/namespaces/inkscape"
   width="222mm"
   height="40mm"
   viewBox="0 0 222 40"
   version="1.1"
   id="svg8"
   inkscape:version="0.92.5 (2060ec1f9f, 2020-04-08)"
   sodipodi:docname="fouly-logo-entreprise.svg"
   inkscape:export-filename="D:\git\i-skare\apps\fouly\pwa\src\assets\img\svg\number_lineup.png"
   inkscape:export-xdpi="96"
   inkscape:export-ydpi="96">
  <defs
     id="defs2">
    <linearGradient
       id="linearGradient919"
       inkscape:collect="always">
      <stop
         id="stop915"
         offset="0"
         style="stop-color:#ffffff;stop-opacity:1;" />
      <stop
         id="stop917"
         offset="1"
         style="stop-color:#ffffff;stop-opacity:0;" />
    </linearGradient>
    <inkscape:perspective
       id="perspective863"
       inkscape:persp3d-origin="155.08183 : 64.604157 : 1"
       inkscape:vp_z="260.08185 : 114.10418 : 1"
       inkscape:vp_y="0 : 999.9999 : 0"
       inkscape:vp_x="50.081844 : 114.10418 : 1"
       sodipodi:type="inkscape:persp3d" />
    <linearGradient
       gradientUnits="userSpaceOnUse"
       y2="312.80835"
       x2="223.59961"
       y1="312.80835"
       x1="123.46289"
       id="linearGradient921"
       xlink:href="#linearGradient919"
       inkscape:collect="always" />
  </defs>
  <sodipodi:namedview
     id="base"
     pagecolor="#ffffff"
     bordercolor="#666666"
     borderopacity="1.0"
     inkscape:pageopacity="0.0"
     inkscape:pageshadow="2"
     inkscape:zoom="2.8284272"
     inkscape:cx="463.18041"
     inkscape:cy="-109.67795"
     inkscape:document-units="mm"
     inkscape:current-layer="flowRoot7298"
     showgrid="false"
     inkscape:window-width="2560"
     inkscape:window-height="1377"
     inkscape:window-x="1072"
     inkscape:window-y="476"
     inkscape:window-maximized="1" />
  <metadata
     id="metadata5">
    <rdf:RDF>
      <cc:Work
         rdf:about="">
        <dc:format>image/svg+xml</dc:format>
        <dc:type
           rdf:resource="http://purl.org/dc/dcmitype/StillImage" />
        <dc:title></dc:title>
      </cc:Work>
    </rdf:RDF>
  </metadata>
  <g
     inkscape:label="Layer 1"
     inkscape:groupmode="layer"
     id="layer1"
     transform="translate(0,-257)">
    <g
       id="g983"
       transform="matrix(0.26458333,0,0,0.26458333,-8.4722852,22.861548)">
      <g
         id="g1225"
         transform="matrix(0.76999633,0,0,0.76999633,-58.006404,114.25599)">
        <flowRoot
           xml:space="preserve"
           id="flowRoot1624"
           style="font-style:normal;font-variant:normal;font-weight:normal;font-stretch:normal;font-size:40px;line-height:1.25;font-family:Modak;-inkscape-font-specification:'Modak, Normal';font-variant-ligatures:normal;font-variant-caps:normal;font-variant-numeric:normal;font-feature-settings:normal;text-align:start;letter-spacing:0px;word-spacing:0px;writing-mode:lr-tb;text-anchor:start;fill:#ffffff;fill-opacity:1;stroke:none"
           transform="matrix(1.2987075,0,0,1.2987075,116.91957,583.6611)"><flowRegion
             id="flowRegion1626"
             style="font-style:normal;font-variant:normal;font-weight:normal;font-stretch:normal;font-size:40px;font-family:Modak;-inkscape-font-specification:'Modak, Normal';font-variant-ligatures:normal;font-variant-caps:normal;font-variant-numeric:normal;font-feature-settings:normal;text-align:start;writing-mode:lr-tb;text-anchor:start;fill:#ffffff;fill-opacity:1"><rect
               id="rect1628"
               width="87.14286"
               height="44.285713"
               x="-794.28571"
               y="482.44095"
               style="font-style:normal;font-variant:normal;font-weight:normal;font-stretch:normal;font-size:40px;font-family:Modak;-inkscape-font-specification:'Modak, Normal';font-variant-ligatures:normal;font-variant-caps:normal;font-variant-numeric:normal;font-feature-settings:normal;text-align:start;writing-mode:lr-tb;text-anchor:start;fill:#ffffff;fill-opacity:1" /></flowRegion><flowPara
             id="flowPara1630">2m</flowPara></flowRoot>        <g
           id="layer1-2"
           inkscape:label="Layer 1"
           transform="matrix(4.9085008,0,0,4.9085008,-116.76892,1019.3831)">
          <g
             aria-label="ouly"
             transform="matrix(0.97101605,0,0,0.97101605,-44.337424,-277.60492)"
             style="font-style:normal;font-variant:normal;font-weight:normal;font-stretch:normal;font-size:40px;line-height:1.25;font-family:Modak;-inkscape-font-specification:'Modak, Normal';font-variant-ligatures:normal;font-variant-caps:normal;font-variant-numeric:normal;font-feature-settings:normal;text-align:start;letter-spacing:0px;word-spacing:0px;writing-mode:lr-tb;text-anchor:start;fill:#ffffff;fill-opacity:1;stroke:#000000;stroke-width:2.08399391;stroke-miterlimit:4;stroke-dasharray:none;stroke-opacity:0.97340423"
             id="flowRoot815">
            <path
               d="m 132.59402,303.31584 v 3.41797 q 0.13672,0.13672 0.44922,0.13672 0.3125,0 0.44922,-0.21484 0.13672,-0.21485 0.13672,-0.74219 v -2.79297 q 0,-1.875 -0.15625,-2.48047 -0.15625,-0.625 -0.58594,-0.625 -0.27344,0 -0.46875,0.19532 0.17578,1.93359 0.17578,3.10546 z m -7.30469,8.65235 q -3.20312,-3.08594 -3.20312,-8.35938 0,-5.29297 3.00781,-8.33984 3.02734,-3.06641 7.92969,-3.06641 4.90234,0 7.92968,3.1836 3.00782,3.18359 3.00782,8.30078 0,5.09765 -2.91016,8.10547 -2.89062,3.00781 -7.87109,3.00781 -4.98047,0 -7.89063,-2.83203 z"
               style="fill:#ffffff;fill-opacity:1;stroke:#000000;stroke-width:2.08399391;stroke-miterlimit:4;stroke-dasharray:none;stroke-opacity:0.97340423"
               id="path3179"
               inkscape:connector-curvature="0" />
            <path
               d="m 155.67996,305.67913 q 0.23437,0 0.50781,-0.19532 -0.19531,-0.64453 -0.19531,-2.01172 v -9.64843 q 2.07031,-1.25 4.98047,-1.25 1.64062,0 2.87109,0.44922 1.25,0.42968 1.91406,1.15234 V 304.351 q 0,2.91016 1.40625,3.78906 0.0195,0.0977 0.0195,0.3711 v 0.35156 q 0,2.85156 -1.5039,4.31641 -1.36719,1.36718 -3.76953,1.36718 -1.50391,0 -2.73438,-0.68359 -1.21094,-0.68359 -1.81641,-1.99219 -0.66406,0 -0.66406,0.64453 0,0.44922 0.44922,0.89844 -0.625,0.50781 -1.50391,0.82031 -0.8789,0.3125 -2.59765,0.3125 -1.69922,0 -3.32031,-0.70312 -2.01172,-0.85938 -3.08594,-2.63672 -1.3086,-2.10938 -1.3086,-5.35156 v -4.90235 q -0.99609,-1.73828 -0.99609,-3.82812 0,-1.07422 0.27344,-2.22656 0.27344,-1.15235 0.8789,-2.05079 h 4.29688 q 2.42187,0 3.78906,1.15235 1.38672,1.13281 1.38672,3.45703 v 6.32812 q 0,1.89454 0.72266,1.89454 z"
               style="fill:#ffffff;fill-opacity:1;stroke:#000000;stroke-width:2.08399391;stroke-miterlimit:4;stroke-dasharray:none;stroke-opacity:0.97340423"
               id="path3181"
               inkscape:connector-curvature="0" />
            <path
               d="M 177.98464,290.62053 V 304.351 q 0,2.91016 1.40625,3.78906 0.0195,0.0977 0.0195,0.3711 v 0.35156 q 0,2.79297 -1.42579,4.23828 -1.40625,1.44531 -4.0039,1.44531 -2.59766,0 -4.1211,-1.44531 -1.8164,-1.71875 -1.8164,-5.19531 v -20.29297 q 2.05078,-1.25 4.6875,-1.25 2.65625,0 3.94531,1.13281 1.30859,1.11328 1.30859,3.125 z"
               style="fill:#ffffff;fill-opacity:1;stroke:#000000;stroke-width:2.08399391;stroke-miterlimit:4;stroke-dasharray:none;stroke-opacity:0.97340423"
               id="path3183"
               inkscape:connector-curvature="0" />
            <path
               d="m 189.66433,304.33147 v 0.44922 q 0,0.3125 0.0195,0.44922 0.19532,0.0976 0.42969,0.0976 0.56641,0 0.56641,-0.85937 0,-2.8711 0.3125,-5.95703 0.33203,-3.10547 0.70312,-4.78516 1.58203,-1.15234 4.21875,-1.15234 2.63672,0 4.0625,1.03515 1.44531,1.01563 1.44531,2.46094 0,0.60547 -0.72265,5 -0.80078,4.47266 -2.05078,9.41406 -0.25391,0.9961 -0.91797,2.79297 -0.64453,1.79688 -1.38672,2.98828 -2.32422,3.69141 -5.74219,4.57032 -1.60156,0.41015 -3.22265,0.41015 -3.14454,0 -4.86329,-1.5625 -1.58203,-1.40625 -1.58203,-3.49609 0,-2.07031 1.23047,-3.90625 0.29297,-0.0781 1.07422,-0.0781 0.78125,0 1.95313,0.19532 3.24218,0.60546 3.30078,0.60546 0.13672,0.0195 0.29297,0.0586 0.17578,0.0195 0.44921,0.0195 0.27344,0 0.46875,-0.15625 0.19532,-0.15625 0.19532,-0.625 l -4.60938,-0.87891 q -1.69922,-0.70312 -2.94922,-2.94922 -1.54297,-2.77343 -2.08984,-7.51953 -1.28906,-1.67968 -1.28906,-4.02343 0,-2.34375 1.17187,-4.08204 h 5.01953 q 2.51953,0 3.76953,1.44532 0.91797,1.07422 1.17188,3.14453 -0.42969,3.39844 -0.42969,6.89453 z"
               style="fill:#ffffff;fill-opacity:1;stroke:#000000;stroke-width:2.08399391;stroke-miterlimit:4;stroke-dasharray:none;stroke-opacity:0.97340423"
               id="path3185"
               inkscape:connector-curvature="0" />
          </g>
          <path
             inkscape:connector-curvature="0"
             id="flowRoot879"
             d="m 60.944129,-0.81463904 c -6.637395,0 -9.955858,0.68746197 -9.955858,2.06252694 V 24.026124 c 0,1.464747 0.640051,2.593517 1.920436,3.38567 1.162637,0.732374 2.546108,1.09862 4.150268,1.09862 1.618871,0 2.987488,-0.201728 4.105988,-0.60528 1.133211,-0.403552 2.038195,-0.904295 2.715183,-1.502148 v -5.672102 c -0.397365,-0.015 -0.823864,-0.02274 -1.280092,-0.02274 -0.456224,0 -0.868486,-0.02226 -1.236414,-0.06702 -0.353212,-0.04488 -0.529621,-0.187147 -0.529621,-0.426287 0,-0.149473 0.05881,-0.283958 0.176542,-0.403529 h 10.817048 c 0.897736,-1.135925 1.346524,-2.720397 1.346524,-4.753106 0,-1.629158 -0.375737,-3.093536 -1.126309,-4.393872 h -9.757176 c -0.02942,-0.02988 -0.04429,-0.08999 -0.04429,-0.179612 v -0.156864 c 0,-0.4782799 0.279783,-0.7172309 0.839027,-0.7172309 h 7.638063 c 2.958129,0 4.437543,-1.7117681 4.437543,-5.1344901 0,-0.777211 -0.103325,-1.651394 -0.309406,-2.62291 -0.206038,-0.98646107 -0.522351,-1.87565907 -0.949148,-2.66781404 z"
             style="font-style:normal;font-variant:normal;font-weight:normal;font-stretch:normal;font-size:40px;line-height:1.25;font-family:Modak;-inkscape-font-specification:'Modak, Normal';font-variant-ligatures:normal;font-variant-caps:normal;font-variant-numeric:normal;font-feature-settings:normal;text-align:start;letter-spacing:0px;word-spacing:0px;writing-mode:lr-tb;text-anchor:start;fill:#ff3985;fill-opacity:0.9372549;stroke:#000000;stroke-width:1.1390419;stroke-opacity:1" />
          <g
             aria-label="Entreprise"
             transform="matrix(0.45897329,0,0,0.45897329,134.70977,-156.18445)"
             style="font-style:normal;font-weight:normal;font-size:40px;line-height:1.25;font-family:sans-serif;letter-spacing:0px;word-spacing:0px;fill:#3a7be0;fill-opacity:1;stroke:none;stroke-width:1.04513872;stroke-miterlimit:4;stroke-dasharray:none;stroke-dashoffset:0;stroke-opacity:1"
             id="flowRoot7298">
            <path
               d="m 93.607037,379.5366 h 10.528893 q 0.52918,0.87588 0.78464,1.916 0.25547,1.02187 0.25547,1.843 0,1.84302 -0.7299,2.77365 -0.71166,0.93063 -2.00725,0.93063 h -7.353793 q -0.67517,0 -0.67517,0.52918 v 0.14598 q 0,0.10949 0.0365,0.14598 h 8.722383 q 0.32845,0.56568 0.56567,1.42332 0.21897,0.93063 0.21897,1.66053 0,2.17147 -0.80289,3.39407 h -3.959743 q -2.77364,0 -3.75902,0.21897 -0.98537,0.20073 -1.22258,0.34671 -0.23723,0.16423 -0.23723,0.41969 0,0.25547 0.25547,0.40145 0.94887,-0.31021 1.98899,-0.43795 1.36858,-0.12773 2.97437,-0.12773 h 5.127593 q 1.11311,1.5693 1.11311,3.77726 0,1.24085 -0.31022,2.37219 -0.31021,1.13136 -0.93063,1.82477 H 90.523187 q -2.262705,0 -3.631279,-1.09486 -1.496307,-1.16785 -1.496307,-3.43055 v -17.35351 q 0,-0.87589 2.007241,-1.27734 2.007241,-0.40144 6.204195,-0.40144 z"
               style="font-style:normal;font-variant:normal;font-weight:normal;font-stretch:normal;font-size:40px;font-family:Modak;-inkscape-font-specification:'Modak, Normal';font-variant-ligatures:normal;font-variant-caps:normal;font-variant-numeric:normal;font-feature-settings:normal;text-align:start;writing-mode:lr-tb;text-anchor:start;fill:#ff3985;fill-opacity:0.9372549;stroke:#000000;stroke-width:0.97645164;stroke-miterlimit:4;stroke-dasharray:none;stroke-dashoffset:0;stroke-opacity:0.97340423"
               id="path845"
               inkscape:connector-curvature="0" />
            <path
               d="m 125.72289,394.04347 q 0,1.31383 0.29197,2.11672 0.29196,0.8029 1.02186,1.25909 0.0182,0.0913 0.0182,0.34671 v 0.32846 q 0,2.51817 -1.45981,3.92325 -1.44157,1.38681 -3.74077,1.38681 -2.28095,0 -3.70427,-1.29558 -1.66053,-1.47806 -1.66053,-4.48893 0,-1.27732 0.10948,-2.24445 0.12773,-0.98538 0.16423,-1.40507 0.0547,-0.41969 0.10948,-0.78465 0.0547,-0.36495 0.0547,-1.07661 0,-0.71166 -0.20072,-1.02187 -0.18247,-0.3102 -0.52918,-0.3102 -0.32846,0 -0.58393,0.14598 l 0.23722,2.97436 q -0.32845,1.84302 -0.32845,3.905 0,2.06198 0.93063,3.75901 -1.78827,1.84301 -5.0181,1.84301 -1.84302,0 -3.19334,-0.96713 -1.5693,-1.09485 -1.5693,-2.90136 v -8.83187 q -1.07661,-1.51455 -1.07661,-3.72251 0,-2.22622 1.07661,-3.85026 h 3.24808 q 1.29558,0 2.20796,0.96713 -0.80289,0.74815 -0.80289,1.24083 0,0.56568 0.63866,0.56568 0.8029,-1.38682 2.44519,-2.29921 1.66053,-0.91238 3.75902,-0.91238 3.15683,0 5.12758,1.55106 2.48168,1.95249 2.48168,6.05821 z"
               style="font-style:normal;font-variant:normal;font-weight:normal;font-stretch:normal;font-size:40px;font-family:Modak;-inkscape-font-specification:'Modak, Normal';font-variant-ligatures:normal;font-variant-caps:normal;font-variant-numeric:normal;font-feature-settings:normal;text-align:start;writing-mode:lr-tb;text-anchor:start;fill:#ffffff;fill-opacity:1;stroke:#000000;stroke-width:0.97645164;stroke-miterlimit:4;stroke-dasharray:none;stroke-dashoffset:0;stroke-opacity:0.97340423"
               id="path847"
               inkscape:connector-curvature="0" />
            <path
               d="m 128.89799,391.54354 h 1.13134 q 0.91239,0 0.91239,-0.60217 0,-0.073 -0.0365,-0.21897 h -4.08747 q -0.40144,-1.27734 -0.40144,-2.84663 0,-1.58755 0.23721,-2.57292 1.04012,-0.65691 2.86488,-2.00725 0.51093,-1.24083 1.33208,-3.94149 0.10949,-0.36495 0.25547,-0.71166 1.42332,-0.36494 3.24808,-0.36494 1.82477,0 3.59479,0.3832 v 4.47067 h 5.47429 q 1.05836,1.60579 1.05836,3.77726 0,0.98538 -0.27371,2.02549 -0.27371,1.04011 -0.78465,1.77002 h -4.92687 v 2.7554 q 0,2.33569 1.95251,2.33569 h 0.78464 q 0.3832,1.38682 0.3832,2.40869 0,2.51818 -1.58754,3.8685 -1.5693,1.33208 -4.58016,1.33208 -2.99262,0 -4.78088,-1.66053 -1.77002,-1.67879 -1.77002,-4.92687 z"
               style="font-style:normal;font-variant:normal;font-weight:normal;font-stretch:normal;font-size:40px;font-family:Modak;-inkscape-font-specification:'Modak, Normal';font-variant-ligatures:normal;font-variant-caps:normal;font-variant-numeric:normal;font-feature-settings:normal;text-align:start;writing-mode:lr-tb;text-anchor:start;fill:#ffffff;fill-opacity:1;stroke:#000000;stroke-width:0.97645164;stroke-miterlimit:4;stroke-dasharray:none;stroke-dashoffset:0;stroke-opacity:0.97340423"
               id="path849"
               inkscape:connector-curvature="0" />
            <path
               d="m 147.93028,403.31327 q -2.17148,0 -3.46706,-0.78465 -1.44156,-0.82114 -1.44156,-2.42694 v -9.39753 q -1.07661,-1.51455 -1.07661,-3.72251 0,-2.22622 1.07661,-3.85026 h 2.79189 q 2.15322,0 3.08385,1.38682 -0.45619,0.51093 -0.8029,1.29559 -0.3467,0.78464 -0.3467,1.13134 0,0.32847 0.16423,0.4927 0.18247,0.16422 0.51093,0.16422 0.63867,-2.53643 2.42694,-3.72252 1.47806,-1.00362 3.64953,-1.00362 2.70065,0 4.23345,1.1496 0.54743,1.45981 0.54743,3.57654 0,2.09848 -0.83939,3.81376 -0.62042,0.32846 -1.71528,0.56568 -1.09486,0.21897 -2.20797,0.21897 -1.1131,0 -2.00724,-0.14599 -0.87589,-0.16422 -1.27733,-0.29196 -0.14598,0.14598 -0.14598,0.4197 0,0.27371 0.3467,0.4197 0.36496,0.12773 1.20435,0.29196 v 9.16032 q -1.98899,1.25908 -4.70789,1.25908 z"
               style="font-style:normal;font-variant:normal;font-weight:normal;font-stretch:normal;font-size:40px;font-family:Modak;-inkscape-font-specification:'Modak, Normal';font-variant-ligatures:normal;font-variant-caps:normal;font-variant-numeric:normal;font-feature-settings:normal;text-align:start;writing-mode:lr-tb;text-anchor:start;fill:#ffffff;fill-opacity:1;stroke:#000000;stroke-width:0.97645164;stroke-miterlimit:4;stroke-dasharray:none;stroke-dashoffset:0;stroke-opacity:0.97340423"
               id="path851"
               inkscape:connector-curvature="0" />
            <path
               d="m 170.52086,403.64173 q -5.0546,0 -7.97422,-2.81014 -2.99261,-2.82838 -2.99261,-7.737 0,-4.92686 3.08385,-7.80999 2.84663,-2.6824 7.20782,-2.6824 4.36119,0 6.98885,2.40869 2.6459,2.39043 2.6459,5.89398 0,3.12035 -2.17147,4.7079 -2.00723,1.49631 -5.47429,1.49631 -2.59116,0 -4.37943,-1.07661 -0.14598,0.10948 -0.14598,0.40144 0,0.54743 1.44156,1.00362 1.44157,0.49269 3.26633,0.49269 1.84301,0 3.33932,-0.4562 1.51455,-0.47443 2.42694,-1.1131 0.43794,0.3832 0.6934,1.42332 0.27372,1.02187 0.27372,1.8795 0,0.83939 -0.16423,1.49631 -1.42332,1.20435 -2.91962,1.71528 -2.11673,0.7664 -5.14584,0.7664 z m -0.23722,-12.35365 q 0.91238,0 0.91238,-0.69342 0,-0.65691 -0.96712,-0.65691 -0.96713,0 -1.11311,1.04012 0.51094,0.31021 1.16785,0.31021 z"
               style="font-style:normal;font-variant:normal;font-weight:normal;font-stretch:normal;font-size:40px;font-family:Modak;-inkscape-font-specification:'Modak, Normal';font-variant-ligatures:normal;font-variant-caps:normal;font-variant-numeric:normal;font-feature-settings:normal;text-align:start;writing-mode:lr-tb;text-anchor:start;fill:#ffffff;fill-opacity:1;stroke:#000000;stroke-width:0.97645164;stroke-miterlimit:4;stroke-dasharray:none;stroke-dashoffset:0;stroke-opacity:0.97340423"
               id="path853"
               inkscape:connector-curvature="0" />
            <path
               d="m 190.24657,393.22232 v 2.44519 q 0.12773,0.12773 0.41969,0.12773 0.29197,0 0.4197,-0.20072 0.12774,-0.20073 0.12774,-0.69341 v -1.86126 q 0,-1.75177 -0.14599,-2.31745 -0.14598,-0.58393 -0.54743,-0.58393 -0.25547,0 -0.43794,0.18248 0.16423,1.80652 0.16423,2.90137 z m -5.821,-7.86473 q 0,0.54743 0.63866,0.54743 1.09486,-1.71528 2.57292,-2.53642 1.47806,-0.83939 3.55829,-0.83939 2.08024,0 3.79551,0.65692 2.35395,0.93062 3.72252,2.9926 1.71529,2.60942 1.71529,6.84287 0,4.76264 -2.55468,7.40855 -2.53642,2.62766 -7.04359,2.62766 -2.51817,0 -3.92324,-0.62043 -0.12774,0.073 -0.12774,0.31022 0,0.54742 0.8394,0.78465 0.85764,0.23722 2.93787,0.3467 v 4.85388 q -1.87951,0.83938 -4.12397,0.83938 -2.64591,0 -3.99624,-0.96712 -1.5328,-1.04011 -1.5328,-3.19333 V 390.7224 q -1.07661,-1.51455 -1.07661,-3.75902 0,-0.91238 0.29197,-1.98899 0.29196,-1.07661 0.78464,-1.84301 h 2.59117 q 1.58755,0 2.42693,0.43794 -1.4963,1.11311 -1.4963,1.78827 z"
               style="font-style:normal;font-variant:normal;font-weight:normal;font-stretch:normal;font-size:40px;font-family:Modak;-inkscape-font-specification:'Modak, Normal';font-variant-ligatures:normal;font-variant-caps:normal;font-variant-numeric:normal;font-feature-settings:normal;text-align:start;writing-mode:lr-tb;text-anchor:start;fill:#ffffff;fill-opacity:1;stroke:#000000;stroke-width:0.97645164;stroke-miterlimit:4;stroke-dasharray:none;stroke-dashoffset:0;stroke-opacity:0.97340423"
               id="path855"
               inkscape:connector-curvature="0" />
            <path
               d="m 206.76068,403.31327 q -2.17147,0 -3.46705,-0.78465 -1.44157,-0.82114 -1.44157,-2.42694 v -9.39753 q -1.0766,-1.51455 -1.0766,-3.72251 0,-2.22622 1.0766,-3.85026 h 2.7919 q 2.15322,0 3.08385,1.38682 -0.45619,0.51093 -0.8029,1.29559 -0.3467,0.78464 -0.3467,1.13134 0,0.32847 0.16423,0.4927 0.18247,0.16422 0.51093,0.16422 0.63867,-2.53643 2.42694,-3.72252 1.47806,-1.00362 3.64953,-1.00362 2.70065,0 4.23345,1.1496 0.54743,1.45981 0.54743,3.57654 0,2.09848 -0.83939,3.81376 -0.62042,0.32846 -1.71528,0.56568 -1.09486,0.21897 -2.20797,0.21897 -1.1131,0 -2.00724,-0.14599 -0.87589,-0.16422 -1.27733,-0.29196 -0.14598,0.14598 -0.14598,0.4197 0,0.27371 0.3467,0.4197 0.36496,0.12773 1.20434,0.29196 v 9.16032 q -1.98898,1.25908 -4.70789,1.25908 z"
               style="font-style:normal;font-variant:normal;font-weight:normal;font-stretch:normal;font-size:40px;font-family:Modak;-inkscape-font-specification:'Modak, Normal';font-variant-ligatures:normal;font-variant-caps:normal;font-variant-numeric:normal;font-feature-settings:normal;text-align:start;writing-mode:lr-tb;text-anchor:start;fill:#ffffff;fill-opacity:1;stroke:#000000;stroke-width:0.97645164;stroke-miterlimit:4;stroke-dasharray:none;stroke-dashoffset:0;stroke-opacity:0.97340423"
               id="path857"
               inkscape:connector-curvature="0" />
            <path
               d="m 228.27465,386.65317 v 7.22607 q 0,2.7189 1.31384,3.54004 0.0182,0.0913 0.0182,0.34671 v 0.32846 q 0,2.6824 -1.45981,4.03272 -1.35033,1.27734 -3.61303,1.27734 -2.24447,0 -3.70428,-1.27734 -1.84301,-1.62404 -1.84301,-4.74438 v -11.86097 q 0.32846,-0.23722 0.71166,-0.3832 0.3832,-0.14598 0.80289,-0.36496 -0.78464,-0.40144 -1.42332,-1.38681 -0.63866,-1.00363 -0.63866,-2.3357 0,-2.29921 1.51455,-3.75902 1.51456,-1.45981 3.70428,-1.45981 2.20796,0 3.68602,1.4963 1.49631,1.47807 1.49631,3.72253 0,1.80651 -1.13135,3.17509 -1.13136,1.35032 -2.7554,1.69703 0,0.69341 0.52918,0.69341 0.93063,0 1.89775,-0.72991 0.72991,0.56568 0.89414,0.7664 z"
               style="font-style:normal;font-variant:normal;font-weight:normal;font-stretch:normal;font-size:40px;font-family:Modak;-inkscape-font-specification:'Modak, Normal';font-variant-ligatures:normal;font-variant-caps:normal;font-variant-numeric:normal;font-feature-settings:normal;text-align:start;writing-mode:lr-tb;text-anchor:start;fill:#ffffff;fill-opacity:1;stroke:#000000;stroke-width:0.97645164;stroke-miterlimit:4;stroke-dasharray:none;stroke-dashoffset:0;stroke-opacity:0.97340423"
               id="path859"
               inkscape:connector-curvature="0" />
            <path
               d="m 240.11738,388.7699 q -0.47444,0.14598 -0.47444,0.56568 v 0.0912 q 0,0.0913 0.0182,0.10948 0.20073,-0.0182 0.52918,-0.0182 h 0.43795 q 2.08023,0 3.88675,0.63866 1.82476,0.62043 2.97436,2.00724 1.27734,1.5693 1.27734,3.95974 0,3.72253 -2.57292,5.62028 -2.57292,1.89776 -6.87936,1.89776 -4.30644,0 -6.75163,-1.42332 -2.42694,-1.42332 -2.42694,-4.17872 0,-1.02187 0.43794,-1.86125 0.43795,-0.85764 0.98538,-1.20435 1.00362,0.83939 2.90137,1.45981 1.91601,0.60217 4.05098,0.60217 0.85764,0 0.85764,-0.47444 0,-0.21896 -0.0548,-0.36494 -0.12774,0.0182 -0.31021,0.0182 h -0.20072 q -3.86851,0 -6.18596,-1.53281 -2.62766,-1.73353 -2.62766,-4.89037 0,-3.15684 2.35394,-5.10934 2.60942,-2.15322 7.17133,-2.15322 2.24446,0 4.17871,0.47444 1.9525,0.47444 3.33932,1.25909 0.3467,0.74815 0.3467,2.20796 0,2.22621 -1.22259,3.41231 -0.93062,-0.51093 -2.28095,-0.83939 -1.33208,-0.34671 -2.40869,-0.34671 -1.07662,0 -1.35032,0.073 z"
               style="font-style:normal;font-variant:normal;font-weight:normal;font-stretch:normal;font-size:40px;font-family:Modak;-inkscape-font-specification:'Modak, Normal';font-variant-ligatures:normal;font-variant-caps:normal;font-variant-numeric:normal;font-feature-settings:normal;text-align:start;writing-mode:lr-tb;text-anchor:start;fill:#ffffff;fill-opacity:1;stroke:#000000;stroke-width:0.97645164;stroke-miterlimit:4;stroke-dasharray:none;stroke-dashoffset:0;stroke-opacity:0.97340423"
               id="path861"
               inkscape:connector-curvature="0" />
            <path
               d="m 260.44526,403.64173 q -5.0546,0 -7.97423,-2.81014 -2.9926,-2.82838 -2.9926,-7.737 0,-4.92686 3.08385,-7.80999 2.84662,-2.6824 7.20781,-2.6824 4.36119,0 6.98885,2.40869 2.64591,2.39043 2.64591,5.89398 0,3.12035 -2.17147,4.7079 -2.00724,1.49631 -5.47429,1.49631 -2.59117,0 -4.37944,-1.07661 -0.14598,0.10948 -0.14598,0.40144 0,0.54743 1.44157,1.00362 1.44156,0.49269 3.26632,0.49269 1.84302,0 3.33932,-0.4562 1.51456,-0.47443 2.42694,-1.1131 0.43795,0.3832 0.69341,1.42332 0.27371,1.02187 0.27371,1.8795 0,0.83939 -0.16422,1.49631 -1.42332,1.20435 -2.91963,1.71528 -2.11672,0.7664 -5.14583,0.7664 z m -0.23722,-12.35365 q 0.91238,0 0.91238,-0.69342 0,-0.65691 -0.96712,-0.65691 -0.96713,0 -1.11311,1.04012 0.51094,0.31021 1.16785,0.31021 z"
               style="font-style:normal;font-variant:normal;font-weight:normal;font-stretch:normal;font-size:40px;font-family:Modak;-inkscape-font-specification:'Modak, Normal';font-variant-ligatures:normal;font-variant-caps:normal;font-variant-numeric:normal;font-feature-settings:normal;text-align:start;writing-mode:lr-tb;text-anchor:start;fill:#ffffff;fill-opacity:1;stroke:#000000;stroke-width:0.97645164;stroke-miterlimit:4;stroke-dasharray:none;stroke-dashoffset:0;stroke-opacity:0.97340423"
               id="path863"
               inkscape:connector-curvature="0" />
            <path
               d="m 280.6456,389.20466 q -0.47444,0.14598 -0.47444,0.56568 v 0.0912 q 0,0.0913 0.0182,0.10949 0.20073,-0.0182 0.52918,-0.0182 h 0.43795 q 2.08023,0 3.88675,0.63867 1.82476,0.62042 2.97436,2.00724 1.27734,1.5693 1.27734,3.95974 0,3.72252 -2.57292,5.62028 -2.57292,1.89775 -6.87936,1.89775 -4.30644,0 -6.75163,-1.42332 -2.42694,-1.42331 -2.42694,-4.17871 0,-1.02187 0.43794,-1.86125 0.43795,-0.85764 0.98538,-1.20435 1.00362,0.83939 2.90137,1.45981 1.91601,0.60217 4.05098,0.60217 0.85764,0 0.85764,-0.47444 0,-0.21896 -0.0547,-0.36495 -0.12774,0.0182 -0.31021,0.0182 h -0.20072 q -3.86851,0 -6.18596,-1.5328 -2.62766,-1.73353 -2.62766,-4.89037 0,-3.15684 2.35394,-5.10934 2.60942,-2.15322 7.17133,-2.15322 2.24446,0 4.17871,0.47443 1.9525,0.47445 3.33932,1.25909 0.3467,0.74816 0.3467,2.20797 0,2.22621 -1.22259,3.4123 -0.93062,-0.51093 -2.28095,-0.83938 -1.33208,-0.34671 -2.40869,-0.34671 -1.07662,0 -1.35032,0.073 z"
               style="font-style:normal;font-variant:normal;font-weight:normal;font-stretch:normal;font-size:40px;line-height:1.25;font-family:Modak;-inkscape-font-specification:'Modak, Normal';font-variant-ligatures:normal;font-variant-caps:normal;font-variant-numeric:normal;font-feature-settings:normal;text-align:start;letter-spacing:0px;word-spacing:0px;writing-mode:lr-tb;text-anchor:start;fill:#ffffff;fill-opacity:1;stroke:#000000;stroke-width:0.97645164;stroke-miterlimit:4;stroke-dasharray:none;stroke-dashoffset:0;stroke-opacity:0.97340423"
               id="path861-8"
               inkscape:connector-curvature="0" />
            <g
               aria-label="pour"
               transform="matrix(0.45709869,0,0,0.45709869,-139.24818,300.61634)"
               style="font-style:normal;font-variant:normal;font-weight:normal;font-stretch:normal;font-size:40px;line-height:1.25;font-family:Modak;-inkscape-font-specification:'Modak, Normal';font-variant-ligatures:normal;font-variant-caps:normal;font-variant-numeric:normal;font-feature-settings:normal;text-align:start;letter-spacing:0px;word-spacing:0px;writing-mode:lr-tb;text-anchor:start;fill:#000000;fill-opacity:1;stroke:none"
               id="flowRoot1560">
              <path
                 d="m 398.89844,212.02906 v 2.61719 q 0.13672,0.13672 0.44922,0.13672 0.3125,0 0.44921,-0.21485 0.13672,-0.21484 0.13672,-0.74219 v -1.99218 q 0,-1.875 -0.15625,-2.48047 -0.15625,-0.625 -0.58593,-0.625 -0.27344,0 -0.46875,0.19531 0.17578,1.93359 0.17578,3.10547 z m -6.23047,-8.41797 q 0,0.58594 0.68359,0.58594 1.17188,-1.83594 2.75391,-2.71485 1.58203,-0.89843 3.80859,-0.89843 2.22656,0 4.0625,0.70312 2.51953,0.9961 3.98438,3.20313 1.83593,2.79297 1.83593,7.32422 0,5.09765 -2.73437,7.92968 -2.71484,2.8125 -7.53906,2.8125 -2.69532,0 -4.19922,-0.66406 -0.13672,0.0781 -0.13672,0.33203 0,0.58594 0.89844,0.83985 0.91797,0.2539 3.14453,0.37109 v 5.19531 q -2.01172,0.89844 -4.41406,0.89844 -2.83204,0 -4.27735,-1.03516 -1.64062,-1.11328 -1.64062,-3.41797 v -15.72265 q -1.15235,-1.6211 -1.15235,-4.02344 0,-0.97656 0.3125,-2.12891 0.3125,-1.15234 0.83985,-1.97265 h 2.77343 q 1.69922,0 2.59766,0.46875 -1.60156,1.1914 -1.60156,1.91406 z"
                 style=""
                 id="path1570" />
              <path
                 d="m 421.08594,211.69703 v 3.41797 q 0.13672,0.13672 0.44922,0.13672 0.3125,0 0.44921,-0.21485 0.13672,-0.21484 0.13672,-0.74219 v -2.79296 q 0,-1.875 -0.15625,-2.48047 -0.15625,-0.625 -0.58593,-0.625 -0.27344,0 -0.46875,0.19531 0.17578,1.93359 0.17578,3.10547 z m -7.30469,8.65234 q -3.20313,-3.08594 -3.20313,-8.35937 0,-5.29297 3.00782,-8.33985 3.02734,-3.0664 7.92968,-3.0664 4.90235,0 7.92969,3.18359 3.00781,3.18359 3.00781,8.30078 0,5.09766 -2.91015,8.10547 -2.89063,3.00781 -7.8711,3.00781 -4.98046,0 -7.89062,-2.83203 z"
                 style=""
                 id="path1572" />
              <path
                 d="m 444.17187,214.06031 q 0.23438,0 0.50782,-0.19531 -0.19532,-0.64453 -0.19532,-2.01172 v -9.64844 q 2.07032,-1.25 4.98047,-1.25 1.64063,0 2.8711,0.44922 1.25,0.42969 1.91406,1.15234 v 10.17578 q 0,2.91016 1.40625,3.78907 0.0195,0.0976 0.0195,0.37109 v 0.35156 q 0,2.85157 -1.50391,4.31641 -1.36718,1.36719 -3.76953,1.36719 -1.5039,0 -2.73437,-0.6836 -1.21094,-0.68359 -1.81641,-1.99218 -0.66406,0 -0.66406,0.64453 0,0.44922 0.44922,0.89843 -0.625,0.50782 -1.50391,0.82032 -0.8789,0.3125 -2.59765,0.3125 -1.69922,0 -3.32032,-0.70313 -2.01172,-0.85937 -3.08593,-2.63672 -1.3086,-2.10937 -1.3086,-5.35156 v -4.90234 q -0.99609,-1.73828 -0.99609,-3.82813 0,-1.07422 0.27344,-2.22656 0.27343,-1.15234 0.8789,-2.05078 h 4.29688 q 2.42187,0 3.78906,1.15234 1.38672,1.13281 1.38672,3.45703 v 6.32813 q 0,1.89453 0.72265,1.89453 z"
                 style=""
                 id="path1574" />
              <path
                 d="m 462.04297,222.82984 q -2.32422,0 -3.71094,-0.83984 -1.54297,-0.87891 -1.54297,-2.59766 v -10.05859 q -1.15234,-1.6211 -1.15234,-3.98438 0,-2.38281 1.15234,-4.12109 h 2.98828 q 2.30469,0 3.30078,1.48437 -0.48828,0.54688 -0.85937,1.38672 -0.37109,0.83985 -0.37109,1.21094 0,0.35156 0.17578,0.52734 0.19531,0.17578 0.54687,0.17578 0.6836,-2.71484 2.59766,-3.98437 1.58203,-1.07422 3.90625,-1.07422 2.89062,0 4.53125,1.23047 0.58594,1.5625 0.58594,3.82812 0,2.2461 -0.89844,4.08204 -0.66406,0.35156 -1.83594,0.60546 -1.17187,0.23438 -2.36328,0.23438 -1.19141,0 -2.14844,-0.15625 -0.9375,-0.17578 -1.36719,-0.3125 -0.15625,0.15625 -0.15625,0.44922 0,0.29297 0.3711,0.44922 0.39062,0.13672 1.28906,0.3125 v 9.80468 q -2.12891,1.34766 -5.03906,1.34766 z"
                 style=""
                 id="path1576" />
            </g>
          </g>
          <g
             aria-label="Entreprises"
             transform="matrix(0.86112975,0,0,0.86112975,0.79230493,-275.49471)"
             style="font-style:normal;font-weight:normal;font-size:40px;line-height:1.25;font-family:sans-serif;letter-spacing:0px;word-spacing:0px;fill:#3a7be0;fill-opacity:1;stroke:none;stroke-width:1.04513872;stroke-miterlimit:4;stroke-dasharray:none;stroke-dashoffset:0;stroke-opacity:1"
             id="flowRoot7298-9" />
        </g>
      </g>
    </g>
  </g>
</svg>
