<?xml version="1.0" encoding="UTF-8" standalone="no"?>
<!-- Created with Inkscape (http://www.inkscape.org/) -->

<svg
   xmlns:dc="http://purl.org/dc/elements/1.1/"
   xmlns:cc="http://creativecommons.org/ns#"
   xmlns:rdf="http://www.w3.org/1999/02/22-rdf-syntax-ns#"
   xmlns:svg="http://www.w3.org/2000/svg"
   xmlns="http://www.w3.org/2000/svg"
   xmlns:sodipodi="http://sodipodi.sourceforge.net/DTD/sodipodi-0.dtd"
   xmlns:inkscape="http://www.inkscape.org/namespaces/inkscape"
   width="210mm"
   height="125mm"
   viewBox="0 0 210 125"
   version="1.1"
   id="svg8"
   inkscape:version="0.92.5 (2060ec1f9f, 2020-04-08)"
   sodipodi:docname="happy_unhappy.svg">
  <defs
     id="defs2" />
  <sodipodi:namedview
     id="base"
     pagecolor="#ffffff"
     bordercolor="#666666"
     borderopacity="1.0"
     inkscape:pageopacity="0.0"
     inkscape:pageshadow="2"
     inkscape:zoom="0.98994949"
     inkscape:cx="16.866288"
     inkscape:cy="209.68598"
     inkscape:document-units="mm"
     inkscape:current-layer="g1225"
     showgrid="false"
     inkscape:window-width="2560"
     inkscape:window-height="1377"
     inkscape:window-x="1072"
     inkscape:window-y="476"
     inkscape:window-maximized="1" />
  <metadata
     id="metadata5">
    <rdf:RDF>
      <cc:Work
         rdf:about="">
        <dc:format>image/svg+xml</dc:format>
        <dc:type
           rdf:resource="http://purl.org/dc/dcmitype/StillImage" />
        <dc:title></dc:title>
      </cc:Work>
    </rdf:RDF>
  </metadata>
  <g
     inkscape:label="Layer 1"
     inkscape:groupmode="layer"
     id="layer1"
     transform="translate(0,-172)">
    <g
       id="g983"
       transform="matrix(0.26458333,0,0,0.26458333,-8.4722852,22.861548)">
      <g
         id="g1225"
         transform="matrix(0.76999633,0,0,0.76999633,-58.006404,114.25599)">
        <path
           id="path987"
           d="M 949.01543,1114.9898 873.54977,992.70798 a 2.4017428,2.2462013 0 0 0 -4.1703,0 l -75.48751,122.28182 a 2.4017428,2.2462013 0 0 0 2.08879,3.4034 h 22.51816 a 2.4162988,2.2598146 0 0 1 2.40902,2.253 v 26.1239 a 2.4017428,2.2462013 0 0 0 2.39447,2.2531 h 29.38131 a 2.4090208,2.253008 0 0 0 2.40902,-2.2531 v -12.6399 a 2.4017428,2.2462013 0 0 1 2.40174,-2.2462 h 27.933 a 2.4090208,2.253008 0 0 1 2.40903,2.2462 v 12.6127 a 2.4090208,2.253008 0 0 0 2.40902,2.2531 h 29.37404 a 2.4308549,2.273428 0 0 0 2.4163,-2.2531 v -26.1239 a 2.4090208,2.253008 0 0 1 2.40902,-2.2531 h 22.51816 a 2.4090208,2.253008 0 0 0 2.05239,-3.3761 z m -105.21816,13.5317 a 2.4308549,2.273428 0 0 1 -1.71033,0.6807 h -10.59679 a 2.4090657,2.25305 0 0 1 0,-4.5061 h 10.59679 a 2.4017428,2.2462013 0 0 1 2.40901,2.253 2.4308549,2.273428 0 0 1 -0.69868,1.5724 z m 69.33759,0 a 2.3944648,2.2393946 0 0 1 -1.70306,0.6807 h -10.58951 a 2.4162988,2.2598146 0 0 1 -2.40902,-2.2531 2.4235768,2.2666213 0 0 1 2.40902,-2.253 h 10.58951 a 2.4017428,2.2462013 0 0 1 1.70306,3.8458 z"
           inkscape:connector-curvature="0"
           style="fill:#f2f2f2;stroke-width:0.70383948" />
        <path
           id="path989"
           d="M 482.45142,1116.0652 406.9712,993.79024 a 2.4162988,2.2598146 0 0 0 -4.17758,0 l -65.20368,105.61226 a 199.57755,186.65252 0 0 0 27.31437,26.3486 h 10.60406 a 2.4090208,2.253008 0 0 1 1.70305,3.8458 2.3653528,2.212168 0 0 1 -1.70305,0.6807 h -4.48326 a 116.6592,109.10413 0 0 0 17.46722,10.1624 v -5.2072 a 2.4162988,2.2598146 0 0 1 2.4163,-2.2529 h 27.92572 a 2.4090208,2.253008 0 0 1 2.40902,2.2529 v 12.606 a 2.2416266,2.0964545 0 0 0 0.22562,0.9462 2.3871868,2.232588 0 0 0 2.1834,1.3068 h 29.38132 a 2.3799088,2.2257813 0 0 0 1.91412,-0.9052 2.3071287,2.1577145 0 0 0 0.48034,-1.3614 v -26.124 a 2.4090208,2.253008 0 0 1 2.40902,-2.253 h 22.51816 a 2.4017428,2.2462013 0 0 0 2.09607,-3.383 z m -49.89803,10.3462 a 2.4235768,2.2666213 0 0 1 1.71033,-0.6806 h 10.59679 a 2.4090208,2.253008 0 0 1 2.40902,2.2529 2.4235768,2.2666213 0 0 1 -2.40902,2.253 h -10.59679 a 2.4017428,2.2462013 0 0 1 -2.40902,-2.253 2.4308549,2.273428 0 0 1 0.69869,-1.5723 z m -47.40894,-45.2508 a 2.4017428,2.2462013 0 0 1 -2.40903,-2.2529 v -17.112 a 2.4017428,2.2462013 0 0 1 2.40903,-2.2531 h 39.4832 a 2.4090208,2.253008 0 0 1 2.40902,2.2531 v 17.112 a 2.4090208,2.253008 0 0 1 -2.40902,2.2529 z"
           inkscape:connector-curvature="0"
           style="fill:#f2f2f2;stroke-width:0.70383948" />
        <path
           id="path991"
           d="m 747.1926,925.29827 h -82.73633 v -16.73433 a 4.2734637,3.9967059 0 0 0 -4.2799,-4.00273 h -24.29364 v -17.79529 a 2.6942803,2.5197935 0 0 0 -2.69429,-2.51979 h -31.29361 a 2.6942803,2.5197935 0 0 0 -2.69427,2.51979 v 17.82544 H 570.627 a 4.2799093,4.0027341 0 0 0 -4.2799,4.00273 v 16.69212 h -78.86895 a 0.8701623,0.8138089 0 0 0 -0.8637,0.81381 v 222.16378 a 0.8701623,0.8138089 0 0 0 0.8637,0.8138 h 52.4289 a 0.8701623,0.8138089 0 0 0 0.87016,-0.8138 v -29.8879 a 0.88305356,0.8258653 0 0 1 0.8766,-0.8138 h 22.1408 a 0.87660797,0.81983714 0 0 1 0.87017,0.8138 v 29.8879 a 0.87660797,0.81983714 0 0 0 0.86372,0.8138 h 103.60732 a 0.87660797,0.81983714 0 0 0 0.87016,-0.8138 v -29.8879 a 0.87660797,0.81983714 0 0 1 0.86372,-0.8138 h 22.14724 a 0.87660797,0.81983714 0 0 1 0.8766,0.8138 v 29.8879 a 0.87660797,0.81983714 0 0 0 0.86371,0.8138 h 52.43535 a 0.8701623,0.8138089 0 0 0 0.86371,-0.8138 V 926.11208 a 0.8701623,0.8138089 0 0 0 -0.86371,-0.81381 z M 531.38591,1107.1816 a 0.86371662,0.80778066 0 0 1 -0.85728,0.8078 h -32.38292 a 0.8701623,0.8138089 0 0 1 -0.87662,-0.8078 v -10.3444 a 0.87660797,0.81983714 0 0 1 0.87662,-0.8139 h 32.38292 a 0.8701623,0.8138089 0 0 1 0.85728,0.8139 z m 0,-26.7292 a 0.86371662,0.80778066 0 0 1 -0.85728,0.8138 h -32.38292 a 0.8701623,0.8138089 0 0 1 -0.87662,-0.8138 v -10.3384 a 0.8701623,0.8138089 0 0 1 0.87662,-0.8138 h 32.38292 a 0.86371662,0.80778066 0 0 1 0.85728,0.8138 z m 0,-26.723 a 0.8701623,0.8138089 0 0 1 -0.85728,0.8137 h -32.38292 a 0.87660797,0.81983714 0 0 1 -0.87662,-0.8137 v -10.3445 a 0.87660797,0.81983714 0 0 1 0.87662,-0.8137 h 32.38292 a 0.8701623,0.8138089 0 0 1 0.85728,0.8137 z m 0,-26.7291 a 0.86371662,0.80778066 0 0 1 -0.85728,0.8137 h -32.38292 a 0.8701623,0.8138089 0 0 1 -0.87662,-0.8137 v -10.3384 a 0.8701623,0.8138089 0 0 1 0.87662,-0.8138 h 32.38292 a 0.86371662,0.80778066 0 0 1 0.85728,0.8138 z m 0,-26.7231 a 0.8701623,0.8138089 0 0 1 -0.85728,0.8138 h -32.38292 a 0.87660797,0.81983714 0 0 1 -0.87662,-0.8138 v -10.34442 a 0.8701623,0.8138089 0 0 1 0.87662,-0.80778 h 32.38292 a 0.86371662,0.80778066 0 0 1 0.85728,0.80778 z m 0,-26.72307 a 0.86371662,0.80778066 0 0 1 -0.85728,0.80777 h -32.38292 a 0.8701623,0.8138089 0 0 1 -0.87662,-0.80777 v -10.34442 a 0.87660797,0.81983714 0 0 1 0.87662,-0.81381 h 32.38292 a 0.8701623,0.8138089 0 0 1 0.85728,0.81381 z m 0,-26.72911 a 0.86371662,0.80778066 0 0 1 -0.85728,0.81381 h -32.38292 a 0.8701623,0.8138089 0 0 1 -0.87662,-0.81381 v -10.33838 a 0.8701623,0.8138089 0 0 1 0.87662,-0.81382 h 32.38292 a 0.86371662,0.80778066 0 0 1 0.85728,0.81382 z m 76.78054,160.35048 a 0.8701623,0.8138089 0 0 1 -0.87661,0.8078 h -32.38293 a 0.86371662,0.80778066 0 0 1 -0.86371,-0.8078 v -10.3383 a 0.8701623,0.8138089 0 0 1 0.86371,-0.8139 h 32.38293 a 0.87660797,0.81983714 0 0 1 0.87661,0.8139 z m 0,-26.7291 a 0.8701623,0.8138089 0 0 1 -0.87661,0.8138 h -32.38293 a 0.86371662,0.80778066 0 0 1 -0.86371,-0.8138 v -10.3324 a 0.86371662,0.80778066 0 0 1 0.86371,-0.8138 h 32.38293 a 0.8701623,0.8138089 0 0 1 0.87661,0.8138 z m 0,-26.7231 a 0.87660797,0.81983714 0 0 1 -0.87661,0.8138 h -32.38293 a 0.8701623,0.8138089 0 0 1 -0.86371,-0.7896 v -10.3626 a 0.8701623,0.8138089 0 0 1 0.86371,-0.8137 h 32.38293 a 0.87660797,0.81983714 0 0 1 0.87661,0.8137 z m 0,-26.729 a 0.8701623,0.8138089 0 0 1 -0.87661,0.8137 h -32.38293 a 0.86371662,0.80778066 0 0 1 -0.86371,-0.8137 v -10.3324 a 0.86371662,0.80778066 0 0 1 0.86371,-0.8138 h 32.38293 a 0.8701623,0.8138089 0 0 1 0.87661,0.8138 z m 0,-26.7231 a 0.87660797,0.81983714 0 0 1 -0.87661,0.8138 h -32.38293 a 0.8701623,0.8138089 0 0 1 -0.86371,-0.8138 v -10.33842 a 0.86371662,0.80778066 0 0 1 0.86371,-0.80778 h 32.38293 a 0.8701623,0.8138089 0 0 1 0.87661,0.80778 z m 0,-26.72311 a 0.8701623,0.8138089 0 0 1 -0.87661,0.80779 h -32.38293 a 0.86371662,0.80778066 0 0 1 -0.86371,-0.78367 v -10.3625 a 0.8701623,0.8138089 0 0 1 0.86371,-0.81381 h 32.38293 a 0.87660797,0.81983714 0 0 1 0.87661,0.81381 z m 0,-26.7291 a 0.8701623,0.8138089 0 0 1 -0.87661,0.81382 h -32.38293 a 0.86371662,0.80778066 0 0 1 -0.86371,-0.81382 v -10.33235 a 0.86371662,0.80778066 0 0 1 0.86371,-0.81382 h 32.38293 a 0.8701623,0.8138089 0 0 1 0.87661,0.81382 z m 52.45467,160.35041 a 0.86371662,0.80778066 0 0 1 -0.87017,0.8079 h -32.40227 a 0.87660797,0.81983714 0 0 1 -0.8766,-0.8079 v -10.3322 a 0.88305356,0.8258653 0 0 1 0.8766,-0.8139 h 32.37649 a 0.8701623,0.8138089 0 0 1 0.87016,0.8139 z m 0,-26.7291 a 0.86371662,0.80778066 0 0 1 -0.87017,0.8139 h -32.40227 a 0.87660797,0.81983714 0 0 1 -0.8766,-0.8139 v -10.3263 a 0.87660797,0.81983714 0 0 1 0.8766,-0.8138 h 32.37649 a 0.86371662,0.80778066 0 0 1 0.87016,0.8138 z m 0,-26.723 a 0.8701623,0.8138089 0 0 1 -0.87017,0.8138 h -32.40227 a 0.88305356,0.8258653 0 0 1 -0.8766,-0.8138 v -10.3324 a 0.88305356,0.8258653 0 0 1 0.8766,-0.8137 h 32.37649 a 0.8701623,0.8138089 0 0 1 0.87016,0.8137 z m 0,-26.7291 a 0.86371662,0.80778066 0 0 1 -0.87017,0.8138 h -32.40227 a 0.87660797,0.81983714 0 0 1 -0.8766,-0.8138 v -10.3263 a 0.87660797,0.81983714 0 0 1 0.8766,-0.8138 h 32.37649 a 0.86371662,0.80778066 0 0 1 0.87016,0.8138 z m 0,-26.7231 a 0.8701623,0.8138089 0 0 1 -0.87017,0.8138 h -32.40227 a 0.88305356,0.8258653 0 0 1 -0.8766,-0.8138 v -10.33232 a 0.87660797,0.81983714 0 0 1 0.8766,-0.80778 h 32.37649 a 0.86371662,0.80778066 0 0 1 0.87016,0.80778 z m 0,-26.72304 a 0.86371662,0.80778066 0 0 1 -0.87017,0.80778 h -32.40227 a 0.87660797,0.81983714 0 0 1 -0.8766,-0.80778 v -10.33235 a 0.88305356,0.8258653 0 0 1 0.8766,-0.81381 h 32.37649 a 0.8701623,0.8138089 0 0 1 0.87016,0.81381 z m 0,-26.72909 a 0.86371662,0.80778066 0 0 1 -0.87017,0.8138 h -32.40227 a 0.87660797,0.81983714 0 0 1 -0.8766,-0.8138 v -10.32633 a 0.87660797,0.81983714 0 0 1 0.8766,-0.81382 h 32.37649 a 0.86371662,0.80778066 0 0 1 0.87016,0.81382 z m 76.78054,160.35053 a 0.87660797,0.81983714 0 0 1 -0.87661,0.8077 h -32.38292 a 0.85727095,0.80175242 0 0 1 -0.86373,-0.8077 v -10.3263 a 0.86371662,0.80778066 0 0 1 0.86373,-0.8139 h 32.38292 a 0.88305356,0.8258653 0 0 1 0.87661,0.8139 z m 0,-26.7291 a 0.87660797,0.81983714 0 0 1 -0.87661,0.8138 h -32.38292 a 0.86371662,0.80778066 0 0 1 -0.86373,-0.8138 v -10.3204 a 0.86371662,0.80778066 0 0 1 0.86373,-0.8138 h 32.38292 a 0.87660797,0.81983714 0 0 1 0.87661,0.8138 z m 0,-26.7232 a 0.88305356,0.8258653 0 0 1 -0.87661,0.8139 h -32.38292 a 0.86371662,0.80778066 0 0 1 -0.86373,-0.7776 v -10.3626 a 0.86371662,0.80778066 0 0 1 0.86373,-0.8137 h 32.38292 a 0.88305356,0.8258653 0 0 1 0.87661,0.8137 z m 0,-26.7291 a 0.87660797,0.81983714 0 0 1 -0.87661,0.8139 h -32.38292 a 0.86371662,0.80778066 0 0 1 -0.86373,-0.8139 v -10.3202 a 0.86371662,0.80778066 0 0 1 0.86373,-0.8138 h 32.38292 a 0.87660797,0.81983714 0 0 1 0.87661,0.8138 z m 0,-26.723 a 0.88305356,0.8258653 0 0 1 -0.87661,0.8138 h -32.38292 a 0.86371662,0.80778066 0 0 1 -0.86373,-0.8138 v -10.32632 a 0.85727095,0.80175242 0 0 1 0.86373,-0.80778 h 32.38292 a 0.87660797,0.81983714 0 0 1 0.87661,0.80778 z m 0,-26.72307 a 0.87660797,0.81983714 0 0 1 -0.87661,0.80778 h -32.38292 a 0.85727095,0.80175242 0 0 1 -0.86373,-0.7716 v -10.3625 a 0.86371662,0.80778066 0 0 1 0.86373,-0.81381 h 32.38292 a 0.88305356,0.8258653 0 0 1 0.87661,0.81381 z m 0,-26.7291 a 0.87660797,0.81983714 0 0 1 -0.87661,0.81382 h -32.38292 a 0.86371662,0.80778066 0 0 1 -0.86373,-0.81382 v -10.32029 a 0.86371662,0.80778066 0 0 1 0.86373,-0.81382 h 32.38292 a 0.87660797,0.81983714 0 0 1 0.87661,0.81382 z"
           inkscape:connector-curvature="0"
           style="fill:#f2f2f2;stroke-width:0.62334371" />
        <path
           id="path993"
           d="m 330.53644,968.31569 a 34.938911,32.6762 0 0 0 2.70854,-3.72287 l -19.0913,-2.93266 20.65447,0.14489 a 34.816862,32.562055 0 0 0 0.67127,-25.78361 l -27.69576,13.43399 25.54113,-17.56076 a 34.798085,32.544494 0 1 0 -57.47107,36.43859 34.685425,32.439129 0 0 0 -3.96659,5.93554 l 24.75719,12.02034 -26.41424,-8.29307 a 34.826251,32.570835 0 0 0 5.63304,30.56013 34.563376,32.324985 0 0 0 -6.2386,11.612 346.65239,324.20251 0 0 0 16.38275,36.803 34.450714,32.219619 0 0 0 10.79666,3.6922 12.068781,11.287183 0 0 0 -0.68536,3.7799 11.477312,10.734019 0 0 0 1.46459,5.4351 11.266073,10.536461 0 0 0 -1.48336,4.636 v 0 a 214.01785,200.15763 0 0 0 14.12953,19.7559 10.679299,9.9876868 0 0 0 -1.14538,-2.634 11.927955,11.155477 0 0 0 0,-10.8702 11.927955,11.155477 0 0 0 0,-10.8702 11.477312,10.734019 0 0 0 1.51153,-5.435 11.918567,11.146697 0 0 0 -0.70413,-3.8326 34.798085,32.544494 0 0 0 20.65447,-52.0546 34.788697,32.535714 0 0 0 0,-40.24044 z"
           inkscape:connector-curvature="0"
           style="fill:#f2f2f2;stroke-width:0.45396507" />
        <path
           id="path995"
           d="m 1021.5553,1017.743 -2.1834,-0.3336 h 2.1398 a 92.372484,86.390263 0 0 0 -4.4251,-22.67298 l -7.6128,3.69602 7.1616,-4.94164 a 92.8965,86.880343 0 0 0 -35.48027,-43.51505 54.148384,50.641629 0 0 0 -21.1863,77.76615 53.951877,50.457849 0 0 0 -6.14991,9.2231 l 38.42789,18.7183 -40.95336,-12.885 a 54.206607,50.696082 0 0 0 8.73361,47.4834 54.155661,50.648436 0 0 0 23.94468,78.8008 c 2.91112,-6.4595 5.74228,-13.2118 8.39154,-20.1545 2.34349,-6.126 4.57781,-12.3678 6.68121,-18.6707 a 613.53611,573.80233 0 0 0 15.40021,-56.1959 c 4.658,-21.5908 7.278,-40.4589 7.278,-52.4114 -0.073,-1.3137 -0.1091,-2.607 -0.1674,-3.907 z"
           inkscape:connector-curvature="0"
           style="fill:#f2f2f2;stroke-width:0.70383948" />
        <ellipse
           id="ellipse997"
           ry="17.016676"
           rx="387.19006"
           cy="1160.3562"
           cx="615.39154"
           style="fill:#3f3d56;stroke-width:0.70383948" />
        <path
           id="path999"
           d="m 820.92249,983.72998 c -7.23435,-11.72108 -37.11785,-8.2701 -66.67384,7.70516 a 142.04489,132.84579 0 0 0 -14.83258,9.19576 128.56602,120.23983 0 0 0 -256.53525,3.0222 137.91098,128.9796 0 0 0 -18.92282,-12.252 c -29.49777,-15.94122 -59.38854,-19.3922 -66.61561,-7.67112 -7.22707,11.72109 10.91701,34.16952 40.473,50.14472 19.14845,10.3394 38.39878,15.424 51.56469,14.5595 a 128.71158,120.37597 0 0 0 39.17025,53.7727 c -25.92427,3.4034 -44.98538,14.7432 -44.98538,28.2341 0,16.159 27.37259,29.2687 61.13528,29.2687 33.76268,0 61.13527,-13.1097 61.13527,-29.2687 0,-0.04 0,-0.082 0,-0.1294 q 2.72197,0.1089 5.46578,0.1158 2.74381,0.01 5.46578,-0.1158 c 0,0.047 0,0.089 0,0.1294 0,16.159 27.3726,29.2687 61.13528,29.2687 33.76268,0 61.13527,-13.1097 61.13527,-29.2687 0,-13.4909 -19.06111,-24.8376 -44.98537,-28.2341 a 128.68975,120.35555 0 0 0 39.14113,-53.6706 c 12.8748,-0.3131 30.13095,-5.3569 47.30705,-14.6343 29.56328,-16.0025 47.70007,-38.45773 40.42207,-50.17202 z"
           inkscape:connector-curvature="0"
           style="fill:#ff5c9a;stroke-width:0.70383948;fill-opacity:1" />
        <path
           id="path1001"
           d="m 397.34239,989.85599 c 7.23434,-11.72109 37.11784,-8.27011 66.67383,7.70515 a 137.73631,128.81624 0 0 1 18.63899,12.00696 c 0.28384,-5.7584 0.28384,0.3676 0.26928,-5.9218 a 137.97648,129.04086 0 0 0 -18.92282,-12.21116 c -29.54144,-15.97526 -59.43221,-19.42624 -66.65928,-7.70516 -1.59389,2.57973 -1.95051,5.68357 -1.22999,9.12095 a 11.644814,10.890673 0 0 1 1.22999,-2.99494 z"
           inkscape:connector-curvature="0"
           style="opacity:0.1;stroke-width:0.70383948" />
        <path
           id="path1003"
           d="m 821.0826,989.85599 c -7.23434,-11.72109 -37.11784,-8.27011 -66.68112,7.70515 -6.89227,3.71646 -9.51963,5.07776 -14.99269,9.28436 -0.29112,-5.7585 -0.29112,0.3675 -0.26928,-5.9219 5.53128,-4.28137 8.26054,-5.70396 15.28381,-9.48846 29.59238,-15.97526 59.44678,-19.42624 66.68112,-7.70516 1.59388,2.57973 1.9505,5.68357 1.22998,9.12095 a 11.644814,10.890673 0 0 0 -1.25182,-2.99494 z"
           inkscape:connector-curvature="0"
           style="opacity:0.1;stroke-width:0.70383948" />
        <ellipse
           id="ellipse1005"
           ry="16.329203"
           rx="13.333311"
           cy="986.86108"
           cx="576.8399"
           style="fill:#444053;stroke-width:0.70383948" />
        <ellipse
           id="ellipse1007"
           ry="16.329203"
           rx="13.333311"
           cy="986.86108"
           cx="645.72632"
           style="fill:#444053;stroke-width:0.70383948" />
        <path
           id="path1009"
           d="m 694.13958,1038.2241 c 0,23.4422 -41.87038,62.9346 -84.11923,62.9346 -42.24884,0 -82.53989,-40.384 -82.53989,-63.8057 0,-23.4218 39.43953,-2.0421 81.65198,-2.0421 42.21245,0 85.00714,-20.5357 85.00714,2.9132 z"
           inkscape:connector-curvature="0"
           style="fill:#3f3d56;stroke-width:0.70383948" />
        <path
           id="path1011"
           d="m 540.79921,1042.2265 c 0,0 75.94602,20.8808 139.73777,0.5933 0,0 7.8093,0 2.47452,11.146 a 14.417735,17.806674 0 0 1 -5.82241,6.7596 c -12.29983,7.7572 -57.82377,30.6964 -130.61841,1.4471 a 14.323121,17.68982 0 0 1 -9.49053,-12 c -0.82969,-3.7842 -0.45851,-7.4157 3.71906,-7.946 z"
           inkscape:connector-curvature="0"
           style="fill:#f6f8fb;stroke-width:0.80882657" />
        <path
           id="path1013"
           d="m 610.81366,905.86848 a 128.55874,120.23303 0 0 1 128.32585,113.10642 q 0.36389,-4.4923 0.36389,-9.0733 a 128.56602,120.23983 0 0 0 -257.12475,0 c 0,2.4028 0.0874,4.7647 0.23289,7.1539 A 128.5733,120.24664 0 0 1 610.81366,905.86848 Z"
           inkscape:connector-curvature="0"
           style="opacity:0.1;stroke-width:0.70383948" />
        <path
           id="path1067"
           d="m 875.6159,920.52131 -5.63317,3.34208 3.42067,-5.8129 a 5.5603985,5.2002963 0 0 0 -3.41339,-1.13671 h -0.0874 a 7.0014441,6.5480171 0 0 1 -1.17176,-0.0817 l -1.90684,1.1299 0.81514,-1.36133 a 6.8413279,6.3982703 0 0 1 -3.34061,-2.37553 l -3.41339,2.042 2.1834,-3.66879 a 10.007262,9.3591724 0 0 0 -7.68558,-3.64838 c -3.55167,0 -6.7176,1.98074 -8.73361,5.05736 a 6.5502077,6.1260035 0 0 1 -5.8224,2.92006 h -0.18923 c -3.92284,0 -7.10334,4.15887 -7.10334,9.2911 0,5.13223 3.1805,9.2775 7.10334,9.2775 a 5.3275022,4.9824828 0 0 0 2.47452,-0.57857 10.261992,9.5974056 0 0 1 8.60261,-0.15655 8.9592284,8.3790114 0 0 0 7.27801,0 10.247436,9.5837922 0 0 1 8.52255,0.15655 5.3056681,4.9620628 0 0 0 2.44541,0.56495 c 3.92284,0 7.10333,-4.15887 7.10333,-9.2911 a 12.678291,11.85722 0 0 0 -1.44832,-5.66996 z"
           inkscape:connector-curvature="0"
           style="fill:#f2f2f2;stroke-width:0.70383948" />
        <path
           id="path1069"
           d="m 901.41645,930.13915 a 10.509444,9.8288325 0 0 0 -6.09169,0.6194 8.9373944,8.3585914 0 0 1 -3.63901,0.72151 9.0320085,8.4470782 0 0 1 -3.639,-0.73513 10.189212,9.5293386 0 0 0 -8.59533,0.15656 5.3493363,5.0029029 0 0 1 -2.47452,0.57857 c -3.48617,0 -6.39009,-3.28762 -6.99417,-7.61667 a 6.7321578,6.2961702 0 0 0 1.74672,-1.75611 c 2.03784,-3.08343 5.20378,-5.05736 8.73361,-5.05736 3.52984,0 6.68121,1.95351 8.73361,5.0029 a 6.7248799,6.2893636 0 0 0 5.82241,2.97451 h 0.0946 c 2.71469,0 5.11644,2.07603 6.30275,5.11182 z"
           inkscape:connector-curvature="0"
           style="opacity:0.02999998;stroke-width:0.70383948" />
        <path
           id="path1075"
           stroke-miterlimit="10"
           d="m 403.8926,1153.182 c -3.00582,-5.2003 0.40029,-11.5712 4.31586,-16.2066 3.91556,-4.6353 8.69722,-9.4681 8.59533,-15.3763 -0.14556,-8.4948 -9.78892,-13.5112 -17.46723,-18.0104 a 85.152699,79.638045 0 0 1 -15.69138,-11.7824 22.918448,21.434205 0 0 1 -4.82532,-6.0375 c -1.59389,-3.3217 -1.55022,-7.0994 -1.4556,-10.7409 q 0.50218,-18.1739 1.92139,-36.3204"
           inkscape:connector-curvature="0"
           style="fill:none;stroke:#3f3d56;stroke-width:2.81535792;stroke-miterlimit:10" />
        <path
           id="path1077"
           d="m 364.64957,1038.0336 a 14.126614,13.211748 0 0 1 7.07423,-10.8906 l 3.16594,5.8605 -0.10918,-7.0721 a 13.973776,13.068807 0 0 1 4.6652,-0.5242 14.163004,13.245781 0 1 1 -14.79619,12.6264 z"
           inkscape:connector-curvature="0"
           style="fill:#57b894;stroke-width:0.70383948" />
        <path
           id="path1079"
           d="m 389.91154,1127.6706 a 14.163004,13.245781 0 1 0 -0.68413,-10.666 l 8.84278,6.7318 -9.7307,-2.1101 a 13.951942,13.048388 0 0 0 1.57205,6.0443 z"
           inkscape:connector-curvature="0"
           style="fill:#57b894;stroke-width:0.70383948" />
        <path
           id="path1081"
           d="m 396.90571,1101.955 a 14.163004,13.245781 0 0 0 4.49053,-25.9878 l 0.0727,5.4453 -3.2096,-5.9422 h -0.0364 a 14.170283,13.252588 0 1 0 -1.31732,26.4711 z"
           inkscape:connector-curvature="0"
           style="fill:#57b894;stroke-width:0.70383948" />
        <path
           id="path1083"
           d="m 362.5244,1080.5549 a 14.163004,13.245781 0 1 0 -6.26637,-24.7899 l 2.50364,6.4187 -5.14556,-4.6286 a 14.104781,13.191328 0 0 0 -4.57786,9.1482 13.828216,12.932674 0 0 0 0.35662,3.6483 14.155727,13.238974 0 0 0 13.12953,10.2033 z"
           inkscape:connector-curvature="0"
           style="fill:#57b894;stroke-width:0.70383948" />
        <path
           id="path1085"
           d="m 366.55641,1041.5458 c 3.26783,0.3404 6.44832,1.2865 9.73071,1.4771 3.28237,0.1906 6.87771,-0.5445 8.95194,-2.9269 1.12082,-1.2865 1.68122,-2.9132 2.62736,-4.3086 a 10.058208,9.4068189 0 0 1 3.56622,-3.1447 14.163004,13.245781 0 1 1 -26.47739,8.7943 c 0.5313,0 1.0917,0.054 1.60116,0.1088 z"
           inkscape:connector-curvature="0"
           style="opacity:0.1;stroke-width:0.70383948" />
        <path
           id="path1087"
           d="m 362.5244,1080.5549 a 14.170283,13.252588 0 0 0 13.47159,-18.8953 10.436664,9.7607655 0 0 0 -2.85297,2.6681 c -1.00437,1.4227 -1.61573,3.0699 -2.80204,4.3768 -2.1834,2.4231 -5.97525,3.2195 -9.39591,3.0698 -3.42066,-0.1498 -6.7176,-1.0483 -10.12372,-1.3614 -0.46578,-0.04 -0.94614,-0.069 -1.45559,-0.082 a 14.155727,13.238974 0 0 0 13.15864,10.2236 z"
           inkscape:connector-curvature="0"
           style="opacity:0.1;stroke-width:0.70383948" />
        <path
           id="path1089"
           d="m 396.90571,1101.955 a 14.163004,13.245781 0 0 0 13.58804,-18.6502 11.404639,10.666053 0 0 0 -2.99854,2.7227 c -1.09897,1.4565 -1.78311,3.1242 -3.07131,4.4651 -2.39447,2.4912 -6.40465,3.4033 -10.0291,3.2876 -3.508,-0.068 -6.885,-0.878 -10.37117,-1.1231 a 14.17756,13.259394 0 0 0 12.88208,9.2979 z"
           inkscape:connector-curvature="0"
           style="opacity:0.1;stroke-width:0.70383948" />
        <path
           id="path1091"
           d="m 389.91154,1127.6706 a 14.163004,13.245781 0 0 0 25.8151,-10.809 14.243062,13.320654 0 0 0 -3.10771,2.5934 c -1.34643,1.5383 -2.23435,3.274 -3.79184,4.7034 -2.91121,2.6614 -7.56913,3.7573 -11.73215,3.8594 a 61.819404,57.81586 0 0 1 -7.1834,-0.3472 z"
           inkscape:connector-curvature="0"
           style="opacity:0.1;stroke-width:0.70383948" />
        <path
           id="path1093"
           stroke-miterlimit="10"
           d="m 823.46979,1148.0566 c -2.1834,-3.8389 0.29839,-8.5492 3.19504,-11.9729 2.89665,-3.4238 6.41921,-6.9904 6.33915,-11.3535 -0.10189,-6.2757 -7.22706,-9.9786 -12.91119,-13.3071 a 62.801935,58.73476 0 0 1 -11.60114,-8.7261 17.13971,16.029709 0 0 1 -3.56623,-4.4652 c -1.17176,-2.4504 -1.14265,-5.2411 -1.06987,-7.9298 q 0.37118,-13.4227 1.4556,-26.8318"
           inkscape:connector-curvature="0"
           style="fill:none;stroke:#3f3d56;stroke-width:2.81535792;stroke-miterlimit:10" />
        <path
           id="path1095"
           d="m 794.45964,1062.9869 a 10.480332,9.8016057 0 0 1 5.22562,-8.0183 l 2.34352,4.3358 -0.0728,-5.2479 a 10.618615,9.9309326 0 0 1 3.44978,-0.388 10.465776,9.7879923 0 1 1 -10.91701,9.3184 z"
           inkscape:connector-curvature="0"
           style="fill:#57b894;stroke-width:0.70383948" />
        <path
           id="path1097"
           d="m 813.12046,1129.243 a 10.458498,9.7811852 0 1 0 -0.50947,-7.8753 l 6.55021,4.9757 -7.18338,-1.5588 a 10.34205,9.6722789 0 0 0 1.14264,4.4584 z"
           inkscape:connector-curvature="0"
           style="fill:#57b894;stroke-width:0.70383948" />
        <path
           id="path1099"
           d="m 818.28785,1110.1843 a 10.465776,9.7879923 0 0 0 10.91701,-9.3183 10.327494,9.6586655 0 0 0 -0.90247,-4.4516 10.48761,9.808412 0 0 0 -6.71761,-5.4453 l 0.051,4.0363 -2.36535,-4.3902 v 0 a 10.473668,9.7953729 0 1 0 -0.98252,19.5691 z"
           inkscape:connector-curvature="0"
           style="fill:#57b894;stroke-width:0.70383948" />
        <path
           id="path1101"
           d="m 792.8876,1094.4064 a 10.465776,9.7879923 0 1 0 -4.62154,-18.3099 l 1.84862,4.7646 -3.8064,-3.4033 a 10.392996,9.7199253 0 0 0 -3.377,6.7522 10.189212,9.5293386 0 0 0 0.26201,2.7227 10.458498,9.7811852 0 0 0 9.69431,7.4737 z"
           inkscape:connector-curvature="0"
           style="fill:#57b894;stroke-width:0.70383948" />
        <path
           id="path1103"
           d="m 795.87158,1065.5938 c 2.40902,0.2519 4.75982,0.953 7.18339,1.0959 2.42358,0.143 5.09461,-0.4084 6.61571,-2.1645 0.8297,-0.953 1.24454,-2.1509 1.93596,-3.1856 a 7.4817928,6.9972574 0 0 1 2.63463,-2.3211 10.458498,9.7811852 0 0 1 -9.81803,14.2056 10.480332,9.8016057 0 0 1 -9.70159,-7.712 c 0.35662,0.013 0.7278,0.04 1.14993,0.082 z"
           inkscape:connector-curvature="0"
           style="opacity:0.1;stroke-width:0.70383948" />
        <path
           id="path1105"
           d="m 792.8876,1094.4064 a 10.473054,9.7947986 0 0 0 9.95631,-13.9536 7.8456931,7.3375908 0 0 0 -2.11062,1.9671 c -0.7278,1.055 -1.1936,2.2666 -2.06696,3.2332 -1.63027,1.7901 -4.41775,2.3823 -6.94322,2.2734 -2.52547,-0.1089 -4.95632,-0.7828 -7.47452,-0.9938 -0.34934,-0.034 -0.72779,-0.054 -1.0553,-0.061 a 10.458498,9.7811852 0 0 0 9.69431,7.535 z"
           inkscape:connector-curvature="0"
           style="opacity:0.1;stroke-width:0.70383948" />
        <path
           id="path1107"
           d="m 818.28785,1110.1843 a 10.465776,9.7879923 0 0 0 10.91701,-9.3183 10.327494,9.6586655 0 0 0 -0.90247,-4.4516 8.4279338,7.8821245 0 0 0 -2.1834,1.9876 c -0.81515,1.0686 -1.31732,2.3075 -2.27075,3.2944 -1.76855,1.8378 -4.7307,2.4912 -7.40901,2.43 -2.67831,-0.062 -5.0946,-0.6467 -7.65647,-0.8304 a 10.45122,9.7743789 0 0 0 9.50509,6.8883 z"
           inkscape:connector-curvature="0"
           style="opacity:0.1;stroke-width:0.70383948" />
        <path
           id="path1109"
           d="m 813.12046,1129.243 a 10.465776,9.7879923 0 0 0 19.07566,-7.9774 10.37844,9.7063119 0 0 0 -2.29985,1.9127 c -0.99709,1.1367 -1.65211,2.4163 -2.80204,3.4782 -2.13973,1.9603 -5.58951,2.7703 -8.66082,2.8452 a 44.323072,41.452624 0 0 1 -5.31295,-0.2587 z"
           inkscape:connector-curvature="0"
           style="opacity:0.1;stroke-width:0.70383948" />
        <path
           id="path1111"
           stroke-miterlimit="10"
           d="m 912.02131,1157.9467 c 3.00583,-5.2002 -0.40028,-11.5713 -4.31586,-16.2067 -3.91556,-4.6353 -8.73361,-9.4681 -8.59532,-15.3763 0.14556,-8.4946 9.78892,-13.5112 17.46722,-18.0104 a 85.152699,79.638045 0 0 0 15.69866,-11.7824 22.918448,21.434205 0 0 0 4.82533,-6.0375 c 1.59387,-3.3216 1.55021,-7.0993 1.4556,-10.7409 q -0.45852,-18.201 -1.91412,-36.3136"
           inkscape:connector-curvature="0"
           style="fill:none;stroke:#3f3d56;stroke-width:2.81535792;stroke-miterlimit:10" />
        <path
           id="path1113"
           d="m 951.29345,1042.7983 a 14.148448,13.232167 0 0 0 -7.07422,-10.8907 l -3.17321,5.8674 0.10189,-7.0994 a 13.995611,13.089228 0 0 0 -4.6652,-0.5241 14.163004,13.245781 0 1 0 14.81074,12.6468 z"
           inkscape:connector-curvature="0"
           style="fill:#57b894;stroke-width:0.70383948" />
        <path
           id="path1115"
           d="m 926.03148,1132.4353 a 14.163004,13.245781 0 1 1 0.68413,-10.666 l -8.84278,6.7317 9.73071,-2.11 a 13.951942,13.048388 0 0 1 -1.57206,6.0443 z"
           inkscape:connector-curvature="0"
           style="fill:#57b894;stroke-width:0.70383948" />
        <path
           id="path1117"
           d="m 919.03732,1106.7198 a 14.163004,13.245781 0 0 1 -4.49054,-25.9879 l -0.0727,5.4453 3.24599,-5.9423 v 0 a 14.170283,13.252588 0 1 1 1.31733,26.4712 z"
           inkscape:connector-curvature="0"
           style="fill:#57b894;stroke-width:0.70383948" />
        <path
           id="path1119"
           d="m 953.41863,1085.3195 a 14.163004,13.245781 0 1 1 6.26637,-24.7899 l -2.50364,6.4187 5.14555,-4.6285 a 14.163004,13.245781 0 0 1 -8.90828,22.9997 z"
           inkscape:connector-curvature="0"
           style="fill:#57b894;stroke-width:0.70383948" />
        <path
           id="path1121"
           d="m 949.38661,1046.3106 c -3.26783,0.3403 -6.44831,1.2864 -9.7307,1.477 -3.28238,0.1906 -6.87772,-0.5446 -8.95195,-2.9269 -1.12081,-1.2864 -1.68121,-2.9133 -2.62735,-4.3086 a 10.058208,9.4068189 0 0 0 -3.56623,-3.1447 14.163004,13.245781 0 1 0 26.47739,8.7942 c -0.51674,0 -1.06987,0.054 -1.60116,0.109 z"
           inkscape:connector-curvature="0"
           style="opacity:0.1;stroke-width:0.70383948" />
        <path
           id="path1123"
           d="m 953.41863,1085.3195 a 14.170283,13.252588 0 0 1 -13.4716,-18.8953 10.436664,9.7607655 0 0 1 2.85298,2.6683 c 1.00437,1.4225 1.61573,3.0697 2.80203,4.3766 2.18341,2.4232 5.97525,3.2195 9.39591,3.0698 3.42067,-0.1497 6.7176,-1.0481 10.12372,-1.3613 0.46579,-0.041 0.94614,-0.068 1.4556,-0.082 a 14.155727,13.238974 0 0 1 -13.15864,10.2236 z"
           inkscape:connector-curvature="0"
           style="opacity:0.1;stroke-width:0.70383948" />
        <path
           id="path1125"
           d="m 919.03732,1106.7198 a 14.163004,13.245781 0 0 1 -13.58804,-18.6504 11.404639,10.666053 0 0 1 2.99854,2.7227 c 1.09897,1.4567 1.7831,3.1243 3.07131,4.4652 2.39446,2.4913 6.40466,3.4034 10.0291,3.2876 3.508,-0.068 6.885,-0.8781 10.37117,-1.1231 a 14.17756,13.259394 0 0 1 -12.88208,9.298 z"
           inkscape:connector-curvature="0"
           style="opacity:0.1;stroke-width:0.70383948" />
        <path
           id="path1127"
           d="m 926.03148,1132.4353 a 14.163004,13.245781 0 0 1 -25.7787,-10.809 14.243062,13.320654 0 0 1 3.10771,2.5934 c 1.34643,1.5383 2.23435,3.274 3.79184,4.7034 2.9112,2.6614 7.56913,3.7573 11.73215,3.8594 a 61.819404,57.81586 0 0 0 7.147,-0.3472 z"
           inkscape:connector-curvature="0"
           style="opacity:0.1;stroke-width:0.70383948" />
        <path
           id="path1129"
           d="m 381.93484,1149.241 c 0,0 11.17175,-0.3267 14.55603,-2.5661 3.38426,-2.2394 17.19792,-4.9212 18.0349,-1.3613 0.83697,3.5599 16.79764,17.8947 4.17757,17.9899 -12.62007,0.095 -29.32309,-1.8378 -32.68553,-3.7504 -3.36245,-1.9127 -4.08297,-10.3121 -4.08297,-10.3121 z"
           inkscape:connector-curvature="0"
           style="fill:#656380;stroke-width:0.70383948" />
        <path
           id="path1131"
           d="m 418.91441,1162.0852 c -12.62007,0.095 -29.3231,-1.8378 -32.68554,-3.7505 -2.56185,-1.4566 -3.58078,-6.691 -3.92285,-9.1073 h -0.37118 c 0,0 0.72781,8.4266 4.06841,10.3461 3.34061,1.9195 20.06548,3.8458 32.68554,3.7505 3.63901,0 4.8981,-1.2388 4.8326,-3.0289 -0.50946,1.0958 -1.89228,1.7696 -4.60698,1.7901 z"
           inkscape:connector-curvature="0"
           style="opacity:0.2;stroke-width:0.70383948" />
        <path
           id="path1133"
           d="m 810.00547,1147.9478 c 0,0 6.55021,-0.1839 8.49344,-1.4975 1.94322,-1.3137 10.03637,-2.8725 10.524,-0.7692 0.48763,2.1033 9.80347,10.4415 2.43813,10.4959 -7.36535,0.054 -17.11787,-1.0686 -19.08294,-2.1917 -1.96506,-1.1232 -2.37263,-6.0375 -2.37263,-6.0375 z"
           inkscape:connector-curvature="0"
           style="fill:#656380;stroke-width:0.70383948" />
        <path
           id="path1135"
           d="m 831.56294,1155.4487 c -7.36535,0.054 -17.11788,-1.0755 -19.08295,-2.1918 -1.4556,-0.8508 -2.08879,-3.907 -2.28529,-5.316 h -0.18923 c 0,0 0.41485,4.9212 2.37263,6.0375 1.95778,1.1164 11.71759,2.253 19.08294,2.1918 2.12518,0 2.86026,-0.7215 2.81659,-1.7698 -0.32023,0.6399 -1.13537,1.0347 -2.71469,1.0483 z"
           inkscape:connector-curvature="0"
           style="opacity:0.2;stroke-width:0.70383948" />
        <path
           id="path1137"
           d="m 890.66764,1151.9637 c 0,0 11.17174,-0.3267 14.55602,-2.5661 3.38427,-2.2395 17.19793,-4.9213 18.0349,-1.3614 0.83697,3.5599 16.79764,17.8948 4.17757,17.99 -12.62006,0.095 -29.32308,-1.8378 -32.68553,-3.7504 -3.36244,-1.9127 -4.08296,-10.3121 -4.08296,-10.3121 z"
           inkscape:connector-curvature="0"
           style="fill:#656380;stroke-width:0.70383948" />
        <path
           id="path1139"
           d="m 927.6472,1164.8079 c -12.62006,0.095 -29.3231,-1.8378 -32.68554,-3.7505 -2.56185,-1.4567 -3.58078,-6.691 -3.92285,-9.1073 h -0.37117 c 0,0 0.7278,8.4266 4.0684,10.3461 3.34061,1.9194 20.06548,3.8458 32.68555,3.7505 3.639,0 4.89809,-1.2388 4.83259,-3.029 -0.50946,1.0958 -1.89228,1.7697 -4.60698,1.7902 z"
           inkscape:connector-curvature="0"
           style="opacity:0.2;stroke-width:0.70383948" />
        <path
           id="path987-7"
           d="M 951.17944,821.29049 875.71378,699.00866 a 2.4017428,2.2462013 0 0 0 -4.17029,0 l -75.48752,122.28183 a 2.4017428,2.2462013 0 0 0 2.08879,3.40339 h 22.51816 a 2.4162988,2.2598146 0 0 1 2.40903,2.253 v 26.1239 a 2.4017428,2.2462013 0 0 0 2.39446,2.2531 h 29.38131 a 2.4090209,2.253008 0 0 0 2.40903,-2.2531 v -12.6399 a 2.4017428,2.2462013 0 0 1 2.40173,-2.2462 h 27.93301 a 2.4090209,2.253008 0 0 1 2.40902,2.2462 v 12.61271 a 2.4090209,2.253008 0 0 0 2.40903,2.2531 h 29.37403 a 2.4308549,2.273428 0 0 0 2.4163,-2.2531 v -26.12391 a 2.4090209,2.253008 0 0 1 2.40903,-2.2531 h 22.51815 a 2.4090209,2.253008 0 0 0 2.05239,-3.37609 z m -105.21815,13.5317 a 2.4308549,2.273428 0 0 1 -1.71033,0.68069 h -10.59679 a 2.4090657,2.25305 0 0 1 0,-4.5061 h 10.59679 a 2.4017428,2.2462013 0 0 1 2.40901,2.253 2.4308549,2.273428 0 0 1 -0.69868,1.57241 z m 69.33758,0 a 2.3944648,2.2393946 0 0 1 -1.70306,0.68069 H 903.0063 a 2.4162988,2.2598146 0 0 1 -2.40902,-2.2531 2.4235768,2.2666214 0 0 1 2.40902,-2.253 h 10.58951 a 2.4017428,2.2462013 0 0 1 1.70306,3.8458 z"
           inkscape:connector-curvature="0"
           style="fill:#f2f2f2;stroke-width:0.70383948" />
        <path
           id="path989-8"
           d="M 484.61543,822.36588 409.13521,700.09092 a 2.4162988,2.2598146 0 0 0 -4.17757,0 l -65.20369,105.61226 a 199.57755,186.65252 0 0 0 27.31438,26.3486 h 10.60406 a 2.4090209,2.253008 0 0 1 1.70305,3.8458 2.3653529,2.212168 0 0 1 -1.70305,0.68071 h -4.48327 a 116.6592,109.10413 0 0 0 17.46723,10.1624 v -5.20721 a 2.4162988,2.2598146 0 0 1 2.41629,-2.25289 h 27.92572 a 2.4090209,2.253008 0 0 1 2.40903,2.25289 v 12.60601 a 2.2416266,2.0964546 0 0 0 0.22561,0.9462 2.3871869,2.2325879 0 0 0 2.1834,1.3068 h 29.38132 a 2.3799088,2.2257813 0 0 0 1.91413,-0.9052 2.3071287,2.1577145 0 0 0 0.48034,-1.36141 v -26.124 a 2.4090209,2.253008 0 0 1 2.40901,-2.253 h 22.51816 a 2.4017428,2.2462013 0 0 0 2.09607,-3.383 z m -49.89803,10.34621 a 2.4235768,2.2666214 0 0 1 1.71033,-0.6806 h 10.5968 a 2.4090209,2.253008 0 0 1 2.40901,2.25289 2.4235768,2.2666214 0 0 1 -2.40901,2.253 h -10.5968 a 2.4017428,2.2462013 0 0 1 -2.40902,-2.253 2.4308549,2.273428 0 0 1 0.69869,-1.57229 z m -47.40894,-45.2508 a 2.4017428,2.2462013 0 0 1 -2.40902,-2.25291 v -17.11199 a 2.4017428,2.2462013 0 0 1 2.40902,-2.2531 h 39.4832 a 2.4090209,2.253008 0 0 1 2.40903,2.2531 v 17.11199 a 2.4090209,2.253008 0 0 1 -2.40903,2.25291 z"
           inkscape:connector-curvature="0"
           style="fill:#f2f2f2;stroke-width:0.70383948" />
        <path
           id="path991-1"
           d="m 749.35661,631.59895 h -82.73632 v -16.73433 a 4.2734637,3.9967059 0 0 0 -4.2799,-4.00273 H 638.04674 V 593.0666 a 2.6942803,2.5197935 0 0 0 -2.69429,-2.51979 h -31.2936 a 2.6942803,2.5197935 0 0 0 -2.69428,2.51979 v 17.82544 h -28.57356 a 4.2799093,4.0027341 0 0 0 -4.27989,4.00273 v 16.69212 h -78.86896 a 0.8701623,0.8138089 0 0 0 -0.86369,0.81381 v 222.16378 a 0.8701623,0.8138089 0 0 0 0.86369,0.81381 h 52.4289 a 0.8701623,0.8138089 0 0 0 0.87016,-0.81381 v -29.8879 a 0.88305356,0.8258653 0 0 1 0.8766,-0.8138 h 22.14081 a 0.87660797,0.81983714 0 0 1 0.87017,0.8138 v 29.8879 a 0.87660797,0.81983714 0 0 0 0.86372,0.81381 h 103.60731 a 0.87660797,0.81983714 0 0 0 0.87016,-0.81381 v -29.8879 a 0.87660797,0.81983714 0 0 1 0.86372,-0.8138 h 22.14725 a 0.87660797,0.81983714 0 0 1 0.87659,0.8138 v 29.8879 a 0.87660797,0.81983714 0 0 0 0.86372,0.81381 h 52.43534 a 0.8701623,0.8138089 0 0 0 0.86371,-0.81381 V 632.41276 a 0.8701623,0.8138089 0 0 0 -0.86371,-0.81381 z M 533.54993,813.48228 a 0.86371662,0.80778067 0 0 1 -0.85728,0.8078 h -32.38292 a 0.8701623,0.8138089 0 0 1 -0.87663,-0.8078 v -10.3444 a 0.87660797,0.81983714 0 0 1 0.87663,-0.8139 h 32.38292 a 0.8701623,0.8138089 0 0 1 0.85728,0.8139 z m 0,-26.72919 a 0.86371662,0.80778067 0 0 1 -0.85728,0.81379 h -32.38292 a 0.8701623,0.8138089 0 0 1 -0.87663,-0.81379 v -10.3384 a 0.8701623,0.8138089 0 0 1 0.87663,-0.81381 h 32.38292 a 0.86371662,0.80778067 0 0 1 0.85728,0.81381 z m 0,-26.72301 a 0.8701623,0.8138089 0 0 1 -0.85728,0.8137 h -32.38292 a 0.87660797,0.81983714 0 0 1 -0.87663,-0.8137 v -10.34449 a 0.87660797,0.81983714 0 0 1 0.87663,-0.81371 h 32.38292 a 0.8701623,0.8138089 0 0 1 0.85728,0.81371 z m 0,-26.72909 a 0.86371662,0.80778067 0 0 1 -0.85728,0.81369 h -32.38292 a 0.8701623,0.8138089 0 0 1 -0.87663,-0.81369 v -10.3384 a 0.8701623,0.8138089 0 0 1 0.87663,-0.81381 h 32.38292 a 0.86371662,0.80778067 0 0 1 0.85728,0.81381 z m 0,-26.72311 a 0.8701623,0.8138089 0 0 1 -0.85728,0.8138 h -32.38292 a 0.87660797,0.81983714 0 0 1 -0.87663,-0.8138 v -10.34442 a 0.8701623,0.8138089 0 0 1 0.87663,-0.80778 h 32.38292 a 0.86371662,0.80778067 0 0 1 0.85728,0.80778 z m 0,-26.72307 a 0.86371662,0.80778067 0 0 1 -0.85728,0.80777 h -32.38292 a 0.8701623,0.8138089 0 0 1 -0.87663,-0.80777 v -10.34442 a 0.87660797,0.81983714 0 0 1 0.87663,-0.81381 h 32.38292 a 0.8701623,0.8138089 0 0 1 0.85728,0.81381 z m 0,-26.72911 a 0.86371662,0.80778067 0 0 1 -0.85728,0.81381 h -32.38292 a 0.8701623,0.8138089 0 0 1 -0.87663,-0.81381 v -10.33838 a 0.8701623,0.8138089 0 0 1 0.87663,-0.81382 h 32.38292 a 0.86371662,0.80778067 0 0 1 0.85728,0.81382 z m 76.78053,160.35048 a 0.8701623,0.8138089 0 0 1 -0.87661,0.80781 h -32.38292 a 0.86371662,0.80778067 0 0 1 -0.86372,-0.80781 v -10.3383 a 0.8701623,0.8138089 0 0 1 0.86372,-0.8139 h 32.38292 a 0.87660797,0.81983714 0 0 1 0.87661,0.8139 z m 0,-26.72909 a 0.8701623,0.8138089 0 0 1 -0.87661,0.81379 h -32.38292 a 0.86371662,0.80778067 0 0 1 -0.86372,-0.81379 v -10.3324 a 0.86371662,0.80778067 0 0 1 0.86372,-0.81381 h 32.38292 a 0.8701623,0.8138089 0 0 1 0.87661,0.81381 z m 0,-26.7231 a 0.87660797,0.81983714 0 0 1 -0.87661,0.81379 h -32.38292 a 0.8701623,0.8138089 0 0 1 -0.86372,-0.7896 v -10.36259 a 0.8701623,0.8138089 0 0 1 0.86372,-0.81371 h 32.38292 a 0.87660797,0.81983714 0 0 1 0.87661,0.81371 z m 0,-26.729 a 0.8701623,0.8138089 0 0 1 -0.87661,0.81369 h -32.38292 a 0.86371662,0.80778067 0 0 1 -0.86372,-0.81369 v -10.3324 a 0.86371662,0.80778067 0 0 1 0.86372,-0.81381 h 32.38292 a 0.8701623,0.8138089 0 0 1 0.87661,0.81381 z m 0,-26.72311 a 0.87660797,0.81983714 0 0 1 -0.87661,0.8138 h -32.38292 a 0.8701623,0.8138089 0 0 1 -0.86372,-0.8138 v -10.33842 a 0.86371662,0.80778067 0 0 1 0.86372,-0.80778 h 32.38292 a 0.8701623,0.8138089 0 0 1 0.87661,0.80778 z m 0,-26.72311 a 0.8701623,0.8138089 0 0 1 -0.87661,0.80779 h -32.38292 a 0.86371662,0.80778067 0 0 1 -0.86372,-0.78367 v -10.3625 a 0.8701623,0.8138089 0 0 1 0.86372,-0.81381 h 32.38292 a 0.87660797,0.81983714 0 0 1 0.87661,0.81381 z m 0,-26.7291 a 0.8701623,0.8138089 0 0 1 -0.87661,0.81382 h -32.38292 a 0.86371662,0.80778067 0 0 1 -0.86372,-0.81382 v -10.33235 a 0.86371662,0.80778067 0 0 1 0.86372,-0.81382 h 32.38292 a 0.8701623,0.8138089 0 0 1 0.87661,0.81382 z m 52.45467,160.35042 a 0.86371662,0.80778067 0 0 1 -0.87016,0.8079 H 629.5127 a 0.87660797,0.81983714 0 0 1 -0.87661,-0.8079 v -10.33221 a 0.88305356,0.8258653 0 0 1 0.87661,-0.8139 h 32.37649 a 0.8701623,0.8138089 0 0 1 0.87016,0.8139 z m 0,-26.72911 a 0.86371662,0.80778067 0 0 1 -0.87016,0.8139 H 629.5127 a 0.87660797,0.81983714 0 0 1 -0.87661,-0.8139 v -10.32629 a 0.87660797,0.81983714 0 0 1 0.87661,-0.81381 h 32.37649 a 0.86371662,0.80778067 0 0 1 0.87016,0.81381 z m 0,-26.72299 a 0.8701623,0.8138089 0 0 1 -0.87016,0.81379 H 629.5127 a 0.88305356,0.8258653 0 0 1 -0.87661,-0.81379 v -10.3324 a 0.88305356,0.8258653 0 0 1 0.87661,-0.81371 h 32.37649 a 0.8701623,0.8138089 0 0 1 0.87016,0.81371 z m 0,-26.72911 a 0.86371662,0.80778067 0 0 1 -0.87016,0.8138 H 629.5127 a 0.87660797,0.81983714 0 0 1 -0.87661,-0.8138 v -10.32629 a 0.87660797,0.81983714 0 0 1 0.87661,-0.81381 h 32.37649 a 0.86371662,0.80778067 0 0 1 0.87016,0.81381 z m 0,-26.7231 a 0.8701623,0.8138089 0 0 1 -0.87016,0.8138 H 629.5127 a 0.88305356,0.8258653 0 0 1 -0.87661,-0.8138 v -10.33232 a 0.87660797,0.81983714 0 0 1 0.87661,-0.80778 h 32.37649 a 0.86371662,0.80778067 0 0 1 0.87016,0.80778 z m 0,-26.72304 a 0.86371662,0.80778067 0 0 1 -0.87016,0.80778 H 629.5127 a 0.87660797,0.81983714 0 0 1 -0.87661,-0.80778 v -10.33235 a 0.88305356,0.8258653 0 0 1 0.87661,-0.81381 h 32.37649 a 0.8701623,0.8138089 0 0 1 0.87016,0.81381 z m 0,-26.72909 a 0.86371662,0.80778067 0 0 1 -0.87016,0.8138 H 629.5127 a 0.87660797,0.81983714 0 0 1 -0.87661,-0.8138 v -10.32633 a 0.87660797,0.81983714 0 0 1 0.87661,-0.81382 h 32.37649 a 0.86371662,0.80778067 0 0 1 0.87016,0.81382 z m 76.78055,160.35053 a 0.87660797,0.81983714 0 0 1 -0.87662,0.8077 h -32.38292 a 0.85727095,0.80175242 0 0 1 -0.86373,-0.8077 v -10.3263 a 0.86371662,0.80778067 0 0 1 0.86373,-0.8139 h 32.38292 a 0.88305356,0.8258653 0 0 1 0.87662,0.8139 z m 0,-26.72909 a 0.87660797,0.81983714 0 0 1 -0.87662,0.81379 h -32.38292 a 0.86371662,0.80778067 0 0 1 -0.86373,-0.81379 v -10.3204 a 0.86371662,0.80778067 0 0 1 0.86373,-0.81381 h 32.38292 a 0.87660797,0.81983714 0 0 1 0.87662,0.81381 z m 0,-26.72321 a 0.88305356,0.8258653 0 0 1 -0.87662,0.8139 h -32.38292 a 0.86371662,0.80778067 0 0 1 -0.86373,-0.7776 v -10.36259 a 0.86371662,0.80778067 0 0 1 0.86373,-0.81371 h 32.38292 a 0.88305356,0.8258653 0 0 1 0.87662,0.81371 z m 0,-26.7291 a 0.87660797,0.81983714 0 0 1 -0.87662,0.8139 h -32.38292 a 0.86371662,0.80778067 0 0 1 -0.86373,-0.8139 v -10.32019 a 0.86371662,0.80778067 0 0 1 0.86373,-0.81381 h 32.38292 a 0.87660797,0.81983714 0 0 1 0.87662,0.81381 z m 0,-26.723 a 0.88305356,0.8258653 0 0 1 -0.87662,0.8138 h -32.38292 a 0.86371662,0.80778067 0 0 1 -0.86373,-0.8138 v -10.32632 a 0.85727095,0.80175242 0 0 1 0.86373,-0.80778 h 32.38292 a 0.87660797,0.81983714 0 0 1 0.87662,0.80778 z m 0,-26.72307 a 0.87660797,0.81983714 0 0 1 -0.87662,0.80778 h -32.38292 a 0.85727095,0.80175242 0 0 1 -0.86373,-0.7716 v -10.3625 a 0.86371662,0.80778067 0 0 1 0.86373,-0.81381 h 32.38292 a 0.88305356,0.8258653 0 0 1 0.87662,0.81381 z m 0,-26.7291 a 0.87660797,0.81983714 0 0 1 -0.87662,0.81382 h -32.38292 a 0.86371662,0.80778067 0 0 1 -0.86373,-0.81382 v -10.32029 a 0.86371662,0.80778067 0 0 1 0.86373,-0.81382 h 32.38292 a 0.87660797,0.81983714 0 0 1 0.87662,0.81382 z"
           inkscape:connector-curvature="0"
           style="fill:#f2f2f2;stroke-width:0.62334371" />
        <path
           id="path993-0"
           d="m 332.70045,674.61637 a 34.938911,32.6762 0 0 0 2.70854,-3.72287 l -19.0913,-2.93266 20.65447,0.14489 a 34.816862,32.562056 0 0 0 0.67127,-25.78361 l -27.69576,13.43399 25.54113,-17.56076 a 34.798084,32.544494 0 1 0 -57.47107,36.43859 34.685425,32.439129 0 0 0 -3.96659,5.93554 l 24.75719,12.02034 -26.41424,-8.29307 a 34.826251,32.570835 0 0 0 5.63304,30.56013 34.563376,32.324984 0 0 0 -6.2386,11.612 346.65238,324.20251 0 0 0 16.38275,36.803 34.450714,32.219619 0 0 0 10.79666,3.6922 12.068781,11.287183 0 0 0 -0.68536,3.7799 11.477312,10.734019 0 0 0 1.46459,5.4351 11.266073,10.536461 0 0 0 -1.48336,4.636 v 0 a 214.01785,200.15763 0 0 0 14.12953,19.7559 10.679299,9.9876868 0 0 0 -1.14538,-2.634 11.927955,11.155477 0 0 0 0,-10.8702 11.927955,11.155477 0 0 0 0,-10.8702 11.477312,10.734019 0 0 0 1.51153,-5.435 11.918567,11.146697 0 0 0 -0.70413,-3.8326 34.798084,32.544494 0 0 0 20.65447,-52.0546 34.788697,32.535714 0 0 0 0,-40.24044 z"
           inkscape:connector-curvature="0"
           style="fill:#f2f2f2;stroke-width:0.45396507" />
        <path
           id="path995-5"
           d="m 1023.7193,724.04368 -2.1834,-0.3336 h 2.1398 a 92.372484,86.390263 0 0 0 -4.4251,-22.67298 l -7.6128,3.69602 7.1616,-4.94164 a 92.8965,86.880342 0 0 0 -35.48026,-43.51505 54.148383,50.641629 0 0 0 -21.1863,77.76615 53.951877,50.457849 0 0 0 -6.14991,9.2231 l 38.42789,18.7183 -40.95335,-12.88499 a 54.206607,50.696083 0 0 0 8.73361,47.48339 54.155661,50.648436 0 0 0 23.94467,78.80081 c 2.91107,-6.4595 5.74227,-13.21181 8.39157,-20.1545 2.3435,-6.12601 4.5778,-12.3678 6.68118,-18.6707 a 613.53611,573.80233 0 0 0 15.4002,-56.19591 c 4.658,-21.5908 7.278,-40.45889 7.278,-52.4114 -0.073,-1.3137 -0.1091,-2.607 -0.1674,-3.907 z"
           inkscape:connector-curvature="0"
           style="fill:#f2f2f2;stroke-width:0.70383948" />
        <ellipse
           id="ellipse997-0"
           ry="17.016674"
           rx="387.19006"
           cy="866.65692"
           cx="617.55554"
           style="fill:#3f3d56;stroke-width:0.70383948" />
        <path
           id="path999-0"
           d="m 823.0865,690.03066 c -7.23434,-11.72108 -37.11785,-8.2701 -66.67383,7.70516 a 142.04489,132.84579 0 0 0 -14.83258,9.19576 128.56602,120.23983 0 0 0 -256.53525,3.0222 137.91098,128.9796 0 0 0 -18.92282,-12.252 c -29.49778,-15.94122 -59.38854,-19.3922 -66.61562,-7.67112 -7.22707,11.72109 10.91702,34.16952 40.473,50.14472 19.14846,10.3394 38.39878,15.424 51.56469,14.5595 a 128.71158,120.37597 0 0 0 39.17025,53.7727 c -25.92427,3.40341 -44.98538,14.7432 -44.98538,28.2341 0,16.159 27.3726,29.26871 61.13529,29.26871 33.76267,0 61.13527,-13.10971 61.13527,-29.26871 0,-0.04 0,-0.082 0,-0.12935 q 2.72196,0.10883 5.46577,0.11584 2.74381,0.0104 5.46578,-0.11584 c 0,0.047 0,0.089 0,0.12935 0,16.159 27.3726,29.26871 61.13528,29.26871 33.76268,0 61.13527,-13.10971 61.13527,-29.26871 0,-13.4909 -19.0611,-24.8376 -44.98537,-28.2341 a 128.68975,120.35555 0 0 0 39.14113,-53.67059 c 12.87481,-0.31311 30.13095,-5.35691 47.30705,-14.63431 29.56328,-16.0025 47.70007,-38.45773 40.42207,-50.17202 z"
           inkscape:connector-curvature="0"
           style="fill:#d50052;stroke-width:0.70383948;fill-opacity:1" />
        <path
           id="path1001-5"
           d="m 399.5064,696.15667 c 7.23435,-11.72109 37.11784,-8.27011 66.67383,7.70515 a 137.73631,128.81624 0 0 1 18.639,12.00696 c 0.28383,-5.7584 0.28383,0.3676 0.26927,-5.9218 a 137.97648,129.04086 0 0 0 -18.92282,-12.21116 c -29.54144,-15.97526 -59.4322,-19.42624 -66.65928,-7.70516 -1.59389,2.57973 -1.9505,5.68357 -1.22999,9.12095 a 11.644814,10.890673 0 0 1 1.22999,-2.99494 z"
           inkscape:connector-curvature="0"
           style="opacity:0.1;stroke-width:0.70383948" />
        <path
           id="path1003-0"
           d="m 823.24661,696.15667 c -7.23433,-11.72109 -37.11784,-8.27011 -66.68111,7.70515 -6.89228,3.71646 -9.51963,5.07776 -14.9927,9.28436 -0.29112,-5.7585 -0.29112,0.3675 -0.26927,-5.9219 5.53127,-4.28137 8.26053,-5.70396 15.2838,-9.48846 29.59239,-15.97526 59.44678,-19.42624 66.68112,-7.70516 1.59388,2.57973 1.95051,5.68357 1.22998,9.12095 a 11.644814,10.890673 0 0 0 -1.25182,-2.99494 z"
           inkscape:connector-curvature="0"
           style="opacity:0.1;stroke-width:0.70383948" />
        <ellipse
           id="ellipse1005-0"
           ry="16.329203"
           rx="13.333311"
           cy="693.1618"
           cx="579.00391"
           style="fill:#444053;stroke-width:0.70383948" />
        <ellipse
           id="ellipse1007-2"
           ry="16.329203"
           rx="13.333311"
           cy="693.1618"
           cx="647.89032"
           style="fill:#444053;stroke-width:0.70383948" />
        <path
           id="path1009-4"
           d="m 694.44829,774.20952 c 0,23.4422 -34.44918,1.70982 -76.69803,1.70982 -42.24884,0 -89.96108,20.84078 -89.96108,-2.58091 0,-23.42181 38.51187,-45.64156 80.72432,-45.64156 42.21245,0 85.93479,23.06375 85.93479,46.51265 z"
           inkscape:connector-curvature="0"
           style="fill:#3f3d56;stroke-width:0.70383948"
           sodipodi:nodetypes="sssss" />
        <path
           id="path1013-0"
           d="m 612.97767,612.16916 a 128.55874,120.23303 0 0 1 128.32586,113.10643 q 0.36388,-4.49231 0.36388,-9.07331 a 128.56602,120.23983 0 0 0 -257.12474,0 c 0,2.4028 0.0874,4.7647 0.23288,7.15391 A 128.5733,120.24664 0 0 1 612.97767,612.16916 Z"
           inkscape:connector-curvature="0"
           style="opacity:0.1;stroke-width:0.70383948" />
        <path
           id="path1067-2"
           d="m 877.77991,626.82199 -5.63317,3.34208 3.42068,-5.8129 a 5.5603985,5.2002963 0 0 0 -3.4134,-1.13671 h -0.0874 a 7.0014441,6.5480171 0 0 1 -1.17176,-0.0817 l -1.90684,1.1299 0.81515,-1.36133 a 6.8413279,6.3982703 0 0 1 -3.34061,-2.37553 l -3.4134,2.042 2.1834,-3.66879 a 10.007262,9.3591724 0 0 0 -7.68558,-3.64838 c -3.55167,0 -6.7176,1.98074 -8.73361,5.05736 a 6.5502077,6.1260036 0 0 1 -5.82239,2.92006 h -0.18924 c -3.92284,0 -7.10333,4.15887 -7.10333,9.2911 0,5.13223 3.18049,9.2775 7.10333,9.2775 a 5.3275022,4.9824828 0 0 0 2.47452,-0.57857 10.261992,9.5974056 0 0 1 8.60261,-0.15655 8.9592284,8.3790113 0 0 0 7.27801,0 10.247436,9.5837922 0 0 1 8.52255,0.15655 5.3056681,4.9620628 0 0 0 2.44541,0.56495 c 3.92284,0 7.10334,-4.15887 7.10334,-9.2911 a 12.678291,11.85722 0 0 0 -1.44832,-5.66996 z"
           inkscape:connector-curvature="0"
           style="fill:#f2f2f2;stroke-width:0.70383948" />
        <path
           id="path1069-3"
           d="m 903.58046,636.43983 a 10.509444,9.8288326 0 0 0 -6.09169,0.6194 8.9373944,8.3585914 0 0 1 -3.63901,0.72151 9.0320085,8.4470782 0 0 1 -3.639,-0.73513 10.189212,9.5293387 0 0 0 -8.59533,0.15656 5.3493363,5.0029029 0 0 1 -2.47451,0.57857 c -3.48618,0 -6.3901,-3.28762 -6.99418,-7.61667 a 6.7321578,6.2961702 0 0 0 1.74672,-1.75611 c 2.03784,-3.08343 5.20378,-5.05736 8.73361,-5.05736 3.52984,0 6.68122,1.95351 8.73362,5.0029 a 6.7248799,6.2893636 0 0 0 5.8224,2.97451 h 0.0946 c 2.71469,0 5.11644,2.07603 6.30276,5.11182 z"
           inkscape:connector-curvature="0"
           style="opacity:0.02999998;stroke-width:0.70383948" />
        <path
           id="path1075-8"
           stroke-miterlimit="10"
           d="m 406.05662,859.48268 c -3.00582,-5.2003 0.40028,-11.5712 4.31585,-16.2066 3.91556,-4.6353 8.69722,-9.46809 8.59534,-15.3763 -0.14556,-8.4948 -9.78893,-13.5112 -17.46724,-18.0104 a 85.152699,79.638046 0 0 1 -15.69138,-11.78239 22.918448,21.434205 0 0 1 -4.82532,-6.03751 c -1.59389,-3.32169 -1.55021,-7.0994 -1.4556,-10.7409 q 0.50218,-18.1739 1.9214,-36.32039"
           inkscape:connector-curvature="0"
           style="fill:none;stroke:#3f3d56;stroke-width:2.81535792;stroke-miterlimit:10" />
        <path
           id="path1077-4"
           d="m 366.81358,744.33429 a 14.126614,13.211748 0 0 1 7.07423,-10.89061 l 3.16594,5.86051 -0.10922,-7.0721 a 13.973776,13.068807 0 0 1 4.6652,-0.52421 14.163004,13.245781 0 1 1 -14.79619,12.62641 z"
           inkscape:connector-curvature="0"
           style="fill:#57b894;stroke-width:0.70383948" />
        <path
           id="path1079-8"
           d="m 392.07555,833.97129 a 14.163004,13.245781 0 1 0 -0.68412,-10.666 l 8.84277,6.7318 -9.7307,-2.1101 a 13.951942,13.048388 0 0 0 1.57205,6.0443 z"
           inkscape:connector-curvature="0"
           style="fill:#57b894;stroke-width:0.70383948" />
        <path
           id="path1081-7"
           d="m 399.06972,808.25568 a 14.163004,13.245781 0 0 0 4.49053,-25.9878 l 0.0727,5.4453 -3.2096,-5.94219 h -0.0364 a 14.170283,13.252588 0 1 0 -1.31732,26.4711 z"
           inkscape:connector-curvature="0"
           style="fill:#57b894;stroke-width:0.70383948" />
        <path
           id="path1083-1"
           d="m 364.68842,786.85558 a 14.163004,13.245781 0 1 0 -6.26638,-24.7899 l 2.50365,6.4187 -5.14557,-4.6286 a 14.10478,13.191328 0 0 0 -4.57786,9.1482 13.828215,12.932674 0 0 0 0.35662,3.64831 14.155727,13.238974 0 0 0 13.12954,10.20329 z"
           inkscape:connector-curvature="0"
           style="fill:#57b894;stroke-width:0.70383948" />
        <path
           id="path1085-2"
           d="m 368.72042,747.84649 c 3.26784,0.34039 6.44832,1.2865 9.73071,1.47709 3.28237,0.1906 6.87771,-0.54449 8.95194,-2.92689 1.12083,-1.2865 1.68122,-2.91321 2.62736,-4.30861 a 10.058208,9.4068188 0 0 1 3.56622,-3.1447 14.163004,13.245781 0 1 1 -26.47739,8.7943 c 0.5313,0 1.09171,0.054 1.60116,0.10883 z"
           inkscape:connector-curvature="0"
           style="opacity:0.1;stroke-width:0.70383948" />
        <path
           id="path1087-6"
           d="m 364.68842,786.85558 a 14.170283,13.252588 0 0 0 13.47158,-18.8953 10.436664,9.7607655 0 0 0 -2.85297,2.66811 c -1.00437,1.42269 -1.61573,3.06989 -2.80204,4.3768 -2.1834,2.42309 -5.97525,3.21949 -9.3959,3.06979 -3.42067,-0.14979 -6.71761,-1.0483 -10.12373,-1.3614 -0.46578,-0.04 -0.94614,-0.069 -1.45559,-0.0819 a 14.155727,13.238974 0 0 0 13.15865,10.22359 z"
           inkscape:connector-curvature="0"
           style="opacity:0.1;stroke-width:0.70383948" />
        <path
           id="path1089-6"
           d="m 399.06972,808.25568 a 14.163004,13.245781 0 0 0 13.58804,-18.6502 11.404639,10.666053 0 0 0 -2.99854,2.7227 c -1.09897,1.4565 -1.7831,3.1242 -3.0713,4.4651 -2.39448,2.4912 -6.40466,3.4033 -10.0291,3.2876 -3.50801,-0.068 -6.88501,-0.87799 -10.37118,-1.1231 a 14.17756,13.259395 0 0 0 12.88208,9.2979 z"
           inkscape:connector-curvature="0"
           style="opacity:0.1;stroke-width:0.70383948" />
        <path
           id="path1091-1"
           d="m 392.07555,833.97129 a 14.163004,13.245781 0 0 0 25.81511,-10.809 14.243062,13.320655 0 0 0 -3.10772,2.59339 c -1.34643,1.5383 -2.23435,3.274 -3.79183,4.70341 -2.91121,2.66139 -7.56913,3.75729 -11.73216,3.85939 a 61.819405,57.815859 0 0 1 -7.1834,-0.34719 z"
           inkscape:connector-curvature="0"
           style="opacity:0.1;stroke-width:0.70383948" />
        <path
           id="path1093-9"
           stroke-miterlimit="10"
           d="m 825.6338,854.35728 c -2.1834,-3.8389 0.29839,-8.5492 3.19504,-11.9729 2.89665,-3.4238 6.41922,-6.9904 6.33915,-11.3535 -0.10182,-6.2757 -7.22706,-9.9786 -12.91119,-13.3071 a 62.801935,58.73476 0 0 1 -11.60113,-8.72609 17.13971,16.029709 0 0 1 -3.56624,-4.46521 c -1.17176,-2.4504 -1.14264,-5.2411 -1.06986,-7.9298 q 0.37117,-13.4227 1.45559,-26.8318"
           inkscape:connector-curvature="0"
           style="fill:none;stroke:#3f3d56;stroke-width:2.81535792;stroke-miterlimit:10" />
        <path
           id="path1095-2"
           d="m 796.62365,769.28759 a 10.480332,9.8016057 0 0 1 5.22562,-8.01831 l 2.34352,4.3358 -0.0729,-5.2479 a 10.618615,9.9309327 0 0 1 3.44977,-0.388 10.465776,9.7879924 0 1 1 -10.917,9.31841 z"
           inkscape:connector-curvature="0"
           style="fill:#57b894;stroke-width:0.70383948" />
        <path
           id="path1097-4"
           d="m 815.28447,835.54368 a 10.458498,9.7811852 0 1 0 -0.50947,-7.87529 l 6.55021,4.9757 -7.18337,-1.5588 a 10.34205,9.6722789 0 0 0 1.14263,4.45839 z"
           inkscape:connector-curvature="0"
           style="fill:#57b894;stroke-width:0.70383948" />
        <path
           id="path1099-7"
           d="m 820.45187,816.48498 a 10.465776,9.7879924 0 0 0 10.917,-9.3183 10.327494,9.6586655 0 0 0 -0.90247,-4.45159 10.48761,9.8084119 0 0 0 -6.71761,-5.4453 l 0.051,4.03629 -2.36535,-4.3902 v 0 a 10.473668,9.7953729 0 1 0 -0.98252,19.5691 z"
           inkscape:connector-curvature="0"
           style="fill:#57b894;stroke-width:0.70383948" />
        <path
           id="path1101-9"
           d="m 795.05162,800.70708 a 10.465776,9.7879924 0 1 0 -4.62154,-18.3099 l 1.84861,4.7646 -3.8064,-3.4033 a 10.392996,9.7199253 0 0 0 -3.37699,6.7522 10.189212,9.5293387 0 0 0 0.262,2.7227 10.458498,9.7811852 0 0 0 9.69432,7.4737 z"
           inkscape:connector-curvature="0"
           style="fill:#57b894;stroke-width:0.70383948" />
        <path
           id="path1103-9"
           d="m 798.03559,771.89448 c 2.40903,0.2519 4.75982,0.95301 7.18339,1.09591 2.42358,0.143 5.09462,-0.40841 6.61572,-2.16451 0.82969,-0.953 1.24454,-2.15089 1.93595,-3.1856 a 7.4817928,6.9972573 0 0 1 2.63463,-2.3211 10.458498,9.7811852 0 0 1 -9.81802,14.2056 10.480332,9.8016057 0 0 1 -9.7016,-7.712 c 0.35662,0.013 0.7278,0.04 1.14993,0.082 z"
           inkscape:connector-curvature="0"
           style="opacity:0.1;stroke-width:0.70383948" />
        <path
           id="path1105-6"
           d="m 795.05162,800.70708 a 10.473054,9.7947986 0 0 0 9.9563,-13.9536 7.8456931,7.3375908 0 0 0 -2.11062,1.9671 c -0.72779,1.055 -1.1936,2.26661 -2.06695,3.23321 -1.63027,1.7901 -4.41775,2.38229 -6.94323,2.2734 -2.52547,-0.10896 -4.95631,-0.78281 -7.47452,-0.99381 -0.34934,-0.034 -0.72778,-0.054 -1.0553,-0.061 a 10.458498,9.7811852 0 0 0 9.69432,7.53501 z"
           inkscape:connector-curvature="0"
           style="opacity:0.1;stroke-width:0.70383948" />
        <path
           id="path1107-8"
           d="m 820.45187,816.48498 a 10.465776,9.7879924 0 0 0 10.917,-9.3183 10.327494,9.6586655 0 0 0 -0.90247,-4.45159 8.4279338,7.8821246 0 0 0 -2.1834,1.98759 c -0.81515,1.0686 -1.31732,2.3075 -2.27074,3.2944 -1.76856,1.83781 -4.73071,2.4912 -7.40901,2.43 -2.67831,-0.0619 -5.09461,-0.6467 -7.65648,-0.8304 a 10.45122,9.7743789 0 0 0 9.5051,6.8883 z"
           inkscape:connector-curvature="0"
           style="opacity:0.1;stroke-width:0.70383948" />
        <path
           id="path1109-9"
           d="m 815.28447,835.54368 a 10.465776,9.7879924 0 0 0 19.07566,-7.9774 10.37844,9.7063118 0 0 0 -2.29984,1.9127 c -0.9971,1.13671 -1.65211,2.4163 -2.80204,3.4782 -2.13974,1.96031 -5.58952,2.7703 -8.66082,2.84521 a 44.323072,41.452624 0 0 1 -5.31296,-0.25871 z"
           inkscape:connector-curvature="0"
           style="opacity:0.1;stroke-width:0.70383948" />
        <path
           id="path1111-6"
           stroke-miterlimit="10"
           d="m 914.18532,864.24738 c 3.00583,-5.20019 -0.40028,-11.5713 -4.31586,-16.2067 -3.91556,-4.6353 -8.73361,-9.4681 -8.59532,-15.3763 0.14556,-8.49459 9.78893,-13.5112 17.46722,-18.01039 a 85.152699,79.638046 0 0 0 15.69866,-11.78241 22.918448,21.434205 0 0 0 4.82534,-6.0375 c 1.59386,-3.3216 1.5502,-7.0993 1.45559,-10.74089 q -0.45852,-18.20101 -1.91411,-36.3136"
           inkscape:connector-curvature="0"
           style="fill:none;stroke:#3f3d56;stroke-width:2.81535792;stroke-miterlimit:10" />
        <path
           id="path1113-3"
           d="m 953.45747,749.09899 a 14.148448,13.232167 0 0 0 -7.07423,-10.89071 l -3.17321,5.8674 0.10194,-7.0994 a 13.995611,13.089227 0 0 0 -4.6652,-0.5241 14.163004,13.245781 0 1 0 14.81075,12.64681 z"
           inkscape:connector-curvature="0"
           style="fill:#57b894;stroke-width:0.70383948" />
        <path
           id="path1115-8"
           d="m 928.19549,838.73599 a 14.163004,13.245781 0 1 1 0.68413,-10.666 l -8.84278,6.73169 9.73071,-2.11 a 13.951942,13.048388 0 0 1 -1.57206,6.04431 z"
           inkscape:connector-curvature="0"
           style="fill:#57b894;stroke-width:0.70383948" />
        <path
           id="path1117-9"
           d="m 921.20134,813.02049 a 14.163004,13.245781 0 0 1 -4.49054,-25.98791 l -0.0727,5.4453 3.24599,-5.9423 v 0 a 14.170283,13.252588 0 1 1 1.31733,26.4712 z"
           inkscape:connector-curvature="0"
           style="fill:#57b894;stroke-width:0.70383948" />
        <path
           id="path1119-6"
           d="m 955.58264,791.62018 a 14.163004,13.245781 0 1 1 6.26637,-24.7899 l -2.50363,6.4187 5.14554,-4.6285 a 14.163004,13.245781 0 0 1 -8.90828,22.9997 z"
           inkscape:connector-curvature="0"
           style="fill:#57b894;stroke-width:0.70383948" />
        <path
           id="path1121-3"
           d="m 951.55062,752.61129 c -3.26783,0.3403 -6.44831,1.28639 -9.73069,1.47699 -3.28239,0.1906 -6.87772,-0.5446 -8.95195,-2.9269 -1.12081,-1.2864 -1.68122,-2.91329 -2.62735,-4.3086 a 10.058208,9.4068188 0 0 0 -3.56624,-3.1447 14.163004,13.245781 0 1 0 26.4774,8.79421 c -0.51674,0 -1.06988,0.054 -1.60117,0.10896 z"
           inkscape:connector-curvature="0"
           style="opacity:0.1;stroke-width:0.70383948" />
        <path
           id="path1123-1"
           d="m 955.58264,791.62018 a 14.170283,13.252588 0 0 1 -13.47159,-18.8953 10.436664,9.7607655 0 0 1 2.85297,2.6683 c 1.00437,1.4225 1.61574,3.0697 2.80203,4.3766 2.18341,2.42321 5.97525,3.2195 9.39591,3.06981 3.42067,-0.1497 6.71761,-1.04811 10.12373,-1.36131 0.46578,-0.041 0.94613,-0.068 1.45559,-0.082 a 14.155727,13.238974 0 0 1 -13.15864,10.2236 z"
           inkscape:connector-curvature="0"
           style="opacity:0.1;stroke-width:0.70383948" />
        <path
           id="path1125-9"
           d="m 921.20134,813.02049 a 14.163004,13.245781 0 0 1 -13.58804,-18.65041 11.404639,10.666053 0 0 1 2.99853,2.72271 c 1.09897,1.45669 1.7831,3.1243 3.07132,4.46519 2.39445,2.49131 6.40465,3.4034 10.02909,3.2876 3.50801,-0.0681 6.885,-0.8781 10.37117,-1.1231 a 14.17756,13.259395 0 0 1 -12.88207,9.29801 z"
           inkscape:connector-curvature="0"
           style="opacity:0.1;stroke-width:0.70383948" />
        <path
           id="path1127-5"
           d="m 928.19549,838.73599 a 14.163004,13.245781 0 0 1 -25.7787,-10.809 14.243062,13.320655 0 0 1 3.10772,2.5934 c 1.34642,1.53829 2.23435,3.27399 3.79183,4.7034 2.9112,2.66139 7.56913,3.75729 11.73215,3.85939 a 61.819405,57.815859 0 0 0 7.147,-0.34719 z"
           inkscape:connector-curvature="0"
           style="opacity:0.1;stroke-width:0.70383948" />
        <path
           id="path1129-7"
           d="m 384.09885,855.54168 c 0,0 11.17175,-0.32669 14.55603,-2.56609 3.38426,-2.2394 17.19792,-4.92121 18.0349,-1.36131 0.83697,3.5599 16.79764,17.8947 4.17757,17.9899 -12.62006,0.0949 -29.32309,-1.8378 -32.68552,-3.7504 -3.36246,-1.9127 -4.08298,-10.3121 -4.08298,-10.3121 z"
           inkscape:connector-curvature="0"
           style="fill:#656380;stroke-width:0.70383948" />
        <path
           id="path1131-4"
           d="m 421.07843,868.38588 c -12.62008,0.0949 -29.3231,-1.8378 -32.68555,-3.7505 -2.56184,-1.4566 -3.58078,-6.691 -3.92285,-9.1073 h -0.37118 c 0,0 0.72781,8.4266 4.06841,10.3461 3.34061,1.9195 20.06548,3.8458 32.68554,3.7505 3.63901,0 4.8981,-1.2388 4.8326,-3.0289 -0.50946,1.0958 -1.89227,1.76961 -4.60697,1.7901 z"
           inkscape:connector-curvature="0"
           style="opacity:0.2;stroke-width:0.70383948" />
        <path
           id="path1133-8"
           d="m 812.16948,854.24849 c 0,0 6.55021,-0.18391 8.49344,-1.4975 1.94322,-1.31371 10.03637,-2.87251 10.524,-0.76921 0.48764,2.1033 9.80348,10.4415 2.43813,10.4959 -7.36535,0.054 -17.11786,-1.0686 -19.08294,-2.1917 -1.96506,-1.1232 -2.37263,-6.03749 -2.37263,-6.03749 z"
           inkscape:connector-curvature="0"
           style="fill:#656380;stroke-width:0.70383948" />
        <path
           id="path1135-7"
           d="m 833.72696,861.74938 c -7.36536,0.054 -17.11789,-1.0755 -19.08296,-2.1918 -1.45559,-0.8508 -2.08879,-3.90699 -2.28529,-5.316 h -0.18923 c 0,0 0.41486,4.9212 2.37263,6.03751 1.95778,1.11639 11.71759,2.253 19.08294,2.19179 2.12518,0 2.86026,-0.7215 2.8166,-1.7698 -0.32024,0.6399 -1.13537,1.0347 -2.71469,1.0483 z"
           inkscape:connector-curvature="0"
           style="opacity:0.2;stroke-width:0.70383948" />
        <path
           id="path1137-0"
           d="m 892.83166,858.26438 c 0,0 11.17174,-0.32669 14.55601,-2.56609 3.38427,-2.23951 17.19793,-4.92131 18.03491,-1.36141 0.83696,3.5599 16.79764,17.8948 4.17756,17.99001 -12.62006,0.0949 -29.32307,-1.83781 -32.68553,-3.75041 -3.36243,-1.9127 -4.08295,-10.3121 -4.08295,-10.3121 z"
           inkscape:connector-curvature="0"
           style="fill:#656380;stroke-width:0.70383948" />
        <path
           id="path1139-9"
           d="m 929.81121,871.10858 c -12.62006,0.0949 -29.3231,-1.8378 -32.68553,-3.7505 -2.56186,-1.45669 -3.58079,-6.691 -3.92285,-9.1073 h -0.37117 c 0,0 0.72779,8.4266 4.06839,10.3461 3.34062,1.9194 20.06549,3.8458 32.68555,3.7505 3.639,0 4.8981,-1.2388 4.83259,-3.029 -0.50945,1.0958 -1.89228,1.76971 -4.60698,1.7902 z"
           inkscape:connector-curvature="0"
           style="opacity:0.2;stroke-width:0.70383948" />
        <path
           id="path1011-2"
           d="m 539.501,775.17828 c 0,0 75.94602,-13.82064 139.73778,-0.39272 0,0 7.8093,0 2.47452,-7.37729 a 14.417735,11.785914 0 0 0 -5.82242,-4.47408 c -12.29983,-5.13434 -57.82377,-20.31739 -130.61841,-0.9578 a 14.32312,11.708571 0 0 0 -9.49053,7.94255 c -0.82969,2.50472 -0.45851,4.90832 3.71906,5.25934 z"
           inkscape:connector-curvature="0"
           style="fill:#f6f8fb;stroke-width:0.65802991" />
      </g>
    </g>
  </g>
</svg>
