<?xml version="1.0" encoding="UTF-8" standalone="no"?>
<!-- Created with Inkscape (http://www.inkscape.org/) -->

<svg
   xmlns:dc="http://purl.org/dc/elements/1.1/"
   xmlns:cc="http://creativecommons.org/ns#"
   xmlns:rdf="http://www.w3.org/1999/02/22-rdf-syntax-ns#"
   xmlns:svg="http://www.w3.org/2000/svg"
   xmlns="http://www.w3.org/2000/svg"
   xmlns:sodipodi="http://sodipodi.sourceforge.net/DTD/sodipodi-0.dtd"
   xmlns:inkscape="http://www.inkscape.org/namespaces/inkscape"
   width="218mm"
   height="174mm"
   viewBox="0 0 218 174"
   version="1.1"
   id="svg8"
   inkscape:version="0.92.5 (2060ec1f9f, 2020-04-08)"
   sodipodi:docname="social_girl.svg">
  <defs
     id="defs2" />
  <sodipodi:namedview
     id="base"
     pagecolor="#ffffff"
     bordercolor="#666666"
     borderopacity="1.0"
     inkscape:pageopacity="0.0"
     inkscape:pageshadow="2"
     inkscape:zoom="0.7"
     inkscape:cx="-207.87915"
     inkscape:cy="582.64069"
     inkscape:document-units="mm"
     inkscape:current-layer="g920"
     showgrid="false"
     inkscape:window-width="2560"
     inkscape:window-height="1377"
     inkscape:window-x="1072"
     inkscape:window-y="476"
     inkscape:window-maximized="1"
     fit-margin-top="1" />
  <metadata
     id="metadata5">
    <rdf:RDF>
      <cc:Work
         rdf:about="">
        <dc:format>image/svg+xml</dc:format>
        <dc:type
           rdf:resource="http://purl.org/dc/dcmitype/StillImage" />
        <dc:title></dc:title>
      </cc:Work>
    </rdf:RDF>
  </metadata>
  <g
     inkscape:label="Layer 1"
     inkscape:groupmode="layer"
     id="layer1"
     transform="translate(0,-123)">
    <g
       id="g920"
       transform="matrix(0.26458333,0,0,0.26458333,-234.83987,-28.42592)">
      <path
         id="path817"
         d="m 1671.8133,1039.0608 a 298.78344,298.78344 0 0 0 -20.9398,-262.90602 l -477.3465,66.09414 457.4505,-95.33557 a 297.75638,297.75638 0 0 0 -236.381,-116.37653 c -164.7292,0 -298.2684,133.53929 -298.2684,298.26843 a 300.8275,300.8275 0 0 0 2.776,40.70171 z"
         inkscape:connector-curvature="0"
         style="fill:#f2f2f2" />
      <path
         id="path819"
         d="m 1055.6555,1005.8894 c 43.1121,111.6625 151.4635,190.8797 278.3319,190.8797 119.0477,0 221.7911,-69.7528 269.6282,-170.6108 z"
         inkscape:connector-curvature="0"
         style="fill:#f2f2f2" />
      <path
         id="path821"
         d="m 1664.2248,1019.5067 c 0,105.8237 -172.8203,191.6043 -385.9945,191.6043 -114.5233,0 -217.3967,-24.7531 -288.08049,-64.0794 -46.12048,-25.6507 -78.544,-57.5108 -91.55089,-92.7186 a 120.87527,109.12961 0 0 1 -6.36306,-34.8063 c 0,-105.81336 319.87244,-583.12392 385.99444,-191.5939 66.1221,391.53 385.9945,85.78057 385.9945,191.5939 z"
         inkscape:connector-curvature="0"
         style="fill:#ff3985;stroke-width:0.95017278" />
      <path
         id="path823"
         d="m 1530.3661,1097.6986 c 0,43.2781 -136.677,78.3685 -305.2865,78.3685 -64.9406,0 -125.144,-5.2051 -174.6215,-14.083 -46.1205,-28.4115 -78.54402,-63.7007 -91.55091,-102.6979 52.34321,-23.8497 151.92981,-39.9562 266.17241,-39.9562 168.6095,0 305.2865,35.0904 305.2865,78.3686 z"
         inkscape:connector-curvature="0"
         style="opacity:0.1" />
      <path
         id="path825"
         d="m 1307.2683,664.17837 c -24.1944,-40.881 -72.0609,-42.78618 -72.0609,-42.78618 0,0 -46.6433,-5.9647 -76.5646,56.29749 -27.8891,58.03348 -66.3796,114.066 -6.1967,127.6512 l 10.8708,-33.83474 6.7322,36.3537 a 235.47744,235.47744 0 0 0 25.75,0.44009 c 64.451,-2.08087 125.8309,0.6088 123.8546,-22.51894 -2.6272,-30.74507 10.8944,-82.26697 -12.3854,-121.60262 z"
         inkscape:connector-curvature="0"
         style="fill:#2f2e41" />
      <path
         id="path827"
         d="m 1149.0099,1022.1923 c -0.8974,4.4619 -1.5614,8.9978 -3.0863,13.286 -1.514,4.2572 -3.8515,8.1944 -5.2358,12.4955 -4.4125,13.7103 1.7046,28.9968 11.4745,39.5794 a 64.586,64.586 0 0 0 31.4893,18.6983 c 8.8137,2.2167 17.9779,2.5358 27.0609,2.8438 25.1513,0.8528 50.9497,1.6159 74.782,-6.4671 a 129.9293,129.9293 0 0 0 21.7264,-9.8701 16.26628,16.26628 0 0 0 5.6375,-4.439 c 1.8177,-2.5878 2.0503,-5.944 2.0344,-9.1063 -0.053,-10.6623 -2.215,-21.2702 -1.7018,-31.9203 0.2842,-5.899 1.3883,-11.7935 0.8448,-17.6743 -1.2325,-13.3372 -11.8233,-25.2744 -24.9188,-28.0865 -6.7607,-1.4519 -13.7729,-0.6608 -20.656,10e-4 a 526.665,526.665 0 0 1 -53.7579,2.4037 c -18.3389,-0.1171 -36.5645,-2.9165 -54.812,-3.2089 -5.3964,-0.087 -5.2873,1.5772 -7.0054,6.7999 a 127.22233,127.22233 0 0 0 -3.8758,14.6649 z"
         inkscape:connector-curvature="0"
         style="fill:#2f2e41" />
      <path
         id="path829"
         d="m 1201.054,758.9143 c -0.8813,4.6145 -1.8339,9.39779 -4.6069,13.19 -3.1905,4.363 -8.3925,6.8559 -11.8248,11.03136 -5.1663,6.28494 -5.4628,15.12885 -5.4841,23.26461 -0.02,7.4948 0.1326,15.48882 4.3121,21.71008 2.7126,4.03763 6.8399,6.86835 10.8737,9.58672 15.674,10.56293 32.6114,21.31549 51.5093,21.66384 7.8301,0.14433 16.2257,-1.8778 21.3778,-7.77584 a 32.0978,32.0978 0 0 0 5.1759,-9.23422 122.62369,122.62369 0 0 0 8.6801,-37.3298 c 0.4304,-6.0321 0.3892,-12.2401 -1.6524,-17.93246 -2.2958,-6.40087 -6.9378,-11.66749 -10.0057,-17.73621 a 39.48452,39.48452 0 0 1 -3.8005,-23.365 2.522,2.522 0 0 0 -0.1334,-1.69328 2.46647,2.46647 0 0 0 -2.0326,-0.82363 l -37.4715,-2.69752 a 81.54237,81.54237 0 0 1 -10.4039,-1.1902 c -2.02,-0.41073 -7.3552,-3.27958 -9.2813,-2.51672 -3.5653,1.41205 -4.501,18.02167 -5.2318,21.84827 z"
         inkscape:connector-curvature="0"
         style="fill:#a0616a" />
      <path
         id="path831"
         d="m 1201.054,760.08401 c -0.8813,4.6145 -1.8339,9.39779 -4.6069,13.19 -3.1905,4.363 -8.3925,6.8559 -11.8248,11.03136 -5.1663,6.28494 -5.4628,15.12886 -5.4841,23.26461 -0.02,7.4948 0.1326,15.48882 4.3121,21.71008 2.7126,4.03763 6.8399,6.86835 10.8737,9.58672 15.674,10.56293 32.6114,21.31549 51.5093,21.66384 7.8301,0.14433 16.2257,-1.8778 21.3778,-7.77584 a 32.0978,32.0978 0 0 0 5.1759,-9.23422 122.62369,122.62369 0 0 0 8.6801,-37.3298 c 0.4304,-6.0321 0.3892,-12.2401 -1.6524,-17.93246 -2.2958,-6.40087 -6.9378,-11.66749 -10.0057,-17.73621 a 39.48452,39.48452 0 0 1 -3.8005,-23.365 2.522,2.522 0 0 0 -0.1334,-1.69328 2.46647,2.46647 0 0 0 -2.0326,-0.82363 l -37.4715,-2.69752 a 81.54237,81.54237 0 0 1 -10.4039,-1.1902 c -2.02,-0.41073 -7.3552,-3.27958 -9.2813,-2.51672 -3.5653,1.41202 -4.501,18.02164 -5.2318,21.84827 z"
         inkscape:connector-curvature="0"
         style="opacity:0.1" />
      <circle
         id="circle833"
         cy="708.96399"
         cx="1236.8888"
         style="fill:#a0616a"
         r="54.974972" />
      <path
         id="path835"
         d="m 1208.7645,832.09464 c 2.8653,2.99489 5.9015,5.96027 9.6561,7.7159 3.7347,1.74633 7.942,2.18093 12.0632,2.29685 9.9097,0.27875 20.6526,-1.53705 27.5463,-8.66149 8.8863,-9.18376 8.5936,-23.99634 15.559,-34.71044 a 7.73191,7.73191 0 0 1 2.2445,-2.45474 7.27553,7.27553 0 0 1 3.8176,-0.87773 c 8.797,-0.0822 16.4601,5.62329 23.376,11.06066 3.0982,2.4358 6.2734,4.95931 8.228,8.38152 a 28.40881,28.40881 0 0 1 2.7746,8.497 c 3.432,16.7535 4.5435,33.88339 5.6466,50.94918 0.6093,9.42621 1.2189,18.86149 1.1736,28.30726 -0.1492,31.11982 -7.3825,61.71921 -14.5755,91.9967 -0.9268,3.90125 -2.1951,8.26199 -5.7429,10.13059 a 14.16108,14.16108 0 0 1 -5.0112,1.2231 c -20.6021,2.4196 -41.2468,4.842 -61.988,5.1615 q -12.1413,0.187 -24.2721,-0.5878 a 13.0753,13.0753 0 0 1 -4.0887,-0.7128 11.53017,11.53017 0 0 1 -4.4575,-3.7854 c -11.2192,-14.13766 -11.8814,-33.68317 -11.8097,-51.73138 q 0.263,-66.18948 4.7297,-132.2732 c 0.2458,-3.63632 0.2995,-8.05259 -2.3206,-10.91314 4.7179,7.55276 11.2799,14.53764 17.451,20.98786 z"
         inkscape:connector-curvature="0"
         style="fill:#d0cde1" />
      <path
         id="path837"
         d="m 1197.1197,768.61767 c -1.8568,3.36105 -15.5458,11.70709 -18.1886,14.49277 -14.7657,15.564 -41.7154,14.98 -55.2197,31.65026 -4.7513,5.86514 -7.2198,13.23459 -9.0353,20.56114 -2.5678,10.36213 -3.9388,21.663 0.3626,31.43355 4.1389,9.40149 12.8519,15.90116 18.7674,24.29911 6.4952,9.22083 9.4155,20.41682 12.2142,31.34287 2.0664,8.0674 4.15,16.33463 3.3452,24.6235 -0.915,9.42426 -5.4755,18.05357 -8.1681,27.13121 -2.6927,9.07764 -3.1574,19.88922 3.0684,27.02322 4.5739,5.2411 11.7481,7.3189 18.6055,8.4877 8.7528,1.4919 17.6482,1.9167 26.5185,2.3086 7.839,0.3464 16.4797,0.4137 22.5059,-4.6116 4.7549,-3.9652 6.8216,-10.39984 7.0891,-16.58537 0.2674,-6.18553 -1.0195,-12.3163 -1.8256,-18.45491 -0.8357,-6.36359 -1.1568,-12.78262 -1.4255,-19.19521 q -1.8084,-43.15875 -0.4935,-86.373 c 0.1826,-5.99485 0.404,-12.06333 -0.8743,-17.92316 -1.6811,-7.70667 -5.8462,-14.59405 -9.3216,-21.67506 -6.8983,-14.055 -10.1606,-27.70826 -9.0943,-43.32975 1.0525,-15.41912 7.7768,-27.16618 1.1697,-15.20587 z"
         inkscape:connector-curvature="0"
         style="fill:#575a89" />
      <path
         id="path839"
         d="m 1274.3186,769.78735 c 2.8281,2.90671 12.4381,3.865 16.0357,5.73692 3.3048,1.71962 6.9617,2.61815 10.5415,3.64978 a 136.85239,136.85239 0 0 1 37.0318,16.99625 22.474,22.474 0 0 1 6.1927,5.34907 c 2.0127,2.79991 2.7433,6.29362 3.4257,9.67368 1.7615,8.726 3.532,17.55711 3.136,26.45029 -0.4201,9.44 -3.2637,18.58269 -6.0846,27.60116 l -10.5403,33.69762 c -7.8677,25.15293 -15.7852,50.5535 -17.999,76.81505 a 180.68882,180.68882 0 0 0 1.6216,43.62813 c 0.2317,1.4501 0.4259,3.1123 -0.5316,4.2257 a 4.16187,4.16187 0 0 1 -2.5812,1.1876 c -5.0872,0.7955 -10.0104,-1.7984 -14.6196,-4.0937 a 161.8956,161.8956 0 0 0 -44.6293,-14.603 103.754,103.754 0 0 0 13.8617,-28.57514 172.93919,172.93919 0 0 0 4.1881,-19.65215 l 4.9033,-28.35907 c 1.798,-10.39885 3.5991,-20.82478 4.2061,-31.36045 a 39.259,39.259 0 0 0 -0.6825,-11.81348 c -0.939,-3.74382 -2.8059,-7.175 -4.4783,-10.65365 -8.0808,-16.80894 -11.8724,-35.991 -8.6929,-54.36842 1.3915,-8.04251 4.0955,-16.0958 2.9679,-24.17953 -1.084,-7.77218 0.043,-13.81253 -1.9515,-21.50424 -8.1878,-31.58138 -0.642,-11.31687 4.6787,-5.84842 z"
         inkscape:connector-curvature="0"
         style="fill:#575a89" />
      <path
         id="path841"
         d="m 1123.5715,841.33699 c -3.6839,7.64473 -9.8429,14.15734 -11.9391,22.38043 a 48.89481,48.89481 0 0 0 -1.041,11.69729 c -0.05,5.91819 -0.082,11.95638 1.7353,17.58887 1.17,3.62625 3.0734,6.97044 4.4446,10.52547 a 38.1647,38.1647 0 0 1 2.5,15.59354 c -0.37,7.36379 -2.8716,14.51182 -3.0671,21.8823 -0.3075,11.5907 5.0536,22.48691 10.2847,32.83458 a 24.13785,24.13785 0 0 1 35.0853,-11.48652 c 1.38,-1.27443 1.5273,-3.36719 1.5813,-5.24485 q 0.58,-20.1705 1.119,-40.34216 c 0.5662,-20.79787 1.1056,-41.87363 -3.6787,-62.12166 -2.1601,-9.142 -5.5212,-18.24873 -11.6828,-25.33952 -3.2445,-3.73366 -14.2586,-13.56823 -19.5844,-9.38557 -2.3951,1.881 -1.8353,7.00117 -2.2148,9.59392 a 40.70272,40.70272 0 0 1 -3.5423,11.82388 z"
         inkscape:connector-curvature="0"
         style="fill:#575a89" />
      <path
         id="path843"
         d="m 1351.7589,819.30672 c 1.7424,5.42581 1.8467,11.22339 1.8814,16.922 q 0.1062,17.43683 -0.4622,34.86905 c -0.194,5.94945 -0.4611,11.98088 -2.2651,17.65357 -1.1897,3.74106 -3.0256,7.24924 -4.2542,10.9777 -3.6822,11.174 -1.6704,23.29322 -1.3546,35.054 a 39.82979,39.82979 0 0 1 -0.9646,11.33944 c -1.9432,7.29077 -7.1655,13.182 -10.8103,19.78851 -3.4617,6.27442 -5.5504,13.30735 -9.6847,19.16043 -4.1343,5.85308 -11.2913,10.49094 -18.2283,8.69412 -5.2561,-1.36143 -8.9909,-6.01384 -11.5742,-10.78946 a 52.92085,52.92085 0 0 1 -5.4717,-34.328 c 2.5935,-14.27428 10.9781,-26.93743 14.002,-41.12677 4.1524,-19.48511 -2.1586,-39.59222 -1.9708,-59.514 a 28.76754,28.76754 0 0 1 1.2541,-9.22536 c 1.5861,-4.55052 4.9926,-8.18446 8.1397,-11.834 a 149.41208,149.41208 0 0 0 10.9396,-14.357 c 2.253,-3.36 5.3128,-12.00185 9.3071,-12.72039 8.9179,-1.60417 19.3043,12.54642 21.5168,19.43616 z"
         inkscape:connector-curvature="0"
         style="fill:#575a89" />
      <path
         id="path845"
         d="m 1077.2982,1013.5267 a 54.263,54.263 0 0 0 -15.0944,-1.6047 37.67315,37.67315 0 0 0 -34.976,44.4111 c 1.0499,5.725 3.4085,11.1231 5.9812,16.3442 4.003,8.1237 8.8042,16.2288 16.2149,21.4347 4.3351,3.0454 9.3524,4.944 14.3101,6.8117 l 39.0307,14.7036 c 5.7418,2.163 11.4845,4.3264 17.2832,6.3321 a 338.06023,338.06023 0 0 0 90.2727,17.9464 c 9.372,0.5581 18.8858,0.7134 28.0287,-1.4203 2.1697,-0.5063 4.4841,-1.2611 5.7402,-3.1012 a 9.83055,9.83055 0 0 0 1.2826,-4.2362 l 2.4017,-16.8137 c 0.3382,-2.3675 0.6636,-4.8594 -0.2041,-7.0879 -1.1002,-2.8258 -3.8581,-4.6034 -6.4876,-6.1137 -25.6599,-14.7378 -55.6209,-22.8685 -77.2192,-43.0959 -5.0846,-4.7618 -9.3396,-12.3098 -15.5173,-15.5445 -7.0055,-3.668 -15.2558,-5.7615 -22.4969,-9.1415 -15.83,-7.3892 -31.3938,-15.8804 -48.5505,-19.8242 z"
         inkscape:connector-curvature="0"
         style="fill:#2f2e41" />
      <path
         id="path847"
         d="m 1116.2647,1036.194 c 13.7957,4.3228 72.0412,34.2717 82.0247,44.7283 -1.3382,0.4821 -46.7417,-24.9626 -48.104,-25.3715 -12.3841,-3.7167 -24.837,-7.4578 -36.5975,-12.8971 -2.3659,-1.0942 -15.3702,-6.2374 -14.7813,-9.2225 0.6646,-3.3685 15.009,1.9953 17.4581,2.7628 z"
         inkscape:connector-curvature="0"
         style="opacity:0.1" />
      <path
         id="path849"
         d="m 1288.3749,1148.6259 a 3.24057,3.24057 0 0 0 2.187,-0.6437 3.37783,3.37783 0 0 0 0.6836,-2.5166 q -0.032,-11.4531 -0.064,-22.9062 c -6.587,-3.1384 -13.955,-4.1444 -21.187,-5.111 l -33.7437,-4.5104 c 0.7752,0.1036 -5.276,14.5336 -4.3482,16.4601 1.6353,3.3954 14.1329,6.4046 17.66,8.0078 12.2615,5.5732 25.0028,11.7002 38.8125,11.22 z"
         inkscape:connector-curvature="0"
         style="fill:#a0616a" />
      <path
         id="path853"
         d="m 1165.8549,1128.2188 -40.4542,-11.9568 c -4.92,-1.4542 -9.924,-2.9211 -15.0545,-2.9173 -5.1304,0 -10.498,1.686 -13.8254,5.5911 -3.1369,3.6817 -4.0348,8.7136 -4.8168,13.4868 l -1.6729,10.2106 c -0.8501,5.189 -1.7018,10.4777 -0.9366,15.6798 0.7652,5.2021 3.4208,10.3994 8.0366,12.9177 5.5981,3.0542 12.4592,1.5624 18.707,0.2849 a 203.66649,203.66649 0 0 1 38.3364,-4.111 c 4.8421,-0.058 9.921,0 14.1997,-2.2649 5.086,-2.6956 8.1288,-8.3953 8.652,-14.1277 0.7961,-8.7222 -2.1111,-20.1153 -11.1713,-22.7932 z"
         inkscape:connector-curvature="0"
         style="fill:#2f2e41" />
      <path
         id="path851"
         d="m 1182.5045,1122.4801 c -6.3711,1.0147 -13.4821,1.9118 -17.6081,6.8713 -5.2324,6.2893 -3.0049,15.6651 -0.5089,23.4563 a 10.10019,10.10019 0 0 0 2.1704,4.2682 c 1.7034,1.6804 4.3137,1.9266 6.7017,2.0778 5.8104,0.368 11.9938,0.6562 17.0705,-2.1938 2.4041,-1.3496 4.391,-3.322 6.6312,-4.929 a 42.51558,42.51558 0 0 1 12.192,-5.574 123.28631,123.28631 0 0 1 24.4733,-5.0436 c 3.2565,-0.3321 6.5778,-0.5456 9.6411,-1.6994 3.0632,-1.1539 5.8997,-3.4419 6.7896,-6.592 1.176,-4.1627 -1.2435,-8.4067 -3.5638,-12.0574 -2.8905,-4.5476 -5.9527,-9.336 -10.2625,-12.6838 -6.2874,-4.884 -9.3977,-1.1348 -15.7311,1.9906 a 133.4693,133.4693 0 0 1 -37.9954,12.1088 z"
         inkscape:connector-curvature="0"
         style="fill:#a0616a" />
      <path
         id="path855"
         d="m 1304.2768,1117.7992 c 5.2443,-0.9191 9.8726,-3.8997 14.8978,-5.659 7.0732,-2.4763 14.7382,-2.4763 22.2323,-2.4489 2.7511,0.01 5.6807,0.072 7.9707,1.5963 3.301,2.1976 4.147,6.5956 4.7083,10.5213 q 1.6933,11.8428 3.3866,23.6856 c 0.637,4.455 1.2701,9.0292 0.2766,13.4185 -0.9935,4.3893 -3.9854,8.6207 -8.3409,9.7531 -5.29,1.3752 -10.4758,-2.004 -15.4705,-4.2238 -12.4839,-5.5483 -26.9957,-4.1302 -40.0123,-8.277 -2.4157,-0.7696 -5.0028,-1.9463 -5.9883,-4.2822 a 9.74344,9.74344 0 0 1 -0.4659,-4.093 c 0.2229,-7.6133 -1.3828,-18.0093 0.9093,-25.2854 2.0614,-6.5436 10.0424,-4.7055 15.8963,-4.7055 z"
         inkscape:connector-curvature="0"
         style="fill:#2f2e41" />
      <path
         id="path857"
         d="m 1389.8867,1003.9933 a 70.25,70.25 0 0 1 24.7469,-1.6908 c 6.6158,0.7288 13.4321,2.5697 18.2624,7.1489 5.8791,5.5734 7.7681,14.1929 7.9257,22.2925 a 69.64672,69.64672 0 0 1 -15.1378,44.4794 40.3588,40.3588 0 0 1 -8.6546,8.3315 56.96628,56.96628 0 0 1 -11.2602,5.4263 l -87.4077,34.4761 c -22.995,9.0699 -46.0712,18.1661 -70.0562,24.1455 a 5.45988,5.45988 0 0 1 -7.3469,-2.6636 181.089,181.089 0 0 1 -19.1573,-35.0437 2.36141,2.36141 0 0 1 1.0437,-3.7233 l 61.8241,-35.5223 c 4.4285,-2.5444 8.9063,-5.1255 12.5834,-8.6701 a 31.23955,31.23955 0 0 0 6.4605,-8.9943 c 1.2815,-2.6766 1.401,-8.9932 3.038,-10.9717 1.6026,-1.9371 7.0851,-2.0917 9.6172,-2.8536 a 87.26471,87.26471 0 0 0 10.4699,-3.9578 c 13.8296,-6.1869 26.1446,-15.1761 39.4022,-22.4203 a 101.09962,101.09962 0 0 1 23.6467,-9.7887 z"
         inkscape:connector-curvature="0"
         style="fill:#2f2e41" />
      <path
         id="path859"
         d="m 1354.8379,1030.5211 c -10.6216,7.9776 -24.3747,15.3108 -34.9018,23.4986 -3.5928,2.7943 -63.4856,36.4667 -64.3324,40.9388 9.8212,1.6548 72.3832,-42.1121 81.3343,-46.4794 8.9511,-4.3672 16.8859,-10.526 24.7486,-16.6392 2.0038,-1.5579 10.4956,-6.2413 4.7435,-7.9819 -3.2403,-0.9805 -9.1999,5.0683 -11.5922,6.6631 z"
         inkscape:connector-curvature="0"
         style="opacity:0.1" />
      <path
         id="path861"
         d="m 1281.7532,770.56 h -93.2378 a 14.28277,14.28277 0 0 0 -14.2827,14.28275 v 5.23022 h -1.0132 v 11.6968 h 1.0132 v 8.18776 h -1.0132 v 7.01808 h 1.0132 v 86.30569 a 14.28277,14.28277 0 0 0 14.2827,14.28275 h 93.2378 A 14.28277,14.28277 0 0 0 1296.036,903.2813 V 784.84275 A 14.28277,14.28277 0 0 0 1281.7532,770.56 Z"
         inkscape:connector-curvature="0"
         style="fill:#3f3d56" />
      <polygon
         id="polygon863"
         points="263.685,206.794 263.685,228.357 279.204,227.76 288.212,192.856 293.841,230.012 349.013,228.886 346.761,184.974 299.471,160.203 234.166,170.337 220.655,230.012 254.289,228.718 "
         style="fill:#2f2e41"
         transform="translate(949.81061,475.26346)" />
      <path
         id="path865"
         d="m 1135.9437,996.26382 c 2.3365,3.48807 5.0742,6.89998 8.8271,8.78168 4.6896,2.3513 10.4782,1.9317 15.1742,-0.4067 a 26.70963,26.70963 0 0 0 10.9507,-10.9793 c 5.1395,-9.07555 6.2039,-19.9354 5.5626,-30.34541 -0.6414,-10.41001 -2.8641,-20.6606 -3.8479,-31.04386 -0.7151,-7.54791 -0.7733,-15.14084 -0.8309,-22.72234 -0.012,-1.59323 0.014,-3.30985 0.9549,-4.59531 1.1383,-1.55452 3.2226,-1.98282 5.0696,-2.53158 10.3726,-3.08186 17.2576,-12.80417 22.1937,-22.43349 3.296,-6.42978 6.1621,-13.45836 5.5265,-20.65569 -0.6356,-7.19733 -5.809,-14.448 -12.9969,-15.18224 -5.926,-0.60531 -11.3977,3.15856 -15.6723,7.30712 a 67.20371,67.20371 0 0 0 -19.6771,39.32488 c -0.9384,7.31808 -0.6696,14.8353 -2.66,21.93971 -4.25,15.16928 -17.5475,24.46965 -24.1742,38.11929 -7.3018,15.04041 -3.2718,32.11553 5.6,45.42324 z"
         inkscape:connector-curvature="0"
         style="fill:#a0616a" />
      <path
         id="path867"
         d="m 1331.6234,938.3109 a 28.66767,28.66767 0 0 1 -16.0765,15.44756 22.20351,22.20351 0 0 1 -13.9757,0.85594 15.49745,15.49745 0 0 1 -10.2381,-9.15747 24.66874,24.66874 0 0 1 -1.1532,-6.87849 c -0.665,-10.22953 -0.408,-20.77076 3.3077,-30.32476 1.4332,-3.685 3.3655,-7.17973 4.4966,-10.96836 1.29,-4.32124 1.496,-8.88057 1.6931,-13.386 l 1.2215,-27.91129 a 18.16469,18.16469 0 0 0 -0.4146,-6.052 c -1.2184,-4.0386 -4.9929,-6.66315 -8.4561,-9.07159 -8.364,-5.81652 -16.6293,-12.6038 -20.6822,-21.95056 -1.2401,-2.86 -2.0586,-6.03921 -1.4291,-9.0923 1.1428,-5.54241 6.7361,-9.13049 12.2645,-10.33931 a 27.4335,27.4335 0 0 1 32.8891,22.10687 c 0.547,3.14985 0.5394,6.36731 0.8595,9.54823 0.6791,6.74746 2.8212,13.25166 4.1612,19.89953 3.3009,16.37507 1.5905,33.30215 4.8546,49.67444 2.7292,13.68915 13.0203,22.6214 6.6777,37.59956 z"
         inkscape:connector-curvature="0"
         style="fill:#a0616a" />
      <circle
         id="circle869"
         cy="821.65436"
         cx="1236.3822"
         style="fill:#d0cde1"
         r="11.6968" />
      <path
         id="path871"
         d="m 1633.2558,972.73616 a 62.66342,62.66342 0 1 0 62.6634,62.66344 62.66341,62.66341 0 0 0 -62.6634,-62.66344 z m 30.969,46.77054 c 0.033,0.6766 0.05,1.3697 0.05,2.063 0,21.141 -16.0745,45.5169 -45.5004,45.5169 a 44.66127,44.66127 0 0 1 -24.4583,-7.2287 32.38749,32.38749 0 0 0 3.8123,0.231 32.03488,32.03488 0 0 0 19.8538,-6.849 16.00356,16.00356 0 0 1 -14.9358,-11.1069 15.07373,15.07373 0 0 0 3.0038,0.2971 16.0862,16.0862 0 0 0 4.2083,-0.5611 15.992,15.992 0 0 1 -12.8233,-15.6784 v -0.198 a 15.60616,15.60616 0 0 0 7.2616,1.9969 16.00976,16.00976 0 0 1 -4.9676,-21.3557 45.28177,45.28177 0 0 0 32.9412,16.7182 15.64372,15.64372 0 0 1 -0.4126,-3.6473 15.97342,15.97342 0 0 1 27.6435,-10.9254 31.7488,31.7488 0 0 0 10.1498,-3.8783 16.03488,16.03488 0 0 1 -7.0306,8.846 32.30255,32.30255 0 0 0 9.176,-2.5251 32.52585,32.52585 0 0 1 -7.9713,8.2848 z"
         inkscape:connector-curvature="0"
         style="fill:#50c8ff;fill-opacity:1" />
      <circle
         id="circle873"
         cy="766.21106"
         cx="1645.0356"
         style="fill:#50c8ff;fill-opacity:1"
         r="11.13491" />
      <path
         id="path875"
         d="m 1658.9545,738.37376 h -27.8373 a 13.95947,13.95947 0 0 0 -13.9187,13.91864 v 27.83726 a 13.95945,13.95945 0 0 0 13.9187,13.91863 h 27.8373 a 13.95964,13.95964 0 0 0 13.9186,-13.91863 V 752.2924 a 13.95966,13.95966 0 0 0 -13.9186,-13.91864 z m -13.9187,44.53963 a 16.70236,16.70236 0 1 1 16.7024,-16.70236 16.70665,16.70665 0 0 1 -16.7024,16.70236 z m 18.0941,-30.621 a 4.17559,4.17559 0 1 1 4.1757,-4.17554 4.16543,4.16543 0 0 1 -4.1757,4.17555 z"
         inkscape:connector-curvature="0"
         style="fill:#50c8ff;fill-opacity:1" />
      <path
         id="path877"
         d="m 1644.3211,700.73532 a 66.06057,66.06057 0 1 0 66.0606,66.06057 66.06056,66.06056 0 0 0 -66.0606,-66.06057 z m 34.1194,79.39434 a 19.54331,19.54331 0 0 1 -19.486,19.48608 h -27.8373 a 19.54333,19.54333 0 0 1 -19.4861,-19.48608 V 752.2924 a 19.54334,19.54334 0 0 1 19.4861,-19.48609 h 27.8373 a 19.54332,19.54332 0 0 1 19.486,19.48609 z"
         inkscape:connector-curvature="0"
         style="fill:#50c8ff;fill-opacity:1" />
      <path
         id="path879"
         d="m 1414.742,579.57437 a 65,65 0 1 0 65,65 65,65 0 0 0 -65,-65 z m 20.4952,39.33084 h -8.3205 c -5.6808,0 -6.765,2.68713 -6.765,6.64709 v 8.415 h 13.53 l -1.7681,13.19991 h -11.762 v 35.82837 h -15.0856 v -35.82837 h -10.8193 v -13.1999 h 10.8193 v -9.75854 c 0,-11.69135 8.1086,-18.05561 18.5508,-18.05561 4.997,0 10.3713,0.37714 11.6204,0.54212 z"
         inkscape:connector-curvature="0"
         style="fill:#50c8ff;fill-opacity:1" />
    </g>
  </g>
</svg>
