<?xml version="1.0" encoding="UTF-8" standalone="no"?>
<svg
   xmlns:dc="http://purl.org/dc/elements/1.1/"
   xmlns:cc="http://creativecommons.org/ns#"
   xmlns:rdf="http://www.w3.org/1999/02/22-rdf-syntax-ns#"
   xmlns:svg="http://www.w3.org/2000/svg"
   xmlns="http://www.w3.org/2000/svg"
   xmlns:xlink="http://www.w3.org/1999/xlink"
   xmlns:sodipodi="http://sodipodi.sourceforge.net/DTD/sodipodi-0.dtd"
   xmlns:inkscape="http://www.inkscape.org/namespaces/inkscape"
   id="fd59ce54-f850-4dfc-bc34-dd7d379d600e"
   data-name="Layer 1"
   width="1074.392"
   height="707.23102"
   viewBox="0 0 1074.392 707.231"
   version="1.1"
   sodipodi:docname="undraw_page_not_found_su7k (1).svg"
   inkscape:version="0.92.5 (2060ec1f9f, 2020-04-08)">
  <metadata
     id="metadata119">
    <rdf:RDF>
      <cc:Work
         rdf:about="">
        <dc:format>image/svg+xml</dc:format>
        <dc:type
           rdf:resource="http://purl.org/dc/dcmitype/StillImage" />
        <dc:title>page not found</dc:title>
      </cc:Work>
    </rdf:RDF>
  </metadata>
  <defs
     id="defs117">
    <linearGradient
       inkscape:collect="always"
       id="linearGradient919">
      <stop
         style="stop-color:#ffffff;stop-opacity:1;"
         offset="0"
         id="stop915" />
      <stop
         style="stop-color:#ffffff;stop-opacity:0;"
         offset="1"
         id="stop917" />
    </linearGradient>
    <inkscape:perspective
       sodipodi:type="inkscape:persp3d"
       inkscape:vp_x="50.081844 : 114.10417 : 1"
       inkscape:vp_y="0 : 1000 : 0"
       inkscape:vp_z="260.08184 : 114.10417 : 1"
       inkscape:persp3d-origin="155.08184 : 64.604166 : 1"
       id="perspective863" />
    <linearGradient
       inkscape:collect="always"
       xlink:href="#linearGradient919"
       id="linearGradient921"
       x1="123.46289"
       y1="312.80835"
       x2="223.59961"
       y2="312.80835"
       gradientUnits="userSpaceOnUse" />
  </defs>
  <sodipodi:namedview
     pagecolor="#ffffff"
     bordercolor="#666666"
     borderopacity="1"
     objecttolerance="10"
     gridtolerance="10"
     guidetolerance="10"
     inkscape:pageopacity="0"
     inkscape:pageshadow="2"
     inkscape:window-width="2560"
     inkscape:window-height="1377"
     id="namedview115"
     showgrid="false"
     inkscape:zoom="0.52867112"
     inkscape:cx="582.85465"
     inkscape:cy="157.94583"
     inkscape:window-x="1072"
     inkscape:window-y="476"
     inkscape:window-maximized="1"
     inkscape:current-layer="layer1-2" />
  <title
     id="title2">page not found</title>
  <ellipse
     cx="548.20959"
     cy="562.60034"
     rx="527.5"
     ry="34.9216"
     id="ellipse4"
     style="fill:#f2f2f2" />
  <path
     d="m 527.99183,180.3007 c -85.94407,0 -147.651,55.13938 -147.651,183.79791 0,145.813 61.70691,184.41057 147.651,184.41057 85.94409,0 151.327,-42.27352 151.327,-184.41057 -5e-5,-151.9396 -65.38293,-183.79791 -151.327,-183.79791 z m 0.56495,319.80837 c -59.52686,0 -90.62592,-34.92288 -90.62592,-135.9163 0,-89.11185 32.37209,-136.10461 91.899,-136.10461 59.52691,0 91.899,30.86774 91.899,136.10461 -9e-5,98.44736 -33.64522,135.9163 -93.17208,135.9163 z"
     id="path6"
     inkscape:connector-curvature="0"
     style="fill:#2f2e41" />
  <path
     d="M 328.87745,446.80767 H 293.34314 V 342.16829 a 20.95585,20.95585 0 0 0 -20.95583,-20.95583 h -8.32638 a 20.95585,20.95585 0 0 0 -20.95586,20.95585 V 446.80767 H 142.87499 a 11.96327,11.96327 0 0 1 -10.57763,-17.552 l 106.0824,-200.78034 a 20.95585,20.95585 0 0 0 -9.58038,-28.73887 l -6.26231,-2.9572 a 20.95585,20.95585 0 0 0 -27.4293,9.07005 L 65.726301,447.88186 a 28.41578,28.41578 0 0 0 -3.35584,13.39612 v 0 a 28.41583,28.41583 0 0 0 28.41584,28.41583 H 243.10507 v 66.16727 a 25.119,25.119 0 0 0 25.119,25.119 h 5e-5 a 25.119,25.119 0 0 0 25.119,-25.119 v -66.16723 h 35.53428 a 21.44307,21.44307 0 0 0 21.44307,-21.44307 v 0 a 21.44307,21.44307 0 0 0 -21.44302,-21.44311 z"
     id="path8"
     inkscape:connector-curvature="0"
     style="fill:#ff3985" />
  <path
     d="m 986.87394,446.80767 h -35.5342 V 342.16829 a 20.95585,20.95585 0 0 0 -20.95591,-20.95583 h -8.32638 a 20.95585,20.95585 0 0 0 -20.95586,20.95585 V 446.80767 H 800.87151 a 11.96326,11.96326 0 0 1 -10.57763,-17.552 l 106.08239,-200.7803 a 20.95586,20.95586 0 0 0 -9.58037,-28.73891 l -6.26231,-2.9572 a 20.95586,20.95586 0 0 0 -27.42931,9.07005 L 723.72282,447.88186 a 28.41578,28.41578 0 0 0 -3.35584,13.39612 v 0 a 28.41583,28.41583 0 0 0 28.41583,28.41583 h 152.31878 v 66.16727 a 25.119,25.119 0 0 0 25.119,25.119 v 0 a 25.119,25.119 0 0 0 25.11905,-25.119 v -66.16723 h 35.5342 a 21.44307,21.44307 0 0 0 21.44306,-21.44307 v 0 a 21.44307,21.44307 0 0 0 -21.44296,-21.44311 z"
     id="path10"
     inkscape:connector-curvature="0"
     style="fill:#ff3985" />
  <path
     d="M 338.68001,434.55446 H 303.14572 V 329.9151 a 20.95585,20.95585 0 0 0 -20.95585,-20.95586 h -8.32638 A 20.95586,20.95586 0 0 0 252.90763,329.9151 V 434.55446 H 152.67755 a 11.96327,11.96327 0 0 1 -10.57763,-17.552 L 248.18231,216.22218 a 20.95586,20.95586 0 0 0 -9.58037,-28.73893 l -6.26231,-2.9572 a 20.95586,20.95586 0 0 0 -27.42931,9.07 L 75.528861,435.62866 a 28.41582,28.41582 0 0 0 -3.35584,13.39613 v 0 a 28.41583,28.41583 0 0 0 28.415829,28.41583 h 152.31878 v 66.16727 a 25.119,25.119 0 0 0 25.119,25.119 h 5e-5 a 25.119,25.119 0 0 0 25.119,-25.119 v -66.16723 h 35.53429 a 21.44307,21.44307 0 0 0 21.44307,-21.44307 v 0 a 21.44307,21.44307 0 0 0 -21.44303,-21.44313 z"
     stroke-miterlimit="10"
     id="path12"
     inkscape:connector-curvature="0"
     style="fill:none;stroke:#3f3d56;stroke-miterlimit:10" />
  <path
     d="M 1005.2537,434.55446 H 969.71944 V 329.9151 a 20.95586,20.95586 0 0 0 -20.9558,-20.95586 h -8.3264 A 20.95586,20.95586 0 0 0 919.48138,329.9151 V 434.55446 H 819.2513 a 11.96327,11.96327 0 0 1 -10.57763,-17.552 L 914.75606,216.22218 a 20.95586,20.95586 0 0 0 -9.58037,-28.73893 l -6.26231,-2.9572 a 20.95586,20.95586 0 0 0 -27.42931,9.07 L 742.10261,435.62866 a 28.41582,28.41582 0 0 0 -3.35584,13.39613 v 0 a 28.41583,28.41583 0 0 0 28.41583,28.41583 h 152.31878 v 66.16727 a 25.119,25.119 0 0 0 25.11896,25.119 v 0 a 25.119,25.119 0 0 0 25.119,-25.119 v -66.16723 h 35.53426 a 21.44307,21.44307 0 0 0 21.4431,-21.44307 v 0 a 21.44307,21.44307 0 0 0 -21.443,-21.44313 z"
     stroke-miterlimit="10"
     id="path14"
     inkscape:connector-curvature="0"
     style="fill:none;stroke:#3f3d56;stroke-miterlimit:10" />
  <path
     d="m 547.59694,169.27283 c -85.94407,0 -147.651,55.13937 -147.651,183.79791 0,145.813 61.70691,184.41057 147.651,184.41057 85.94409,0 151.327,-42.27352 151.327,-184.41057 -5e-5,-151.93961 -65.38293,-183.79791 -151.327,-183.79791 z m 0.565,319.80836 c -59.52686,0 -90.62592,-34.92287 -90.62592,-135.91629 0,-89.11185 32.37209,-136.10461 91.899,-136.10461 59.52691,0 91.899,30.86774 91.899,136.10461 -1.4e-4,98.44735 -33.64527,135.91629 -93.17213,135.91629 z"
     stroke-miterlimit="10"
     id="path16"
     inkscape:connector-curvature="0"
     style="fill:none;stroke:#3f3d56;stroke-miterlimit:10" />
  <circle
     cx="478.70721"
     cy="31.541555"
     r="12.90118"
     id="circle18"
     style="fill:#2f2e41" />
  <ellipse
     cx="510.17349"
     cy="60.175789"
     rx="36.186218"
     ry="46.884762"
     id="ellipse20"
     style="fill:#2f2e41" />
  <path
     d="m 510.1735,92.900691 c -18.1276,0 -33.1413,-17.27048 -35.77576,-39.80476 a 60.9759,60.9759 0 0 0 -0.41046,7.0799 c 0,25.89368 16.20114,46.884669 36.18622,46.884669 19.98508,0 36.18623,-20.990959 36.18623,-46.884669 a 60.9759,60.9759 0 0 0 -0.41046,-7.0799 c -2.63446,22.53428 -17.64813,39.80476 -35.77577,39.80476 z"
     id="path22"
     inkscape:connector-curvature="0"
     style="opacity:0.1" />
  <path
     d="m 583.80833,197.47972 c -0.77711,3.19345 -4.12792,5.751 -7.83881,7.53791 -7.80188,3.75682 -17.4253,4.87788 -26.7597,5.25418 a 45.17622,45.17622 0 0 1 -7.1445,-0.132 20.5371,20.5371 0 0 1 -12.25052,-5.63141 1.68086,1.68086 0 0 1 0.0437,-2.84388 c 4.9694,-5.45888 13.2622,-8.80605 21.61613,-11.21609 6.3344,-1.82743 17.3813,-6.56089 24.29013,-5.9221 6.69181,0.61877 9.02477,8.92125 8.04356,12.95339 z"
     id="path24"
     inkscape:connector-curvature="0"
     style="fill:#3f3d56" />
  <path
     d="m 583.80833,197.47972 c -0.77711,3.19345 -4.12792,5.751 -7.83881,7.53791 -7.80188,3.75682 -17.4253,4.87788 -26.7597,5.25418 a 45.17622,45.17622 0 0 1 -7.1445,-0.132 20.5371,20.5371 0 0 1 -12.25052,-5.63141 1.68086,1.68086 0 0 1 0.0437,-2.84388 c 4.9694,-5.45888 13.2622,-8.80605 21.61613,-11.21609 6.3344,-1.82743 17.3813,-6.56089 24.29013,-5.9221 6.69181,0.61877 9.02477,8.92125 8.04356,12.95339 z"
     id="path26"
     inkscape:connector-curvature="0"
     style="opacity:0.1" />
  <path
     d="m 484.61,173.61236 a 19.76967,19.76967 0 0 0 -1.1987,15.07476 26.33914,26.33914 0 0 0 8.82921,12.49683 c 10.09467,8.09163 23.98784,9.20512 36.92477,9.09278 a 284.6495,284.6495 0 0 0 33.90525,-2.32384 40.53788,40.53788 0 0 0 11.00143,-2.55442 c 4.22242,-1.82679 7.93282,-5.17756 9.436,-9.5257 1.50318,-4.34814 0.43625,-9.67246 -3.13383,-12.57428 -3.13686,-2.54969 -7.46265,-2.9004 -11.49775,-3.14289 l -23.08764,-1.38745 c 2.281,-2.30839 5.31816,-3.614 8.09586,-5.29216 3.68523,-2.22642 6.13358,-5.96455 8.81312,-9.33471 a 129.00143,129.00143 0 0 1 13.4386,-13.817 c 0.75138,4.31038 3.4782,7.8499 6.68733,10.824 3.20913,2.9741 6.90841,5.36845 10.2439,8.20013 8.0786,6.85838 13.89583,16.1669 22.39215,22.50043 a 43.82885,43.82885 0 0 0 16.04862,-8.0122 l -3.30209,-5.98141 a 3.94,3.94 0 0 0 -1.24459,-1.55282 c -0.93465,-0.575 -2.13975,-0.27872 -3.225,-0.44144 -2.90082,-0.435 -4.16771,-3.784 -5.306,-6.48737 -3.12491,-7.42173 -9.108,-13.17993 -14.21783,-19.40381 a 98.00854,98.00854 0 0 1 -9.99577,-14.72284 c -1.71652,-3.10162 -3.288,-6.33107 -5.61746,-9.00321 -2.32946,-2.67214 -5.59358,-4.773 -9.1385,-4.78051 -3.13222,-0.007 -6.02122,1.58355 -8.71422,3.18308 a 230.47679,230.47679 0 0 0 -23.63018,16.09894 c -3.94376,3.0617 -7.86306,6.29645 -12.48933,8.17393 -1.94748,0.79035 -4.00044,1.33052 -5.86924,2.29223 -3.27313,1.6844 -5.75721,4.53435 -8.43128,7.06415 -9.53757,9.02315 -22.59569,14.86931 -35.71683,15.3368 z"
     id="path28"
     inkscape:connector-curvature="0"
     style="fill:#3f3d56" />
  <path
     d="m 532.88584,109.38898 a 23.77444,23.77444 0 0 1 -1.73379,8.03334 10.04492,10.04492 0 0 1 -5.76772,5.57269 12.37513,12.37513 0 0 1 -5.62306,0.18249 10.88232,10.88232 0 0 1 -4.58151,-1.56071 c -2.16484,-1.48837 -3.24415,-4.14413 -3.63748,-6.74325 -0.39333,-2.59599 -0.21714,-5.24856 -0.46885,-7.8634 a 42.94439,42.94439 0 0 0 -1.202,-6.25548 c -0.16993,-0.68282 -0.343,-1.362479 -0.51294,-2.042159 -0.16674,-0.67967 -0.33037,-1.35935 -0.48141,-2.03899 -0.13847,-0.63878 -0.26745,-1.28068 -0.37761,-1.92574 -0.0912,-0.54436 -0.173,-1.09189 -0.23285,-1.64255 a 18.42329,18.42329 0 0 0 -0.80867,-4.81117 14.60727,14.60727 0 0 0 -1.68659,-2.85399 c -0.28635,-0.40906 -0.56326,-0.81811 -0.81815,-1.24292 a 5.88984,5.88984 0 0 1 -0.97226,-3.74762 3.286,3.286 0 0 1 0.14788,-0.601 c 0.0252,-0.0755 0.0535,-0.151 0.085,-0.2234 a 1.80187,1.80187 0 0 0 1.23031,-1.14859 3.43341,3.43341 0 0 0 -0.14788,-1.77782 11.31808,11.31808 0 0 0 -0.95974,-2.28761 c -0.2643,-0.47829 -1.16108,-1.34046 -1.16738,-1.888 -0.0126,-1.10131 2.13972,-1.98866 3.01134,-2.4229 a 16.79623,16.79623 0 0 1 8.59657,-1.74323 c 1.90369,0.129 3.9679,0.71428 5.0189,2.30962 0.944,1.438 0.81807,3.3008 1.22085,4.97168 a 1.47068,1.47068 0 0 0 0.29892,0.66393 1.34135,1.34135 0 0 0 0.73948,0.33982 4.54948,4.54948 0 0 0 1.416,0.0567 h 0.003 a 2.93138,2.93138 0 0 0 0.37128,-0.0535 4.957,4.957 0 0 0 2.03271,-0.8779 q 0.58531,-0.15576 1.18,-0.25488 a 0.25112,0.25112 0 0 0 0.0472,-0.009 c 1.57646,4.97481 1.781,10.30834 3.07111,15.37441 0.63874,2.52043 1.55442,5.00942 1.6834,7.60223 0.009,0.11327 0.0126,0.2297 0.0158,0.34612 0.0189,0.83386 -0.0472,1.673999 -0.0126,2.504719 a 6.981,6.981 0 0 0 0.12591,1.11389 15.61121,15.61121 0 0 0 0.52546,1.74325 l 0.009,0.0283 c 0.0598,0.18251 0.11643,0.36817 0.16363,0.55381 0.0346,0.1353 0.0661,0.26747 0.0913,0.40277 l 0.003,0.009 a 14.93754,14.93754 0 0 1 0.10376,4.2071 z"
     id="path30"
     inkscape:connector-curvature="0"
     style="fill:#fbbebe" />
  <circle
     cx="510.80283"
     cy="58.287819"
     r="18.565109"
     id="circle32"
     style="fill:#fbbebe" />
  <path
     d="m 628.66925,159.43924 a 30.445,30.445 0 0 0 -5.236,-14.10317 q 0.72216,4.29513 1.44748,8.58714 a 3.214,3.214 0 0 1 -3.36688,-1.03523 10.33663,10.33663 0 0 1 -1.76529,-3.27565 67.46571,67.46571 0 0 0 -8.2095,-14.73567 c -11.81876,-0.98489 -23.50223,-5.88418 -33.89555,-11.59532 -10.39643,-5.708 -20.12582,-12.55189 -30.38382,-18.50215 a 43.57346,43.57346 0 0 0 -5.54436,-2.83199 c -3.20954,-1.287 -6.81242,-1.954059 -9.85526,-3.467589 -0.2045,-0.1007 -0.409,-0.20767 -0.61043,-0.31781 a 12.57834,12.57834 0 0 1 -1.94459,-1.30583 10.34363,10.34363 0 0 1 -0.93139,-0.8559 20.35115,20.35115 0 0 1 -3.55886,-5.9534 c -1.63308,-3.61231 -2.21524,-7.97039 -3.84517,-11.58272 a 11.20292,11.20292 0 0 1 2.50156,-1.76524 h 0.003 c 0.13213,-0.0692 0.2643,-0.13532 0.39962,-0.19824 a 11.9404,11.9404 0 0 1 2.00437,-0.73317 q 0.58531,-0.15576 1.18,-0.25488 a 0.25112,0.25112 0 0 0 0.0472,-0.009 11.56564,11.56564 0 0 1 5.49085,0.43424 c 2.58652,0.87477 4.76711,2.62114 6.94148,4.27312 a 114.02006,114.02006 0 0 1 10.14787,8.04906 c 1.79357,1.718 3.4298,3.606 5.35868,5.16675 a 42.14393,42.14393 0 0 0 5.05662,3.35116 q 15.65613,9.326559 31.31525,18.650009 c 3.53365,2.1051 7.07046,4.21019 10.52553,6.438 5.24855,3.38578 10.30828,7.05474 15.36493,10.72057 q 4.46978,3.23787 8.93647,6.47889 a 9.72771,9.72771 0 0 1 2.533,2.3411 8.4724,8.4724 0 0 1 1.12337,3.433 31.3874,31.3874 0 0 1 -1.23038,14.60037 z"
     id="path34"
     inkscape:connector-curvature="0"
     style="fill:#fbbebe" />
  <path
     d="m 537.4894,123.35056 c -1.25235,5.61674 -6.92888,9.012 -9.89617,13.94586 -3.68784,6.12335 -2.18378,13.241 -0.79922,20.25484 q -3.79485,3.27095 -7.59285,6.54186 c -1.39708,1.19886 -2.79417,2.404 -4.29827,3.46444 a 57.35064,57.35064 0 0 1 -6.85966,3.93956 q -3.3606,1.72752 -6.72119,3.45814 a 32.1282,32.1282 0 0 1 -6.57961,2.78793 c -4.41473,1.13278 -9.10318,0.33982 -13.4707,-0.97232 a 6.08761,6.08761 0 0 1 -1.47264,-0.601 2.39351,2.39351 0 0 1 -0.69854,-0.63248 3.91067,3.91067 0 0 1 -0.44365,-2.53933 c 0.44365,-7.35052 2.24036,-14.54686 4.03081,-21.68971 a 85.2598,85.2598 0 0 1 3.84832,-12.57708 85.0766,85.0766 0 0 1 5.41538,-10.151 68.36751,68.36751 0 0 1 7.92948,-11.51353 18.47881,18.47881 0 0 0 3.67525,-4.73882 c 1.11706,-2.54875 0.686,-5.47198 0.91252,-8.2473 a 17.14844,17.14844 0 0 1 1.63312,-6.006889 v -0.003 a 17.09326,17.09326 0 0 1 1.74321,-2.88231 q 0.45788,1.06671 0.91568,2.13026 0.30209,0.69855 0.59783,1.394 0.38706,0.89679 0.7678,1.787279 1.09973,2.55822 2.19637,5.11326 a 21.58968,21.58968 0 0 0 3.33538,5.94399 6.49923,6.49923 0 0 0 11.12337,-0.85275 21.26125,21.26125 0 0 0 2.27185,-6.01319 19.21547,19.21547 0 0 0 0.25175,-7.835069 c -0.75835,-5.00944 -2.88862,-10.12583 -4.43678,-14.77969 a 14.94511,14.94511 0 0 1 -1.07927,-4.87099 3.35144,3.35144 0 0 1 0.0566,-0.56011 c 0.009,-0.0472 0.0189,-0.0975 0.0283,-0.14473 a 11.9404,11.9404 0 0 1 2.00437,-0.73317 q 0.58531,-0.15576 1.18,-0.25488 2.04378,11.06353 4.09377,22.12704 c 0.0315,0.17307 0.0661,0.34613 0.0976,0.52234 0.19509,1.05726 0.39333,2.114539 0.61358,3.168649 0.19828,0.95657 0.41223,1.90999 0.65137,2.85714 l 0.009,0.0283 c 0.0818,0.321 0.16678,0.63877 0.2549,0.95658 l 0.003,0.009 c 0.2423,0.86848 0.5129,1.73065 0.81811,2.58023 1.85024,5.11954 5.07554,10.27372 3.88925,15.58836 z"
     id="path36"
     inkscape:connector-curvature="0"
     style="fill:#ff3985" />
  <path
     d="m 612.83358,202.28353 a 6.58269,6.58269 0 0 0 0.61,3.14328 c 1.16192,2.12353 3.94981,2.60625 6.36228,2.80484 a 188.37688,188.37688 0 0 0 42.2657,-1.28774 4.88565,4.88565 0 0 0 2.15136,-0.66766 c 1.98985,-1.39509 0.76329,-4.7951 -1.40951,-5.88355 -2.1728,-1.08845 -4.75126,-0.82614 -7.1353,-1.29748 a 22.47912,22.47912 0 0 1 -6.67794,-2.89617 q -7.25234,-4.16669 -14.293,-8.68808 c -2.79453,-1.79464 -6.09272,-3.70993 -9.23987,-2.64587 -8.52516,2.884 -12.68983,8.22201 -12.63372,17.41843 z"
     id="path38"
     inkscape:connector-curvature="0"
     style="fill:#3f3d56" />
  <path
     d="m 508.94946,96.280171 v 0.003 c -0.022,0.13215 -0.0441,0.26116 -0.0724,0.39018 -0.0346,0.214 -0.0755,0.43108 -0.11642,0.64499 -0.39018,1.99812 -0.86847,3.986779 -1.41913,5.962859 -1.5104,5.45938 -3.53366,10.83067 -5.54121,16.1233 q -8.08055,21.28692 -16.16423,42.577 c -1.35936,3.57457 -2.71554,7.15228 -4.26054,10.65448 -0.516,1.16741 -1.04782,2.34424 -1.57647,3.53368 -1.89427,4.25737 -3.713,8.65322 -4.31716,13.18436 a 27.44976,27.44976 0 0 0 -0.19194,9.04027 c 0.60416,2.97042 2.40718,5.8716 5.22969,6.96977 1.37823,0.53808 3.35113,1.25865 2.97355,2.69037 -0.2045,0.78665 -1.09817,1.17055 -1.90057,1.3027 a 7.31234,7.31234 0 0 1 -5.966,-1.718 c -1.50725,-1.33732 -2.66518,-3.41725 -4.66959,-3.64065 -1.38767,-0.151 -2.66518,0.67966 -3.93643,1.26178 -5.18564,2.36942 -11.22719,0.71114 -16.674,-0.9723 0.42794,-2.20579 2.64318,-3.65953 4.84267,-4.10006 2.19949,-0.44367 4.47449,-0.129 6.718,-0.18879 a 3.50958,3.50958 0 0 0 2.04216,-0.52549 3.70545,3.70545 0 0 0 1.10132,-1.88169 78.96356,78.96356 0 0 0 3.21273,-13.14661 c 0.7237,-4.66645 1.02581,-9.40527 2.05787,-14.01507 0.80241,-3.59661 2.0422,-7.07991 3.10572,-10.61044 a 224.68238,224.68238 0 0 0 5.0598,-22.07674 78.02019,78.02019 0 0 0 1.42543,-9.36751 c 0.17935,-2.6117 0.0944,-5.236 0.34609,-7.83826 a 60.8877,60.8877 0 0 1 2.11141,-9.99682 q 1.44427,-5.34768 2.88547,-10.689089 c 1.42544,-5.27059 2.95465,-10.7457 6.567,-14.84261 a 13.96159,13.96159 0 0 1 10.02834,-4.78914 9.8819,9.8819 0 0 1 2.13027,0.22969 c 0.11639,0.0283 0.23285,0.0566 0.34923,0.0881 a 8.63447,8.63447 0 0 1 2.17437,0.89995 c 1.11388,-0.708 1.68025,-0.45942 2.41974,0.63246 a 6.97319,6.97319 0 0 1 0.88107,3.79484 52.42378,52.42378 0 0 1 -0.85587,10.41534 z"
     id="path40"
     inkscape:connector-curvature="0"
     style="fill:#fbbebe" />
  <path
     d="m 510.1735,100.45259 -0.0472,0.0472 -0.25486,0.25488 -2.5299,2.52674 -1.23976,-5.207659 -4.25109,-17.85396 a 9.8819,9.8819 0 0 1 2.13027,0.22969 3.286,3.286 0 0 1 0.14788,-0.601 l 0.20135,0.68911 1.44118,4.90244 2.72811,9.30771 0.45,1.53241 v 0.003 z"
     id="path42"
     inkscape:connector-curvature="0"
     style="fill:#ff3985" />
  <path
     d="m 526.22737,43.493901 a 12.58165,12.58165 0 0 1 -3.70049,8.89581 12.31392,12.31392 0 0 1 -1.36008,1.17634 12.52812,12.52812 0 0 1 -7.53567,2.52415 h -15.09599 a 12.5902,12.5902 0 0 1 0,-25.18032 h 15.096 a 12.62919,12.62919 0 0 1 12.59623,12.58402 z"
     id="path44"
     inkscape:connector-curvature="0"
     style="fill:#2f2e41" />
  <circle
     cx="540.38116"
     cy="31.541555"
     r="12.90118"
     id="circle46"
     style="fill:#2f2e41" />
  <path
     d="m 540.06647,18.640421 c -0.15825,0 -0.31505,0.006 -0.472,0.0119 a 12.89776,12.89776 0 0 1 0,25.77844 c 0.15694,0.006 0.31374,0.0119 0.472,0.0119 a 12.901176,12.901176 0 1 0 0,-25.8023 z"
     id="path48"
     inkscape:connector-curvature="0"
     style="opacity:0.1" />
  <path
     d="m 478.70722,18.640421 c 0.15825,0 0.31505,0.006 0.472,0.0119 a 12.89776,12.89776 0 0 0 0,25.77844 c -0.157,0.006 -0.31375,0.0119 -0.472,0.0119 a 12.90118,12.90118 0 0 1 0,-25.8023 z"
     id="path50"
     inkscape:connector-curvature="0"
     style="opacity:0.1" />
  <path
     d="m 521.1668,53.566051 a 12.52812,12.52812 0 0 1 -7.53567,2.52415 h -15.09599 a 12.52833,12.52833 0 0 1 -7.53574,-2.52415 z"
     id="path52"
     inkscape:connector-curvature="0"
     style="opacity:0.1" />
  <path
     d="m 618.65172,147.04688 c 0,0 3.25228,9.37161 6.229,6.87633 l -2.37258,-12.24982 z"
     id="path54"
     inkscape:connector-curvature="0"
     style="fill:#fbbebe" />
  <path
     d="m 1014.4299,432.8406 a 20.81252,20.81252 0 1 0 2.7716,-39.91524 l 0.5209,10.7122 -5.0681,-9.18045 a 20.734,20.734 0 0 0 -10.6837,11.72261 20.40847,20.40847 0 0 0 -1.1971,5.62986 20.80856,20.80856 0 0 0 13.6564,21.03102 z"
     id="path56"
     inkscape:connector-curvature="0"
     style="fill:#57b894" />
  <path
     d="m 1039.5073,557.08402 c -1.7891,-9.11027 5.9633,-17.1868 13.6208,-22.43651 7.6576,-5.24971 16.605,-10.40779 19.2178,-19.31684 3.755,-12.80387 -7.43,-24.52981 -16.1357,-34.64176 a 125.30044,125.30044 0 0 1 -16.5236,-24.55738 c -1.811,-3.5325 -3.4755,-7.22528 -3.9522,-11.16626 -0.6864,-5.67546 1.137,-11.32309 2.9739,-16.73673 q 9.1793,-27.05169 19.6285,-53.65005"
     stroke-miterlimit="10"
     id="path58"
     inkscape:connector-curvature="0"
     style="fill:none;stroke:#3f3d56;stroke-miterlimit:10" />
  <path
     d="m 1015.287,430.08266 a 20.81252,20.81252 0 1 0 2.7716,-39.91524 l 0.521,10.7122 -5.0682,-9.18045 a 20.734,20.734 0 0 0 -10.6836,11.72261 20.40847,20.40847 0 0 0 -1.1972,5.62986 20.80855,20.80855 0 0 0 13.6564,21.03102 z"
     stroke-miterlimit="10"
     id="path60"
     inkscape:connector-curvature="0"
     style="fill:none;stroke:#3f3d56;stroke-miterlimit:10" />
  <path
     d="m 1036.9635,370.87912 a 20.78819,20.78819 0 0 1 14.9799,-13.19764 l 1.7136,10.18378 3.177,-10.69566 a 20.81,20.81 0 1 1 -19.8706,13.70952 z"
     id="path62"
     inkscape:connector-curvature="0"
     style="fill:#57b894" />
  <path
     d="m 1038.1063,367.20186 a 20.7882,20.7882 0 0 1 14.9799,-13.19763 l 1.7136,10.18378 3.177,-10.69567 a 20.81,20.81 0 1 1 -19.8705,13.70952 z"
     stroke-miterlimit="10"
     id="path64"
     inkscape:connector-curvature="0"
     style="fill:none;stroke:#3f3d56;stroke-miterlimit:10" />
  <path
     d="m 1052.5568,480.89531 a 20.81,20.81 0 0 0 18.419,-37.02267 l -2.4412,8.21926 -1.731,-10.30382 a 0.36183,0.36183 0 0 0 -0.053,-0.0201 20.81113,20.81113 0 1 0 -14.1938,39.12733 z"
     id="path66"
     inkscape:connector-curvature="0"
     style="fill:#57b894" />
  <path
     d="m 1053.5471,477.17063 a 20.81,20.81 0 0 0 18.419,-37.02267 l -2.4412,8.21926 -1.7311,-10.30382 a 0.3621,0.3621 0 0 0 -0.053,-0.0201 20.81113,20.81113 0 1 0 -14.1938,39.12733 z"
     stroke-miterlimit="10"
     id="path68"
     inkscape:connector-curvature="0"
     style="fill:none;stroke:#3f3d56;stroke-miterlimit:10" />
  <path
     d="m 1030.8899,515.45794 a 20.80131,20.80131 0 1 0 4.0106,-16.29737 l 9.2727,13.95654 -12.67,-7.40768 a 20.61638,20.61638 0 0 0 -0.6133,9.74851 z"
     id="path70"
     inkscape:connector-curvature="0"
     style="fill:#57b894" />
  <path
     d="m 1031.747,512.7 a 20.80131,20.80131 0 1 0 4.0106,-16.29737 l 9.2727,13.95655 -12.6699,-7.40769 A 20.61626,20.61626 0 0 0 1031.747,512.7 Z"
     stroke-miterlimit="10"
     id="path72"
     inkscape:connector-curvature="0"
     style="fill:none;stroke:#3f3d56;stroke-miterlimit:10" />
  <path
     d="m 16.573601,483.53971 a 13.67421,13.67421 0 1 0 1.821,-26.225 l 0.34227,7.03811 -3.32987,-6.03172 a 13.62263,13.62263 0 0 0 -7.0193604,7.702 13.40883,13.40883 0 0 0 -0.78654,3.69893 13.6716,13.6716 0 0 0 8.9725004,13.81768 z"
     id="path74"
     inkscape:connector-curvature="0"
     style="fill:#57b894" />
  <path
     d="m 33.049881,565.1699 c -1.17545,-5.98561 3.918,-11.292 8.94915,-14.7412 5.03115,-3.4492 10.90978,-6.8381 12.62642,-12.69151 2.46711,-8.41238 -4.88167,-16.11653 -10.60142,-22.76027 a 82.32442,82.32442 0 0 1 -10.85629,-16.13465 22.20962,22.20962 0 0 1 -2.59668,-7.33643 c -0.451,-3.72888 0.747,-7.43947 1.95391,-10.99634 q 6.03093,-17.77346 12.89623,-35.24906"
     stroke-miterlimit="10"
     id="path76"
     inkscape:connector-curvature="0"
     style="fill:none;stroke:#3f3d56;stroke-miterlimit:10" />
  <path
     d="m 17.136751,481.72769 a 13.6742,13.6742 0 1 0 1.821,-26.225 l 0.34227,7.03812 -3.32988,-6.03177 a 13.62262,13.62262 0 0 0 -7.0193604,7.702 13.40912,13.40912 0 0 0 -0.78654,3.69892 13.67158,13.67158 0 0 0 8.9725104,13.81773 z"
     stroke-miterlimit="10"
     id="path78"
     inkscape:connector-curvature="0"
     style="fill:none;stroke:#3f3d56;stroke-miterlimit:10" />
  <path
     d="m 31.378551,442.82989 a 13.65822,13.65822 0 0 1 9.84209,-8.67109 l 1.12587,6.69093 2.08737,-7.02725 a 13.67252,13.67252 0 1 1 -13.05533,9.00741 z"
     id="path80"
     inkscape:connector-curvature="0"
     style="fill:#57b894" />
  <path
     d="m 32.129411,440.41386 a 13.65822,13.65822 0 0 1 9.84209,-8.67108 l 1.12587,6.69093 2.08737,-7.02725 a 13.67252,13.67252 0 1 1 -13.05533,9.0074 z"
     stroke-miterlimit="10"
     id="path82"
     inkscape:connector-curvature="0"
     style="fill:none;stroke:#3f3d56;stroke-miterlimit:10" />
  <path
     d="m 41.623691,515.11253 a 13.67255,13.67255 0 0 0 12.10164,-24.32457 l -1.60392,5.4002 -1.13733,-6.76979 a 0.238,0.238 0 0 0 -0.0348,-0.0132 13.67329,13.67329 0 1 0 -9.32559,25.70736 z"
     id="path84"
     inkscape:connector-curvature="0"
     style="fill:#57b894" />
  <path
     d="m 42.274281,512.66535 a 13.67255,13.67255 0 0 0 12.10164,-24.32457 l -1.60392,5.4002 -1.13733,-6.7698 a 0.238,0.238 0 0 0 -0.0348,-0.0132 13.673291,13.673291 0 1 0 -9.32559,25.70737 z"
     stroke-miterlimit="10"
     id="path86"
     inkscape:connector-curvature="0"
     style="fill:none;stroke:#3f3d56;stroke-miterlimit:10" />
  <path
     d="m 27.388141,537.82081 a 13.66684,13.66684 0 1 0 2.635,-10.70767 l 6.09231,9.16971 -8.32438,-4.867 a 13.54535,13.54535 0 0 0 -0.40293,6.40496 z"
     id="path88"
     inkscape:connector-curvature="0"
     style="fill:#57b894" />
  <path
     d="m 27.951271,536.00879 a 13.66684,13.66684 0 1 0 2.635,-10.70767 l 6.09231,9.16971 -8.32439,-4.867 a 13.54535,13.54535 0 0 0 -0.40292,6.40496 z"
     stroke-miterlimit="10"
     id="path90"
     inkscape:connector-curvature="0"
     style="fill:none;stroke:#3f3d56;stroke-miterlimit:10" />
  <ellipse
     cx="488.51215"
     cy="332.40646"
     rx="17"
     ry="22"
     id="ellipse92"
     style="fill:#2f2e41" />
  <ellipse
     cx="581.01215"
     cy="332.90646"
     rx="17"
     ry="22"
     id="ellipse94"
     style="fill:#2f2e41" />
  <path
     d="m 568.01214,397.90646 c 0,9.94 -13.88,18 -31,18 -17.12,0 -31,-8.06 -31,-18 0,-8.61 10.41,-15.81 24.32,-17.57 a 50.10353,50.10353 0 0 1 6.68,-0.43 50.69869,50.69869 0 0 1 11.13,1.2 c 11.62,2.59 19.87,9.14 19.87,16.8 z"
     id="path96"
     inkscape:connector-curvature="0"
     style="fill:#2f2e41" />
  <ellipse
     cx="492.51215"
     cy="327.40646"
     rx="17"
     ry="22"
     stroke-miterlimit="10"
     id="ellipse98"
     style="fill:none;stroke:#3f3d56;stroke-miterlimit:10" />
  <ellipse
     cx="585.01215"
     cy="327.90646"
     rx="17"
     ry="22"
     stroke-miterlimit="10"
     id="ellipse100"
     style="fill:none;stroke:#3f3d56;stroke-miterlimit:10" />
  <ellipse
     cx="541.01215"
     cy="392.90646"
     rx="31"
     ry="18"
     stroke-miterlimit="10"
     id="ellipse102"
     style="fill:none;stroke:#3f3d56;stroke-miterlimit:10" />
  <path
     d="m 548.51214,382.60646 a 4.93658,4.93658 0 0 1 -1.32,3.392 4.33873,4.33873 0 0 1 -3.18,1.408 h -10 a 4.66433,4.66433 0 0 1 -4.5,-4.8 4.90458,4.90458 0 0 1 0.82,-2.74134 47.02,47.02 0 0 1 6.68,-0.45866 47.66454,47.66454 0 0 1 11.13,1.28 5.06656,5.06656 0 0 1 0.37,1.92 z"
     id="path104"
     inkscape:connector-curvature="0"
     style="fill:#ffffff" />
  <circle
     cx="492.51215"
     cy="321.40646"
     r="5"
     id="circle106"
     style="fill:#ffffff" />
  <circle
     cx="585.51215"
     cy="321.40646"
     r="5"
     id="circle108"
     style="fill:#ffffff" />
  <circle
     cx="590.51215"
     cy="368.40646"
     r="5"
     id="circle110"
     style="opacity:0.3;fill:#ff3985" />
  <circle
     cx="468.51215"
     cy="368.40646"
     r="5"
     id="circle112"
     style="opacity:0.3;fill:#ff3985" />
  <g
     transform="matrix(3.7795276,0,0,3.7795276,184.63987,-937.5269)"
     id="layer1"
     inkscape:label="Layer 1">
    <g
       transform="matrix(0.26458333,0,0,0.26458333,214.47513,-52.869797)"
       id="g983">
      <g
         transform="matrix(0.76999633,0,0,0.76999633,-58.006404,114.25599)"
         id="g1225">
        <flowRoot
           transform="matrix(1.2987075,0,0,1.2987075,116.91957,583.6611)"
           style="font-style:normal;font-variant:normal;font-weight:normal;font-stretch:normal;font-size:40px;line-height:1.25;font-family:Modak;-inkscape-font-specification:'Modak, Normal';font-variant-ligatures:normal;font-variant-caps:normal;font-variant-numeric:normal;font-feature-settings:normal;text-align:start;letter-spacing:0px;word-spacing:0px;writing-mode:lr-tb;text-anchor:start;fill:#ffffff;fill-opacity:1;stroke:none"
           id="flowRoot1624"
           xml:space="preserve"><flowRegion
             style="font-style:normal;font-variant:normal;font-weight:normal;font-stretch:normal;font-size:40px;font-family:Modak;-inkscape-font-specification:'Modak, Normal';font-variant-ligatures:normal;font-variant-caps:normal;font-variant-numeric:normal;font-feature-settings:normal;text-align:start;writing-mode:lr-tb;text-anchor:start;fill:#ffffff;fill-opacity:1"
             id="flowRegion1626"><rect
               style="font-style:normal;font-variant:normal;font-weight:normal;font-stretch:normal;font-size:40px;font-family:Modak;-inkscape-font-specification:'Modak, Normal';font-variant-ligatures:normal;font-variant-caps:normal;font-variant-numeric:normal;font-feature-settings:normal;text-align:start;writing-mode:lr-tb;text-anchor:start;fill:#ffffff;fill-opacity:1"
               y="482.44095"
               x="-794.28571"
               height="44.285713"
               width="87.14286"
               id="rect1628" /></flowRegion><flowPara
             id="flowPara1630">2m</flowPara></flowRoot>        <g
           transform="matrix(4.9085008,0,0,4.9085008,-116.76892,1019.3831)"
           inkscape:label="Layer 1"
           id="layer1-2">
          <g
             id="flowRoot815"
             style="font-style:normal;font-variant:normal;font-weight:normal;font-stretch:normal;font-size:40px;line-height:1.25;font-family:Modak;-inkscape-font-specification:'Modak, Normal';font-variant-ligatures:normal;font-variant-caps:normal;font-variant-numeric:normal;font-feature-settings:normal;text-align:start;letter-spacing:0px;word-spacing:0px;writing-mode:lr-tb;text-anchor:start;fill:#ffffff;fill-opacity:1;stroke:#000000;stroke-width:2.08399391;stroke-miterlimit:4;stroke-dasharray:none;stroke-opacity:0.97340423"
             transform="matrix(0.88616465,0,0,0.88616465,-215.79087,-43.614306)"
             aria-label="ouly">
            <path
               inkscape:connector-curvature="0"
               id="path3179"
               style="fill:#ffffff;fill-opacity:1;stroke:#000000;stroke-width:2.08399391;stroke-miterlimit:4;stroke-dasharray:none;stroke-opacity:0.97340423"
               d="m 133.75586,312.32007 v 3.41797 q 0.13672,0.13672 0.44922,0.13672 0.3125,0 0.44922,-0.21484 0.13672,-0.21485 0.13672,-0.74219 v -2.79297 q 0,-1.875 -0.15625,-2.48047 -0.15625,-0.625 -0.58594,-0.625 -0.27344,0 -0.46875,0.19532 0.17578,1.93359 0.17578,3.10546 z m -7.30469,8.65235 q -3.20312,-3.08594 -3.20312,-8.35938 0,-5.29297 3.00781,-8.33984 3.02734,-3.06641 7.92969,-3.06641 4.90234,0 7.92968,3.1836 3.00782,3.18359 3.00782,8.30078 0,5.09765 -2.91016,8.10547 -2.89062,3.00781 -7.87109,3.00781 -4.98047,0 -7.89063,-2.83203 z" />
            <path
               inkscape:connector-curvature="0"
               id="path3181"
               style="fill:#ffffff;fill-opacity:1;stroke:#000000;stroke-width:2.08399391;stroke-miterlimit:4;stroke-dasharray:none;stroke-opacity:0.97340423"
               d="m 156.8418,314.68336 q 0.23437,0 0.50781,-0.19532 -0.19531,-0.64453 -0.19531,-2.01172 v -9.64843 q 2.07031,-1.25 4.98047,-1.25 1.64062,0 2.87109,0.44922 1.25,0.42968 1.91406,1.15234 v 10.17578 q 0,2.91016 1.40625,3.78906 0.0195,0.0977 0.0195,0.3711 v 0.35156 q 0,2.85156 -1.5039,4.31641 -1.36719,1.36718 -3.76953,1.36718 -1.50391,0 -2.73438,-0.68359 -1.21094,-0.68359 -1.81641,-1.99219 -0.66406,0 -0.66406,0.64453 0,0.44922 0.44922,0.89844 -0.625,0.50781 -1.50391,0.82031 -0.8789,0.3125 -2.59765,0.3125 -1.69922,0 -3.32031,-0.70312 -2.01172,-0.85938 -3.08594,-2.63672 -1.3086,-2.10938 -1.3086,-5.35156 v -4.90235 q -0.99609,-1.73828 -0.99609,-3.82812 0,-1.07422 0.27344,-2.22656 0.27344,-1.15235 0.8789,-2.05079 h 4.29688 q 2.42187,0 3.78906,1.15235 1.38672,1.13281 1.38672,3.45703 v 6.32812 q 0,1.89454 0.72266,1.89454 z" />
            <path
               inkscape:connector-curvature="0"
               id="path3183"
               style="fill:#ffffff;fill-opacity:1;stroke:#000000;stroke-width:2.08399391;stroke-miterlimit:4;stroke-dasharray:none;stroke-opacity:0.97340423"
               d="m 179.14648,299.62476 v 13.73047 q 0,2.91016 1.40625,3.78906 0.0195,0.0977 0.0195,0.3711 v 0.35156 q 0,2.79297 -1.42579,4.23828 -1.40625,1.44531 -4.0039,1.44531 -2.59766,0 -4.1211,-1.44531 -1.8164,-1.71875 -1.8164,-5.19531 v -20.29297 q 2.05078,-1.25 4.6875,-1.25 2.65625,0 3.94531,1.13281 1.30859,1.11328 1.30859,3.125 z" />
            <path
               inkscape:connector-curvature="0"
               id="path3185"
               style="fill:#ffffff;fill-opacity:1;stroke:#000000;stroke-width:2.08399391;stroke-miterlimit:4;stroke-dasharray:none;stroke-opacity:0.97340423"
               d="m 190.82617,313.3357 v 0.44922 q 0,0.3125 0.0195,0.44922 0.19532,0.0976 0.42969,0.0976 0.56641,0 0.56641,-0.85937 0,-2.8711 0.3125,-5.95703 0.33203,-3.10547 0.70312,-4.78516 1.58203,-1.15234 4.21875,-1.15234 2.63672,0 4.0625,1.03515 1.44531,1.01563 1.44531,2.46094 0,0.60547 -0.72265,5 -0.80078,4.47266 -2.05078,9.41406 -0.25391,0.9961 -0.91797,2.79297 -0.64453,1.79688 -1.38672,2.98828 -2.32422,3.69141 -5.74219,4.57032 -1.60156,0.41015 -3.22265,0.41015 -3.14454,0 -4.86329,-1.5625 -1.58203,-1.40625 -1.58203,-3.49609 0,-2.07031 1.23047,-3.90625 0.29297,-0.0781 1.07422,-0.0781 0.78125,0 1.95313,0.19532 3.24218,0.60546 3.30078,0.60546 0.13672,0.0195 0.29297,0.0586 0.17578,0.0195 0.44921,0.0195 0.27344,0 0.46875,-0.15625 0.19532,-0.15625 0.19532,-0.625 l -4.60938,-0.87891 q -1.69922,-0.70312 -2.94922,-2.94922 -1.54297,-2.77343 -2.08984,-7.51953 -1.28906,-1.67968 -1.28906,-4.02343 0,-2.34375 1.17187,-4.08204 h 5.01953 q 2.51953,0 3.76953,1.44532 0.91797,1.07422 1.17188,3.14453 -0.42969,3.39844 -0.42969,6.89453 z" />
          </g>
          <path
             style="font-style:normal;font-variant:normal;font-weight:normal;font-stretch:normal;font-size:40px;line-height:1.25;font-family:Modak;-inkscape-font-specification:'Modak, Normal';font-variant-ligatures:normal;font-variant-caps:normal;font-variant-numeric:normal;font-feature-settings:normal;text-align:start;letter-spacing:0px;word-spacing:0px;writing-mode:lr-tb;text-anchor:start;fill:#ff3985;fill-opacity:0.9372549;stroke:#000000;stroke-width:1.03950763;stroke-opacity:1"
             d="m -118.67967,216.96813 c -6.05739,0 -9.08588,0.62739 -9.08588,1.88229 v 20.78778 c 0,1.33675 0.58412,2.36689 1.75262,3.08982 1.06105,0.66837 2.32362,1.00261 3.78761,1.00261 1.4774,0 2.72642,-0.1841 3.74718,-0.55238 1.03419,-0.36829 1.86009,-0.82528 2.47792,-1.37089 v -5.17645 c -0.36264,-0.0137 -0.75187,-0.0208 -1.16823,-0.0208 -0.41636,0 -0.79259,-0.0203 -1.12837,-0.0612 -0.32235,-0.041 -0.48334,-0.17079 -0.48334,-0.38903 0,-0.13642 0.0537,-0.25915 0.16111,-0.36827 h 9.87181 c 0.81929,-1.03666 1.22886,-2.48268 1.22886,-4.33776 0,-1.4868 -0.3429,-2.82321 -1.02788,-4.00992 h -8.90456 c -0.0269,-0.0273 -0.0404,-0.0821 -0.0404,-0.16391 v -0.14316 c 0,-0.43649 0.25533,-0.65456 0.76571,-0.65456 h 6.97062 c 2.69963,0 4.04977,-1.56218 4.04977,-4.68581 0,-0.7093 -0.0943,-1.50709 -0.28237,-2.39371 -0.18803,-0.90026 -0.4767,-1.71176 -0.86621,-2.43469 z"
             id="flowRoot879"
             inkscape:connector-curvature="0" />
        </g>
      </g>
    </g>
  </g>
</svg>
