<?xml version="1.0" encoding="UTF-8" standalone="no"?>
<!-- Created with Inkscape (http://www.inkscape.org/) -->

<svg
   xmlns:dc="http://purl.org/dc/elements/1.1/"
   xmlns:cc="http://creativecommons.org/ns#"
   xmlns:rdf="http://www.w3.org/1999/02/22-rdf-syntax-ns#"
   xmlns:svg="http://www.w3.org/2000/svg"
   xmlns="http://www.w3.org/2000/svg"
   xmlns:sodipodi="http://sodipodi.sourceforge.net/DTD/sodipodi-0.dtd"
   xmlns:inkscape="http://www.inkscape.org/namespaces/inkscape"
   width="180mm"
   height="95mm"
   viewBox="0 0 180 95"
   version="1.1"
   id="svg8"
   inkscape:version="0.92.5 (2060ec1f9f, 2020-04-08)"
   sodipodi:docname="undraw_preferences_popup_wbfw.svg">
  <defs
     id="defs2" />
  <sodipodi:namedview
     id="base"
     pagecolor="#ffffff"
     bordercolor="#666666"
     borderopacity="1.0"
     inkscape:pageopacity="0.0"
     inkscape:pageshadow="2"
     inkscape:zoom="0.7"
     inkscape:cx="-245.00269"
     inkscape:cy="322.22658"
     inkscape:document-units="mm"
     inkscape:current-layer="g922"
     showgrid="false"
     inkscape:window-width="2560"
     inkscape:window-height="1377"
     inkscape:window-x="1072"
     inkscape:window-y="476"
     inkscape:window-maximized="1" />
  <metadata
     id="metadata5">
    <rdf:RDF>
      <cc:Work
         rdf:about="">
        <dc:format>image/svg+xml</dc:format>
        <dc:type
           rdf:resource="http://purl.org/dc/dcmitype/StillImage" />
        <dc:title></dc:title>
      </cc:Work>
    </rdf:RDF>
  </metadata>
  <g
     inkscape:label="Layer 1"
     inkscape:groupmode="layer"
     id="layer1"
     transform="translate(0,-202)">
    <g
       id="g922"
       transform="matrix(0.26458333,0,0,0.26458333,-40.991517,17.382658)">
      <path
         id="path815"
         d="m 268.01012,956.22241 c 0.62134,27.47218 3.68079,55.65699 10.17791,83.61669 0.1418,0.6282 0.29041,1.247 0.43895,1.8753 h 37.98312 c -0.0405,-0.5626 -0.0811,-1.1908 -0.12161,-1.8753 -2.53264,-40.4207 -17.13424,-286.43271 0.32425,-328.50364 -1.52638,3.41292 -51.74724,116.45208 -48.80262,244.88695 z"
         inkscape:connector-curvature="0"
         style="fill:#e6e6e6;stroke-width:0.66608644" />
      <path
         id="path817"
         d="m 234.36827,1038.8991 c 0.47659,0.9431 0.97341,1.8862 1.48038,2.8153 h 42.77833 c -0.32447,-0.8024 -0.69962,-1.7455 -1.13561,-2.8153 -7.06723,-17.7083 -27.98485,-70.65004 -47.40192,-125.53437 -20.867,-58.98061 -40.01028,-120.19935 -38.39808,-142.35577 -0.49682,4.99714 -14.93538,157.33311 42.6769,267.89014 z"
         inkscape:connector-curvature="0"
         style="fill:#e6e6e6" />
      <path
         id="path819"
         d="m 723.03566,803.3376 -2.39753,18.45234 -1.44921,11.19963 -1.08193,8.31457 -31.77569,32.30994 -9.30965,5.9905 a 7.2221163,7.2221163 0 1 1 -6.27766,-12.89592 l 10.21122,-3.54622 21.51771,-27.94898 0.98172,-5.46294 12.83583,-43.21574 c 1.30896,-2.1905 2.19051,5.79683 4.00702,4.00703 0.54095,0.60105 4.19402,-6.65166 4.67486,-6.01054 4.48791,5.96383 -0.95497,11.2331 -1.93669,18.80633 z"
         inkscape:connector-curvature="0"
         style="fill:#a0616a;stroke-width:0.66783702" />
      <polygon
         id="polygon821"
         points="606.888,475.725 592.056,475.725 592.056,331.453 625.765,330.779 "
         style="fill:#a0616a"
         transform="matrix(0.667837,0,0,0.667837,323.26843,710.40139)" />
      <polygon
         id="polygon823"
         points="678.35,475.725 693.182,475.725 693.182,331.453 659.473,330.779 "
         style="fill:#a0616a"
         transform="matrix(0.667837,0,0,0.667837,323.26843,710.40139)" />
      <circle
         id="circle825"
         r="16.658672"
         cy="751.21375"
         cx="740.72711"
         style="fill:#a0616a;stroke-width:0.66783702" />
      <path
         id="path827"
         d="m 769.09189,775.07618 -2.7014,16.2084 -31.51642,1.80094 v -19.5249 c 6.50213,-2.7954 5.03912,-6.87912 0,-11.54124 l 20.26055,-5.85305 c 0.758,6.70909 1.95177,12.94908 7.53583,14.46341 a 11.191613,11.191613 0 0 1 6.14841,4.07652 z"
         inkscape:connector-curvature="0"
         style="fill:#a0616a;stroke-width:0.66783702" />
      <path
         id="path829"
         d="m 790.2529,934.00894 -32.64198,1.12562 -4.05211,-25.21313 -5.62793,24.08754 -33.31736,0.90047 2.70141,-44.12298 62.58259,-14.85774 a 144.66423,144.66423 0 0 1 10.35538,58.08022 z"
         inkscape:connector-curvature="0"
         style="fill:#2f2e41;stroke-width:0.66783702" />
      <path
         id="path831"
         d="m 723.92289,1041.5093 -21.07548,-0.1931 a 6.8505451,6.8505451 0 0 1 -8.49445,-6.6504 v 0 a 6.8505317,6.8505317 0 0 1 3.88102,-6.1735 l 4.80753,-2.3125 15.62411,-10.6784 11.25586,3.1516 2.15578,9.7012 a 11.076077,11.076077 0 0 1 -8.15437,13.1551 z"
         inkscape:connector-curvature="0"
         style="fill:#2f2e41;stroke-width:0.66783702" />
      <path
         id="path833"
         d="m 780.65243,1041.3899 -21.07547,-0.1932 a 6.8505384,6.8505384 0 0 1 -8.49445,-6.6503 v 0 a 6.8505384,6.8505384 0 0 1 3.88101,-6.1735 l 4.80753,-2.3125 15.62412,-10.6784 11.25586,3.1516 2.15578,9.7011 a 11.076077,11.076077 0 0 1 -8.15438,13.1552 z"
         inkscape:connector-curvature="0"
         style="fill:#2f2e41;stroke-width:0.66783702" />
      <path
         id="path835"
         d="m 733.52408,745.05071 c -6.05184,4.20303 -13.97315,-1.61706 -11.8018,-8.65804 1.79638,-5.82507 6.32546,-11.51454 17.20389,-11.29253 22.0615,0.45024 24.91173,22.53535 17.63357,31.30311 0,0 -0.97488,-13.74396 -3.22605,-11.4928 -2.25118,2.25116 -5.85306,0.90046 -5.85306,0.90046 0,0 1.80094,-8.55445 -6.75351,-4.95258 a 39.125551,39.125551 0 0 0 -7.20304,4.19238 z"
         inkscape:connector-curvature="0"
         style="fill:#2f2e41;stroke-width:0.66783702" />
      <path
         id="path837"
         d="m 781.69847,879.53056 c -18.04135,14.6273 -39.37695,19.91142 -64.83377,13.50704 6.4679,-32.58504 5.22315,-67.22638 0,-102.92841 a 12.530272,12.530272 0 0 1 7.0367,-11.2618 l 11.42291,-5.57216 c 10.1391,14.40113 19.47004,10.72766 28.36478,-2.7014 l 12.6036,4.61108 a 8.8794072,8.8794072 0 0 1 5.82853,8.37802 c -1.71903,36.22503 -2.77653,70.67458 -0.42275,95.96763 z"
         inkscape:connector-curvature="0"
         style="fill:#ff3985;stroke-width:0.66783702" />
      <path
         id="path839"
         d="m 726.76887,838.55933 -5.61651,-1.15536 -1.96344,-0.40738 -15.73424,-3.23901 -7.29946,-1.50263 12.34831,-36.03649 a 30.592712,30.592712 0 0 1 7.4397,-11.83407 30.55361,30.55361 0 0 1 9.02248,-6.15746 v 0.10018 z"
         inkscape:connector-curvature="0"
         style="fill:#ff3985;stroke-width:0.66783702" />
      <path
         id="path841"
         d="m 785.75056,875.02822 -5.2571,14.94122 a 7.625049,7.625049 0 0 0 6.60799,10.13339 v 0 a 7.625049,7.625049 0 0 0 8.19115,-7.0688 l 1.26355,-18.00581 -1.35068,-49.52577 -13.95727,1.3507 z"
         inkscape:connector-curvature="0"
         style="fill:#a0616a;stroke-width:0.66783702" />
      <path
         id="path843"
         d="m 803.75994,824.60197 -29.71547,8.55446 -0.45024,-58.9807 v 0 a 22.724269,22.724269 0 0 1 20.61178,16.52527 z"
         inkscape:connector-curvature="0"
         style="fill:#ff3985;stroke-width:0.66783702" />
      <path
         id="path845"
         d="m 309.98344,788.04052 a 4.50492,4.50492 0 0 0 -4.5,4.5 v 93.99999 a 4.50491,4.50491 0 0 0 4.5,4.5 h 365 a 4.50492,4.50492 0 0 0 4.5,-4.5 v -93.99999 a 4.50493,4.50493 0 0 0 -4.5,-4.5 z"
         inkscape:connector-curvature="0"
         style="fill:#ff3985" />
      <path
         id="path847"
         d="m 674.26915,1042.0405 h -365 a 7.50819,5.3095115 0 0 1 -7.5,-5.3037 V 792.05853 a 7.5082,5.3095185 0 0 1 7.5,-5.30372 h 365 a 7.5082,5.3095185 0 0 1 7.5,5.30372 v 244.67827 a 7.5082,5.3095185 0 0 1 -7.5,5.3037 z m -365,-253.1642 a 4.50492,3.1857111 0 0 0 -4.5,3.18223 v 244.67827 a 4.50491,3.185704 0 0 0 4.5,3.1822 h 365 a 4.50492,3.1857111 0 0 0 4.5,-3.1822 V 792.05853 a 4.50493,3.1857182 0 0 0 -4.5,-3.18223 z"
         inkscape:connector-curvature="0"
         style="fill:#3f3d56;stroke-width:0.84092963" />
      <path
         d="m 413.05725,921.16531 a 5.94683,5.94683 0 0 0 0,11.89205 h 204.08573 a 5.94683,5.94683 0 0 0 0.19525,-11.89205 q -0.0976,-0.002 -0.19525,0 z"
         data-name="Path 40"
         id="a412c548-e719-4eea-a05b-cd0e7020a11d"
         inkscape:connector-curvature="0"
         style="fill:#e6e6e6" />
      <path
         d="m 413.05725,952.16531 a 5.94683,5.94683 0 0 0 0,11.89205 h 204.08573 a 5.94683,5.94683 0 0 0 0.19525,-11.89205 q -0.0976,-0.002 -0.19525,0 z"
         data-name="Path 40"
         id="b78b0a84-c378-4508-9336-e77aabaafae0"
         inkscape:connector-curvature="0"
         style="fill:#e6e6e6" />
      <path
         d="m 413.05725,983.16531 a 5.94683,5.94683 0 0 0 0,11.89209 h 204.08573 a 5.9468464,5.9468464 0 0 0 0.19525,-11.89209 q -0.0976,-0.002 -0.19525,0 z"
         data-name="Path 40"
         id="e32b0e90-8114-4582-9747-2684e16f8e14"
         inkscape:connector-curvature="0"
         style="fill:#e6e6e6" />
      <path
         d="m 413.05725,1014.1653 a 5.94683,5.94683 0 0 0 0,11.8921 h 204.08573 a 5.9468514,5.9468514 0 0 0 0.19525,-11.8921 q -0.0976,0 -0.19525,0 z"
         data-name="Path 40"
         id="b06bb5c2-a5f4-47ff-92f8-77ef735fdd34"
         inkscape:connector-curvature="0"
         style="fill:#e6e6e6" />
      <path
         id="path855"
         d="m 381.39961,839.53594 a 24,24 0 1 1 -24,-24 23.898,23.898 0 0 1 24,24 z"
         inkscape:connector-curvature="0"
         style="fill:#ffffff" />
      <path
         d="m 400.44065,820.5945 a 5.94683,5.94683 0 0 0 0,11.892 h 149.08572 a 5.94683,5.94683 0 0 0 0.19526,-11.892 q -0.0976,-0.002 -0.19526,0 z"
         data-name="Path 40"
         id="ebe986c1-6388-4a4d-87c0-ea526f0f496e"
         inkscape:connector-curvature="0"
         style="fill:#ffffff" />
      <path
         d="m 400.44065,846.5945 a 5.94683,5.94683 0 0 0 0,11.892 h 245.08572 a 5.94683,5.94683 0 0 0 0.19526,-11.892 q -0.0976,-0.002 -0.19526,0 z"
         data-name="Path 40"
         id="a7d58542-4d48-481b-9cd8-4bec86616530"
         inkscape:connector-curvature="0"
         style="fill:#ffffff" />
      <path
         id="path859"
         d="m 374.78572,938.14293 a 11,11 0 1 1 11,-11 11.01245,11.01245 0 0 1 -11,11 z m 0,-20 a 9,9 0 1 0 9,9 9.01016,9.01016 0 0 0 -9,-9 z"
         inkscape:connector-curvature="0"
         style="fill:#e6e6e6" />
      <path
         id="path861"
         d="m 374.78572,969.14293 a 11,11 0 1 1 11,-11 11.01245,11.01245 0 0 1 -11,11 z m 0,-20 a 9,9 0 1 0 9,9 9.01016,9.01016 0 0 0 -9,-9 z"
         inkscape:connector-curvature="0"
         style="fill:#e6e6e6" />
      <path
         id="path863"
         d="m 374.78572,1000.1117 a 11,11 0 1 1 11,-11.00002 11.01245,11.01245 0 0 1 -11,11.00002 z m 0,-20.00002 a 9,9 0 1 0 9,9 9.01016,9.01016 0 0 0 -9,-9 z"
         inkscape:connector-curvature="0"
         style="fill:#e6e6e6" />
      <path
         id="path865"
         d="m 374.78572,1031.1117 a 11,11 0 1 1 11,-11 11.01245,11.01245 0 0 1 -11,11 z m 0,-20 a 9,9 0 1 0 9,9 9.01016,9.01016 0 0 0 -9,-9 z"
         inkscape:connector-curvature="0"
         style="fill:#e6e6e6" />
      <circle
         id="circle871"
         r="5"
         cy="927.14294"
         cx="374.78571"
         style="fill:#ff3985" />
      <circle
         id="circle873"
         r="5"
         cy="989.14288"
         cx="374.78571"
         style="fill:#ff3985" />
      <circle
         id="circle875"
         r="5"
         cy="1020.1428"
         cx="374.78571"
         style="fill:#ff3985" />
      <rect
         id="rect877"
         height="2"
         width="644.14288"
         y="1040.2142"
         x="175.71428"
         style="fill:#2f2e41;stroke-width:0.9164176" />
      <circle
         id="circle873-9"
         r="5"
         cy="958.60718"
         cx="374.57141"
         style="fill:#ff3985" />
    </g>
  </g>
</svg>
