<?xml version="1.0" encoding="UTF-8" standalone="no"?>
<svg
   xmlns:dc="http://purl.org/dc/elements/1.1/"
   xmlns:cc="http://creativecommons.org/ns#"
   xmlns:rdf="http://www.w3.org/1999/02/22-rdf-syntax-ns#"
   xmlns:svg="http://www.w3.org/2000/svg"
   xmlns="http://www.w3.org/2000/svg"
   xmlns:sodipodi="http://sodipodi.sourceforge.net/DTD/sodipodi-0.dtd"
   xmlns:inkscape="http://www.inkscape.org/namespaces/inkscape"
   id="bb441d3c-cf2a-489d-ae6b-061a3c0e4b94"
   data-name="Layer 1"
   width="924.25574"
   height="503.59143"
   viewBox="0 0 924.25571 503.59141"
   version="1.1"
   sodipodi:docname="undraw_fingerprint_re_uf3f.svg"
   inkscape:version="0.92.5 (2060ec1f9f, 2020-04-08)">
  <metadata
     id="metadata3314">
    <rdf:RDF>
      <cc:Work
         rdf:about="">
        <dc:format>image/svg+xml</dc:format>
        <dc:type
           rdf:resource="http://purl.org/dc/dcmitype/StillImage" />
        <dc:title></dc:title>
      </cc:Work>
    </rdf:RDF>
  </metadata>
  <defs
     id="defs3312" />
  <sodipodi:namedview
     pagecolor="#ffffff"
     bordercolor="#666666"
     borderopacity="1"
     objecttolerance="10"
     gridtolerance="10"
     guidetolerance="10"
     inkscape:pageopacity="0"
     inkscape:pageshadow="2"
     inkscape:window-width="2560"
     inkscape:window-height="1377"
     id="namedview3310"
     showgrid="false"
     inkscape:zoom="0.86910286"
     inkscape:cx="660.76382"
     inkscape:cy="137.93925"
     inkscape:window-x="1072"
     inkscape:window-y="476"
     inkscape:window-maximized="1"
     inkscape:current-layer="bb441d3c-cf2a-489d-ae6b-061a3c0e4b94" />
  <path
     d="M 87.31179,130.82087 A 8.7548983,8.7548983 0 0 1 76.156169,120.53431 c 5.093785,-21.191571 24.462761,-73.0157 95.024551,-94.81286 30.56484,-9.44175 59.87673,-9.60293 87.08584,-0.48261 22.38396,7.47197 37.24362,19.16466 44.35169,24.81614 a 8.6827897,8.6827897 0 0 1 1.42218,12.19668 q -0.0266,0.0335 -0.0534,0.0668 a 8.8872689,8.8872689 0 0 1 -12.3829,1.40563 C 278.72601,53.57727 239.64575,22.75138 176.30728,42.3172 114.46125,61.42198 97.661404,106.1093 93.303963,124.39227 a 8.6246784,8.6246784 0 0 1 -5.992159,6.42858 z"
     id="path3273"
     inkscape:connector-curvature="0"
     style="fill:#ff3985;stroke-width:0.70514905" />
  <path
     d="m 279.63419,250.85055 a 8.7060315,8.7060315 0 0 1 -2.16315,0.40663 c -55.12508,2.96902 -90.19792,-42.82743 -91.63787,-44.73677 l -0.26693,-0.44072 c -0.8789,-1.36333 -22.10067,-33.65148 -12.75813,-59.29442 4.29124,-11.72316 13.78175,-19.95175 28.2881,-24.43289 13.49152,-4.16765 24.53143,-2.93503 33.92829,3.77503 7.70504,5.46706 12.64307,13.6199 17.42921,21.4927 9.95423,16.34692 16.05465,24.66384 34.97515,19.86541 8.30757,-2.10852 12.18658,-8.60368 13.9587,-13.66323 4.77127,-13.76786 0.54265,-32.53742 -10.64489,-46.73773 -14.4537,-18.422852 -54.90261,-49.02217 -104.80926,-33.605557 -21.31182,6.583417 -38.75327,19.55689 -50.43344,37.420787 -9.67613,14.82527 -15.30126,33.23827 -15.42459,50.40945 -0.19416,31.972 26.0088,74.0345 26.25728,74.41551 a 8.6664303,8.6664303 0 0 1 -2.75412,11.94275 q -0.0402,0.0252 -0.0806,0.0498 a 8.8737441,8.8737441 0 0 1 -12.15324,-2.71976 c -1.1827,-1.92343 -29.16191,-46.77229 -28.9365,-83.72386 0.31379,-40.05239 24.65297,-87.853387 78.38021,-104.45023 24.83395,-7.67143 50.93187,-6.38205 75.49153,3.6875 19.03561,7.85237 36.65294,20.851211 48.30052,35.694136 14.8769,18.946054 20.11823,43.745944 13.34574,63.101924 -4.51501,12.90397 -13.86237,21.80766 -26.28466,24.99108 -32.37607,8.23562 -45.0592,-12.49979 -54.30924,-27.62558 -9.49852,-15.5068 -14.75253,-22.77729 -31.16919,-17.70604 -9.01424,2.78458 -14.5676,7.2466 -16.90322,13.65733 -3.17827,8.76359 -0.16614,19.99633 2.92036,27.87101 q 0.048,0.1235 0.0961,0.24639 a 71.182148,71.182148 0 0 0 18.06112,26.26856 c 12.70124,11.72917 36.28068,28.45065 66.33327,26.83825 a 8.6794121,8.6794121 0 0 1 9.20085,8.12456 q 0.003,0.0416 0.005,0.0833 a 8.8699786,8.8699786 0 0 1 -6.2422,8.79462 z"
     id="path3275"
     inkscape:connector-curvature="0"
     style="fill:#ff3985;stroke-width:0.70514905" />
  <path
     d="m 212.78734,267.31497 a 8.8958364,8.8958364 0 0 1 -6.96018,-0.72726 c -27.18854,-15.40447 -46.2752,-36.12356 -60.01947,-65.16313 l -0.0553,-0.17911 c -8.66217,-19.3618 -13.87663,-48.94369 -2.37439,-73.94591 8.49154,-18.44835 24.43088,-31.415555 47.2948,-38.478432 27.04271,-8.353738 52.22274,-2.203262 72.88872,17.701052 a 108.008,108.008 0 0 1 22.55351,31.94219 8.8259703,8.8259703 0 0 1 -16.24006,6.9131 90.442908,90.442908 0 0 0 -19.01513,-26.62663 C 234.9306,103.5957 216.41323,99.114549 195.75808,105.49507 c -17.84939,5.51383 -30.14035,15.26143 -36.4322,28.97587 -9.07349,19.7398 -4.40194,44.38872 2.37678,59.55861 12.11901,25.68341 28.92904,43.90151 52.85861,57.43537 a 8.6418206,8.6418206 0 0 1 3.28217,11.77241 q -0.0331,0.0587 -0.0672,0.11698 a 8.8627438,8.8627438 0 0 1 -4.98889,3.96066 z"
     id="path3277"
     inkscape:connector-curvature="0"
     style="fill:#ff3985;stroke-width:0.70514905" />
  <circle
     cx="215.6505"
     cy="169.25577"
     r="11.246458"
     id="circle3279"
     style="fill:#e6e6e6;stroke-width:0.70514905" />
  <g
     aria-label="ouly"
     transform="matrix(2.7214099,0,0,2.7214099,-253.08689,-399.7946)"
     style="font-style:normal;font-variant:normal;font-weight:normal;font-stretch:normal;font-size:40px;line-height:1.25;font-family:Modak;-inkscape-font-specification:'Modak, Normal';font-variant-ligatures:normal;font-variant-caps:normal;font-variant-numeric:normal;font-feature-settings:normal;text-align:start;letter-spacing:0px;word-spacing:0px;writing-mode:lr-tb;text-anchor:start;fill:#ffffff;fill-opacity:1;stroke:#000000;stroke-width:2.08399391;stroke-miterlimit:4;stroke-dasharray:none;stroke-opacity:0.97340423"
     id="flowRoot815">
    <path
       d="m 133.75586,312.32007 v 3.41797 q 0.13672,0.13672 0.44922,0.13672 0.3125,0 0.44922,-0.21484 0.13672,-0.21485 0.13672,-0.74219 v -2.79297 q 0,-1.875 -0.15625,-2.48047 -0.15625,-0.625 -0.58594,-0.625 -0.27344,0 -0.46875,0.19532 0.17578,1.93359 0.17578,3.10546 z m -7.30469,8.65235 q -3.20312,-3.08594 -3.20312,-8.35938 0,-5.29297 3.00781,-8.33984 3.02734,-3.06641 7.92969,-3.06641 4.90234,0 7.92968,3.1836 3.00782,3.18359 3.00782,8.30078 0,5.09765 -2.91016,8.10547 -2.89062,3.00781 -7.87109,3.00781 -4.98047,0 -7.89063,-2.83203 z"
       style="fill:#ffffff;fill-opacity:1;stroke:#000000;stroke-width:2.08399391;stroke-miterlimit:4;stroke-dasharray:none;stroke-opacity:0.97340423"
       id="path3179"
       inkscape:connector-curvature="0" />
    <path
       d="m 156.8418,314.68336 q 0.23437,0 0.50781,-0.19532 -0.19531,-0.64453 -0.19531,-2.01172 v -9.64843 q 2.07031,-1.25 4.98047,-1.25 1.64062,0 2.87109,0.44922 1.25,0.42968 1.91406,1.15234 v 10.17578 q 0,2.91016 1.40625,3.78906 0.0195,0.0977 0.0195,0.3711 v 0.35156 q 0,2.85156 -1.5039,4.31641 -1.36719,1.36718 -3.76953,1.36718 -1.50391,0 -2.73438,-0.68359 -1.21094,-0.68359 -1.81641,-1.99219 -0.66406,0 -0.66406,0.64453 0,0.44922 0.44922,0.89844 -0.625,0.50781 -1.50391,0.82031 -0.8789,0.3125 -2.59765,0.3125 -1.69922,0 -3.32031,-0.70312 -2.01172,-0.85938 -3.08594,-2.63672 -1.3086,-2.10938 -1.3086,-5.35156 v -4.90235 q -0.99609,-1.73828 -0.99609,-3.82812 0,-1.07422 0.27344,-2.22656 0.27344,-1.15235 0.8789,-2.05079 h 4.29688 q 2.42187,0 3.78906,1.15235 1.38672,1.13281 1.38672,3.45703 v 6.32812 q 0,1.89454 0.72266,1.89454 z"
       style="fill:#ffffff;fill-opacity:1;stroke:#000000;stroke-width:2.08399391;stroke-miterlimit:4;stroke-dasharray:none;stroke-opacity:0.97340423"
       id="path3181"
       inkscape:connector-curvature="0" />
    <path
       d="m 179.14648,299.62476 v 13.73047 q 0,2.91016 1.40625,3.78906 0.0195,0.0977 0.0195,0.3711 v 0.35156 q 0,2.79297 -1.42579,4.23828 -1.40625,1.44531 -4.0039,1.44531 -2.59766,0 -4.1211,-1.44531 -1.8164,-1.71875 -1.8164,-5.19531 v -20.29297 q 2.05078,-1.25 4.6875,-1.25 2.65625,0 3.94531,1.13281 1.30859,1.11328 1.30859,3.125 z"
       style="fill:#ffffff;fill-opacity:1;stroke:#000000;stroke-width:2.08399391;stroke-miterlimit:4;stroke-dasharray:none;stroke-opacity:0.97340423"
       id="path3183"
       inkscape:connector-curvature="0" />
    <path
       d="m 190.82617,313.3357 v 0.44922 q 0,0.3125 0.0195,0.44922 0.19532,0.0976 0.42969,0.0976 0.56641,0 0.56641,-0.85937 0,-2.8711 0.3125,-5.95703 0.33203,-3.10547 0.70312,-4.78516 1.58203,-1.15234 4.21875,-1.15234 2.63672,0 4.0625,1.03515 1.44531,1.01563 1.44531,2.46094 0,0.60547 -0.72265,5 -0.80078,4.47266 -2.05078,9.41406 -0.25391,0.9961 -0.91797,2.79297 -0.64453,1.79688 -1.38672,2.98828 -2.32422,3.69141 -5.74219,4.57032 -1.60156,0.41015 -3.22265,0.41015 -3.14454,0 -4.86329,-1.5625 -1.58203,-1.40625 -1.58203,-3.49609 0,-2.07031 1.23047,-3.90625 0.29297,-0.0781 1.07422,-0.0781 0.78125,0 1.95313,0.19532 3.24218,0.60546 3.30078,0.60546 0.13672,0.0195 0.29297,0.0586 0.17578,0.0195 0.44921,0.0195 0.27344,0 0.46875,-0.15625 0.19532,-0.15625 0.19532,-0.625 l -4.60938,-0.87891 q -1.69922,-0.70312 -2.94922,-2.94922 -1.54297,-2.77343 -2.08984,-7.51953 -1.28906,-1.67968 -1.28906,-4.02343 0,-2.34375 1.17187,-4.08204 h 5.01953 q 2.51953,0 3.76953,1.44532 0.91797,1.07422 1.17188,3.14453 -0.42969,3.39844 -0.42969,6.89453 z"
       style="fill:#ffffff;fill-opacity:1;stroke:#000000;stroke-width:2.08399391;stroke-miterlimit:4;stroke-dasharray:none;stroke-opacity:0.97340423"
       id="path3185"
       inkscape:connector-curvature="0" />
  </g>
  <path
     inkscape:connector-curvature="0"
     id="flowRoot879"
     d="m 45.141402,400.45356 c -18.602241,0 -27.902703,1.92671 -27.902703,5.78052 v 63.83923 c 0,4.10516 1.793835,7.2687 5.382295,9.48882 3.258455,2.05259 7.135828,3.07904 11.631715,3.07904 4.537114,0 8.372855,-0.56537 11.507611,-1.69638 3.175983,-1.13102 5.71233,-2.53442 7.609684,-4.20998 v -15.89687 c -1.113672,-0.042 -2.308993,-0.0638 -3.587637,-0.0638 -1.278633,0 -2.434055,-0.0623 -3.465226,-0.18782 -0.989928,-0.12578 -1.484339,-0.52451 -1.484339,-1.19474 0,-0.41891 0.164809,-0.79583 0.494784,-1.13094 h 30.316305 c 2.516033,-3.18359 3.773826,-7.6243 3.773826,-13.32125 0,-4.56595 -1.053053,-8.67007 -3.156641,-12.31445 H 48.91521 c -0.08246,-0.0837 -0.124132,-0.25221 -0.124132,-0.50338 v -0.43961 c 0,-1.34045 0.784129,-2.01014 2.351488,-2.01014 h 21.406757 c 8.29057,0 12.436846,-4.79747 12.436846,-14.39013 0,-2.17825 -0.289588,-4.62828 -0.867153,-7.35108 -0.577456,-2.7647 -1.463965,-5.2568 -2.660131,-7.47693 z"
     style="font-style:normal;font-variant:normal;font-weight:normal;font-stretch:normal;font-size:40px;line-height:1.25;font-family:Modak;-inkscape-font-specification:'Modak, Normal';font-variant-ligatures:normal;font-variant-caps:normal;font-variant-numeric:normal;font-feature-settings:normal;text-align:start;letter-spacing:0px;word-spacing:0px;writing-mode:lr-tb;text-anchor:start;fill:#ff3985;fill-opacity:0.9372549;stroke:#000000;stroke-width:3.19232607;stroke-opacity:1" />
  <g
     id="g4325"
     transform="matrix(0.59355858,0,0,0.59355858,320.69346,58.722341)">
    <path
       id="path4138"
       transform="translate(-94.55416,-86.35794)"
       d="m 1105.4458,813.64206 q -78.1326,-11.44365 -150.28142,-19.73 l 19.01951,-30.77769 c -6.41163,-1.89409 -34.58476,15.65146 -34.58476,15.65146 l 24.9672,-89.4801 C 932.318,692.41246 915.9087,783.8191 915.9087,783.8191 L 879.884,752.72283 897.32185,787.5765 C 750.10955,772.38127 622.97115,766.41158 516.03218,765.72302 L 532.311,739.38054 c -6.41164,-1.8941 -34.58476,15.65146 -34.58476,15.65146 l 24.9672,-89.4801 c -32.24834,3.10672 -48.65763,94.51337 -48.65763,94.51337 l -36.02474,-31.09627 18.46945,36.91575 c -89.651,1.08665 -162.76069,5.87171 -219.19088,11.45114 16.46742,-41.07795 72.39365,-79.96014 72.39365,-79.96014 -42.70771,10.43621 -65.112,28.1517 -76.82,44.71011 -0.89495,-50.81752 5.12559,-144.99985 49.85547,-249.09453 0,0 -88.29554,160.40869 -77.04785,268.40786 l 1.34441,19.17452 c -74.83623,8.62484 -112.4612,17.78422 -112.4612,17.78422 z"
       inkscape:connector-curvature="0"
       style="fill:#3f3d56" />
    <path
       id="path4140"
       transform="translate(-94.55416,-86.35794)"
       d="m 632.0806,115.488 v 648.2 a 29.13909,29.13909 0 0 1 -29.13,29.11 h -263.15 a 29.07906,29.07906 0 0 1 -29.13,-29.11 v -648.2 a 29.12748,29.12748 0 0 1 29.13,-29.13 h 39.38 v 5.05 a 23.987,23.987 0 0 0 23.98,23.99 h 133.84 a 23.78923,23.78923 0 0 0 14.22,-4.68 22.28455,22.28455 0 0 0 2.36,-1.98 23.917,23.917 0 0 0 7.4,-17.33 v -5.05 h 41.97 a 29.12108,29.12108 0 0 1 29.13,29.13 z"
       inkscape:connector-curvature="0"
       style="fill:#3f3d56" />
    <circle
       id="circle4142"
       r="7"
       cy="108"
       cx="289.42645"
       style="fill:#f2f2f2" />
    <path
       id="path4144"
       transform="translate(-94.55416,-86.35794)"
       d="m 553.5806,108.738 a 22.28455,22.28455 0 0 1 -2.36,1.98 125.247,125.247 0 0 0 80.86,60.19 v -3.12 a 122.29883,122.29883 0 0 1 -78.5,-59.05 z"
       inkscape:connector-curvature="0"
       style="fill:#ff3985" />
    <path
       id="path4146"
       transform="translate(-94.55416,-86.35794)"
       d="m 493.7706,115.39792 h -3.28 a 181.66827,181.66827 0 0 0 141.59,113.05 v -3.1 a 178.54983,178.54983 0 0 1 -138.31,-109.95 z"
       inkscape:connector-curvature="0"
       style="fill:#ff3985" />
    <path
       id="path4148"
       transform="translate(-94.55416,-86.35794)"
       d="m 433.35062,115.39792 h -3.16 c 26.43,91.74 106.18,160.03 201.89,171.12 v -3.05 c -94.05001,-11.03992 -172.43001,-78.03002 -198.73,-168.07 z"
       inkscape:connector-curvature="0"
       style="fill:#ff3985" />
    <polygon
       id="polygon4150"
       points="264.249,159.822 262.426,159.822 262.426,160.178 264.249,160.178 264.249,162 264.604,162 264.604,160.178 266.426,160.178 266.426,159.822 264.604,159.822 264.604,158 264.249,158 "
       style="fill:#f2f2f2" />
    <polygon
       id="polygon4152"
       points="387.249,68.822 385.426,68.822 385.426,69.178 387.249,69.178 387.249,71 387.604,71 387.604,69.178 389.426,69.178 389.426,68.822 387.604,68.822 387.604,67 387.249,67 "
       style="fill:#f2f2f2" />
    <polygon
       id="polygon4154"
       points="282.249,231.822 280.426,231.822 280.426,232.178 282.249,232.178 282.249,234 282.604,234 282.604,232.178 284.426,232.178 284.426,231.822 282.604,231.822 282.604,230 282.249,230 "
       style="fill:#f2f2f2" />
    <polygon
       id="polygon4156"
       points="366.249,178.822 364.426,178.822 364.426,179.178 366.249,179.178 366.249,181 366.604,181 366.604,179.178 368.426,179.178 368.426,178.822 366.604,178.822 366.604,177 366.249,177 "
       style="fill:#f2f2f2" />
    <polygon
       id="polygon4158"
       points="486.249,211.822 484.426,211.822 484.426,212.178 486.249,212.178 486.249,214 486.604,214 486.604,212.178 488.426,212.178 488.426,211.822 486.604,211.822 486.604,210 486.249,210 "
       style="fill:#f2f2f2" />
    <circle
       id="circle4160"
       r="4"
       cy="125"
       cx="467.42645"
       style="fill:#ff6584" />
    <path
       id="path4162"
       transform="translate(-94.55416,-86.35794)"
       d="m 418.68064,305.15793 -2.27,0.35 c 0.71,4.54 1.27,9.18 1.68,13.77 l 2.29,-0.2 c -0.41003,-4.64993 -0.98003,-9.32993 -1.7,-13.92 z"
       inkscape:connector-curvature="0"
       style="fill:#e6e6e6" />
    <path
       id="path4164"
       transform="translate(-94.55416,-86.35794)"
       d="m 412.47061,277.8179 -2.2,0.67005 c 1.33,4.4 2.52,8.91 3.53,13.4 l 2.25,-0.51 c -1.03001,-4.54003 -2.23997,-9.10003 -3.58,-13.56005 z"
       inkscape:connector-curvature="0"
       style="fill:#e6e6e6" />
    <path
       id="path4166"
       transform="translate(-94.55416,-86.35794)"
       d="m 402.56064,251.59793 -2.09,0.96 c 1.92,4.19 3.72,8.49 5.35,12.79 l 2.15,-0.81 c -1.64999,-4.35003 -3.45999,-8.71002 -5.41,-12.94 z"
       inkscape:connector-curvature="0"
       style="fill:#e6e6e6" />
    <path
       id="path4168"
       transform="translate(-94.55416,-86.35794)"
       d="m 389.16062,227.01792 -1.94,1.23 c 2.47,3.87994 4.84,7.9 7.04,11.93 l 2.02,-1.1 c -2.21998,-4.07992 -4.62,-8.14002 -7.12,-12.06 z"
       inkscape:connector-curvature="0"
       style="fill:#e6e6e6" />
    <path
       id="path4170"
       transform="translate(-94.55416,-86.35794)"
       d="m 372.50064,204.488 -1.75,1.49 c 2.98,3.5 5.88,7.16 8.62,10.86 l 1.84,-1.37 c -2.76005,-3.74006 -5.69004,-7.44008 -8.71,-10.98 z"
       inkscape:connector-curvature="0"
       style="fill:#e6e6e6" />
    <path
       id="path4172"
       transform="translate(-94.55416,-86.35794)"
       d="m 352.92063,184.428 -1.53,1.71 c 3.44,3.07 6.81,6.3 10.02,9.59 l 1.65,-1.61 c -3.24999,-3.33007 -6.66002,-6.59008 -10.14,-9.69 z"
       inkscape:connector-curvature="0"
       style="fill:#e6e6e6" />
    <path
       id="path4174"
       transform="translate(-94.55416,-86.35794)"
       d="m 330.80063,167.20792 -1.29,1.9 c 3.82,2.57 7.6,5.31 11.23,8.14 l 1.42,-1.81006 c -3.68001,-2.85995 -7.50001,-5.62986 -11.36,-8.22994 z"
       inkscape:connector-curvature="0"
       style="fill:#e6e6e6" />
    <path
       id="path4176"
       transform="translate(-94.55416,-86.35794)"
       d="m 310.67063,155.248 v 2.6 c 2.39,1.25 4.76,2.56 7.08,3.9 l 1.15,-1.99 q -4.05005,-2.34009 -8.23,-4.51 z"
       inkscape:connector-curvature="0"
       style="fill:#e6e6e6" />
    <path
       id="path4178"
       transform="translate(-94.55416,-86.35794)"
       d="m 418.16091,521.16082 c 0.373,-2.236 0.71425,-4.5192 1.01475,-6.78518 l 2.27933,0.30227 c -0.30389,2.29157 -0.649,4.5992 -1.02589,6.86071 z"
       inkscape:connector-curvature="0"
       style="fill:#e6e6e6" />
    <path
       id="path4180"
       transform="translate(-94.55416,-86.35794)"
       d="m 411.75189,548.14021 2.19741,0.68431 c 1.37871,-4.44384 2.62647,-8.99608 3.70743,-13.53149 l -2.23928,-0.52959 c -1.071,4.48642 -2.29693,8.98189 -3.66556,13.37677 z"
       inkscape:connector-curvature="0"
       style="fill:#e6e6e6" />
    <path
       id="path4182"
       transform="translate(-94.55416,-86.35794)"
       d="m 401.71048,573.97176 2.0863,0.978 c 1.98369,-4.2078 3.84038,-8.54363 5.52458,-12.88411 l -2.14578,-0.83709 c -1.66431,4.2935 -3.50124,8.58236 -5.4651,12.7432 z"
       inkscape:connector-curvature="0"
       style="fill:#e6e6e6" />
    <path
       id="path4184"
       transform="translate(-94.55416,-86.35794)"
       d="m 388.199,598.20534 1.92823,1.25186 c 2.54321,-3.89939 4.983,-7.94236 7.25441,-12.00964 l -2.00526,-1.12476 c -2.24176,4.02232 -4.66183,8.0183 -7.17738,11.88254 z"
       inkscape:connector-curvature="0"
       style="fill:#e6e6e6" />
    <path
       id="path4186"
       transform="translate(-94.55416,-86.35794)"
       d="m 371.48232,620.34395 1.74272,1.51 c 3.05929,-3.52841 6.02513,-7.19843 8.83619,-10.91033 l -1.84138,-1.377 c -2.77162,3.66889 -5.70785,7.29389 -8.73753,10.77733 z"
       inkscape:connector-curvature="0"
       style="fill:#e6e6e6" />
    <path
       id="path4188"
       transform="translate(-94.55416,-86.35794)"
       d="m 351.90747,639.98907 1.51427,1.72861 c 3.51621,-3.06749 6.95467,-6.304 10.24042,-9.59211 l -1.62648,-1.629 c -3.24835,3.25491 -6.65724,6.44643 -10.12821,9.4925 z"
       inkscape:connector-curvature="0"
       style="fill:#e6e6e6" />
    <path
       id="path4190"
       transform="translate(-94.55416,-86.35794)"
       d="m 329.85451,656.77957 1.27021,1.92364 c 3.88265,-2.56378 7.73865,-5.29636 11.43808,-8.112 l -1.39026,-1.83593 c -3.664,2.79229 -7.47276,5.49372 -11.31803,8.02429 z"
       inkscape:connector-curvature="0"
       style="fill:#e6e6e6" />
    <path
       id="path4192"
       transform="translate(-94.55416,-86.35794)"
       d="m 319.16062,666.00791 c -2.78,1.57 -5.62,3.09 -8.49,4.53 v -2.58 c 2.48,-1.26 4.94,-2.59 7.35,-3.94 z"
       inkscape:connector-curvature="0"
       style="fill:#e6e6e6" />
    <path
       id="path4194"
       transform="translate(-94.55416,-86.35794)"
       d="m 418.83559,333.46366 2.29863,-0.0418 c 0.0422,2.3211 0.0454,4.6545 0.009,6.93606 l -2.29844,-0.0359 c 0.035,-2.2556 0.0319,-4.56313 -0.01,-6.85839 z"
       inkscape:connector-curvature="0"
       style="fill:#e6e6e6" />
    <path
       id="path4196"
       d="m 226.21644,301.63184 h 235.21009 a 65.99993,65.99993 0 0 1 65.99993,65.99993 v 8.73639 H 292.21638 a 65.99993,65.99993 0 0 1 -65.99993,-65.99993 v -8.73639 z"
       inkscape:connector-curvature="0"
       style="fill:#ffffff" />
    <path
       id="path4210"
       d="m 483.71524,706 c 0,0 -13,-32 26,-56 z"
       inkscape:connector-curvature="0"
       style="fill:#f2f2f2" />
    <path
       id="path4212"
       d="m 483.71524,706 c 0,0 -5.91642,-34.02934 -51.7085,-33.73768 z"
       inkscape:connector-curvature="0"
       style="fill:#f2f2f2" />
    <path
       id="path4222"
       transform="translate(-94.55416,-86.35794)"
       d="m 790.66145,139.658 c 0,0 -22.302,-19.99486 -52.29427,17.68777 -29.99227,37.68263 -76.90334,56.13944 -87.66981,70.75107 0,0 44.60394,-18.4568 59.98461,-26.14713 15.38067,-7.69033 14.61163,-6.15227 14.61163,-6.15227 0,0 -20.7639,14.61163 -24.60907,29.22327 -3.84517,14.61164 -0.769,26.91616 -7.69033,41.5278 -6.92133,14.61164 132.27379,9.99749 132.27379,9.99749 0,0 13.8426,-23.84 9.99743,-48.4491 -3.84517,-24.6091 -1.53811,-85.36274 -44.60398,-88.4389 z"
       inkscape:connector-curvature="0"
       style="fill:#2f2e41" />
    <path
       id="path4224"
       transform="translate(-94.55416,-86.35794)"
       d="m 748.47878,202.56005 c 0,0 4.84954,33.94676 -15.93419,41.56746 -20.78373,7.6207 -13.163,18.01256 -13.163,18.01256 l 31.1756,15.2414 33.254,-10.39186 11.08466,-16.627 c 0,0 -18.01257,-4.15674 -13.163,-16.627 4.84957,-12.47026 6.23512,-16.627 6.23512,-16.627 z"
       inkscape:connector-curvature="0"
       style="fill:#ffb9b9" />
    <path
       id="path4226"
       transform="translate(-94.55416,-86.35794)"
       d="m 748.47878,202.56005 c 0,0 4.84954,33.94676 -15.93419,41.56746 -20.78373,7.6207 -13.163,18.01256 -13.163,18.01256 l 31.1756,15.2414 33.254,-10.39186 11.08466,-16.627 c 0,0 -18.01257,-4.15674 -13.163,-16.627 4.84957,-12.47026 6.23512,-16.627 6.23512,-16.627 z"
       inkscape:connector-curvature="0"
       style="opacity:0.1" />
    <path
       id="path4228"
       transform="translate(-94.55416,-86.35794)"
       d="m 835.77045,299.55078 c 0,0 -4.84954,63.73677 -3.464,66.50794 1.38554,2.77117 0,99.06911 0,99.06911 0,0 9.69907,51.95932 -2.77116,54.73048 -12.47023,2.77116 -9.69908,-58.19444 -9.69908,-58.19444 l -12.47021,-80.36375 1.38558,-79.671 z"
       inkscape:connector-curvature="0"
       style="fill:#ffb9b9" />
    <path
       id="path4230"
       transform="translate(-94.55416,-86.35794)"
       d="m 835.77045,299.55078 c 0,0 -4.84954,63.73677 -3.464,66.50794 1.38554,2.77117 0,99.06911 0,99.06911 0,0 9.69907,51.95932 -2.77116,54.73048 -12.47023,2.77116 -9.69908,-58.19444 -9.69908,-58.19444 l -12.47021,-80.36375 1.38558,-79.671 z"
       inkscape:connector-curvature="0"
       style="opacity:0.1" />
    <path
       id="path4232"
       transform="translate(-94.55416,-86.35794)"
       d="m 700.67621,491.45388 c 0,0 -22.86211,86.59888 -22.16932,128.85912 0.69279,42.26024 9.69911,101.14749 9.69911,101.14749 0,0 1.38558,25.63326 -0.69279,28.40443 -2.07837,2.77117 10.39179,14.54861 10.39179,14.54861 l 13.163,-7.6207 4.84954,-5.54233 v -4.8495 c 0,0 -7.6207,-23.55489 -1.38558,-42.26025 6.23512,-18.70536 9.69907,-65.81514 3.464,-80.36375 l 42.953,-127.47354 z"
       inkscape:connector-curvature="0"
       style="fill:#ffb9b9" />
    <path
       id="path4234"
       transform="translate(-94.55416,-86.35794)"
       d="m 699.29062,753.32887 c 0,0 -8.31349,-10.39187 -13.85582,-6.92787 -5.54233,3.464 -14.54861,27.01885 -14.54861,27.01885 0,0 -31.17559,29.79 -9.00628,31.17559 22.16931,1.38559 31.86839,-6.23511 34.63955,-11.77744 2.77116,-5.54233 28.40443,-20.091 28.40443,-20.091 0,0 -2.77116,-26.32606 -6.92791,-27.01885 C 713.83923,745.01536 707.60412,756.1 707.60412,756.1 Z"
       inkscape:connector-curvature="0"
       style="fill:#2f2e41" />
    <path
       id="path4236"
       transform="translate(-94.55416,-86.35794)"
       d="m 776.19042,496.99621 v 85.90608 a 265.61649,265.61649 0 0 0 2.07837,31.1756 c 2.07838,15.2414 -11.77744,128.85912 -11.77744,128.85912 l 1.38558,20.09094 17.31977,-1.38559 2.07838,-17.31977 24.94047,-76.207 c 0,0 8.31349,-46.417 4.15675,-63.73677 -4.15674,-17.31977 21.47652,-128.16633 21.47652,-128.16633 z"
       inkscape:connector-curvature="0"
       style="fill:#ffb9b9" />
    <path
       id="path4238"
       transform="translate(-94.55416,-86.35794)"
       d="m 762.3346,758.17841 5.13095,-1.1155 c 0,0 3.87534,-8.58357 8.72487,-6.5052 a 52.29963,52.29963 0 0 1 9.64308,5.778 l 2.13437,3.921 c 0,0 4.84954,10.39187 11.08465,17.31978 6.23511,6.92791 13.163,22.16931 2.77117,23.55489 -10.39183,1.38558 -24.24769,2.07837 -28.40443,-1.38558 -4.15674,-3.46395 -1.38558,-9.00628 -5.54233,-10.39187 -4.15675,-1.38559 -7.6207,-5.54232 -6.92791,-6.92791 0.69279,-1.38559 1.38558,-24.24761 1.38558,-24.24761 z"
       inkscape:connector-curvature="0"
       style="fill:#2f2e41" />
    <circle
       id="circle4240"
       r="30.790199"
       cy="109.2742"
       cx="681.63623"
       style="fill:#ffb9b9" />
    <path
       id="path4242"
       transform="translate(-94.55416,-86.35794)"
       d="m 717.996,249.66983 9.15108,-3.19485 c 0,0 -3.60875,5.966 15.7894,9.43 19.39815,3.464 39.48715,4.69031 48.4944,-6.66113 0,0 3.46492,-1.65236 8.31446,3.19718 4.84954,4.84954 7.6207,3.464 7.6207,3.464 l -3.464,18.01257 -6.92791,33.254 -9.00626,24.9404 -25.63327,-5.54233 -27.7116,-20.09098 -10.3919,-27.01884 v -24.94048 z"
       inkscape:connector-curvature="0"
       style="fill:#ff3985" />
    <path
       id="path4244"
       transform="translate(-94.55416,-86.35794)"
       d="m 802.51648,259.36891 6.92791,-4.84954 c 0,0 23.55489,4.15675 24.94047,15.2414 l -18.01256,34.63955 a 39.43662,39.43662 0 0 1 -0.69279,29.79 c -6.92791,15.9342 -6.23512,19.39815 -6.23512,19.39815 l -4.84954,20.78373 -87.98445,6.92791 c 0,0 -3.464,-8.31349 -4.84954,-9.69907 -1.38554,-1.38558 -1.38558,-6.23512 0,-6.23512 1.38558,0 0,-2.07838 -1.38558,-4.15675 -1.38558,-2.07837 -2.07837,-2.77116 0,-5.54233 2.07837,-2.77117 -3.464,-27.71164 -3.464,-27.71164 v -27.01883 l -23.55489,-31.1756 c 0,0 8.31349,-12.47024 12.47024,-13.85582 4.15675,-1.38558 23.93018,-6.84988 23.93018,-6.84988 l 4.47425,6.588 6.23512,50.14279 9.00628,30.48281 37.921,-6.4431 14.73113,-24.7325 9.69908,-29.09722 z"
       inkscape:connector-curvature="0"
       style="fill:#ff3985" />
    <path
       id="path4246"
       transform="translate(-94.55416,-86.35794)"
       d="m 828.84254,265.604 5.54232,4.15674 c 0,0 4.84954,38.7963 3.464,41.56746 -1.38554,2.77116 -25.63327,5.54233 -26.32606,4.15675 -0.69279,-1.38558 17.31974,-49.88095 17.31974,-49.88095 z"
       inkscape:connector-curvature="0"
       style="fill:#ff3985" />
    <path
       id="path4248"
       transform="translate(-94.55416,-86.35794)"
       d="m 714.532,246.20588 6.9279,45.7242 c 0,0 -6.23511,67.89352 -4.84953,81.74934 l 1.38558,4.15674 c 0,0 -2.77116,-1.38558 -3.464,1.38559 -0.69284,2.77117 0,11.77744 0,11.77744 0,0 -4.15675,4.15675 -5.54233,27.01885 -1.38558,22.8621 -18.01257,77.59259 -11.77745,79.671 6.23512,2.07841 43.64583,12.47024 63.73677,10.39187 20.09094,-2.07837 92.1412,-26.32606 91.44841,-32.56118 -0.69279,-6.23512 -35.33234,-94.21957 -35.33234,-94.21957 0,0 -6.23501,-10.39191 -6.23501,-11.77749 0,-1.38558 8.31349,-6.92791 6.23512,-12.47024 -2.07837,-5.54233 -13.163,-63.73676 -13.163,-63.73676 l 7.6207,-41.56746 -10.39192,-2.77121 -7.6207,40.18188 c 0,0 -29.79,14.54861 -60.96561,1.38558 l -6.92791,-47.10979 z"
       inkscape:connector-curvature="0"
       style="fill:#2f2e41" />
    <path
       id="path4250"
       transform="translate(-94.55416,-86.35794)"
       d="m 747.86436,173.53492 c 0,0 51.26654,35.33234 65.12236,19.39814 13.85582,-15.9342 -24.24769,-29.79 -24.24769,-29.79 l -31.86838,-3.46395 z"
       inkscape:connector-curvature="0"
       style="fill:#2f2e41" />
    <path
       id="path4252"
       transform="translate(-94.55416,-86.35794)"
       d="m 668.20911,549.39967 a 27.02739,27.02739 0 1 0 -8.47865,-10.5236 l -70.70677,58.87193 -9.41452,-11.17356 -4.22986,2.82912 -4.70726,-5.58677 3.86777,-3.25888 -4.70726,-5.58677 -6.01653,5.06935 2.89678,3.438 -6.44629,5.43151 -2.89677,-3.438 -9.45454,7.96613 4.34516,5.157 3.438,-2.89678 4.70726,5.58678 -4.29752,3.621 8.69032,10.31405 -10.31405,8.69032 10.50081,12.46281 z m 17.65411,-39.492 a 17.88151,17.88151 0 1 1 -19.33884,16.29433 17.88156,17.88156 0 0 1 19.33884,-16.29437 z"
       inkscape:connector-curvature="0"
       style="fill:#ff3985" />
    <path
       id="path4254"
       transform="translate(-94.55416,-86.35794)"
       d="m 678.50689,307.86428 c 0,0 4.84954,63.73677 3.464,66.50793 -1.38554,2.77116 0,99.06911 0,99.06911 0,0 -9.69907,51.95932 2.77116,54.73049 12.47023,2.77117 9.69908,-58.19445 9.69908,-58.19445 l 12.47023,-80.36375 -1.38558,-79.671 z"
       inkscape:connector-curvature="0"
       style="fill:#ffb9b9" />
    <path
       id="path4256"
       transform="translate(-94.55416,-86.35794)"
       d="m 688.89876,267.6824 -5.54233,2.07837 c 0,0 -10.39186,43.64583 -7.6207,43.64583 2.77116,0 36.02513,4.15675 36.02513,2.77117 0,-1.38558 -6.23512,-35.33234 -6.23512,-35.33234 z"
       inkscape:connector-curvature="0"
       style="fill:#ff3985" />
  </g>
  <path
     d="m 520.01569,413.98645 a 1.4366884,1.4366884 0 0 1 -1.83065,-1.68805 c 0.83589,-3.47755 4.01437,-11.98194 15.59362,-15.55889 5.01573,-1.54939 9.82585,-1.57584 14.2909,-0.0792 3.67322,1.22616 6.11171,3.14494 7.27815,4.07236 a 1.4248553,1.4248553 0 0 1 0.23338,2.00149 q -0.004,0.005 -0.009,0.011 a 1.4584105,1.4584105 0 0 1 -2.03204,0.23067 c -2.11332,-1.6651 -8.52644,-6.72367 -18.92035,-3.51289 -10.149,3.13511 -12.90587,10.46834 -13.62093,13.4686 a 1.4153191,1.4153191 0 0 1 -0.98332,1.05494 z"
     id="path3273-0"
     inkscape:connector-curvature="0"
     style="fill:#ff3985;stroke-width:0.11571571" />
  <path
     d="m 551.57601,433.68344 a 1.4286693,1.4286693 0 0 1 -0.35498,0.0668 c -9.04609,0.48722 -14.80158,-7.02803 -15.03787,-7.34135 l -0.0438,-0.0723 c -0.14423,-0.22373 -3.62675,-5.52225 -2.09362,-9.73028 0.70419,-1.92378 2.26159,-3.2741 4.64211,-4.00947 2.21396,-0.68391 4.02563,-0.48163 5.56766,0.6195 1.26441,0.89714 2.07475,2.23503 2.86016,3.52697 1.63349,2.68255 2.63458,4.04736 5.73946,3.25993 1.36327,-0.34601 1.99982,-1.41187 2.29063,-2.24215 0.78297,-2.25931 0.0891,-5.33942 -1.74684,-7.66971 -2.37187,-3.0232 -9.00957,-8.04459 -17.19931,-5.51471 -3.4973,1.08035 -6.35945,3.2093 -8.27618,6.14079 -1.58787,2.43284 -2.51095,5.45444 -2.53119,8.27225 -0.0319,5.24663 4.26807,12.14914 4.30884,12.21167 a 1.4221707,1.4221707 0 0 1 -0.45195,1.95982 q -0.007,0.004 -0.0133,0.008 a 1.4561911,1.4561911 0 0 1 -1.99436,-0.44632 c -0.19409,-0.31563 -4.78551,-7.67538 -4.74851,-13.73917 0.0515,-6.57265 4.04558,-14.41683 12.86227,-17.1404 4.07528,-1.25888 8.35798,-1.04729 12.38825,0.60513 3.12376,1.28858 6.01478,3.42171 7.92617,5.85745 2.44132,3.10906 3.30142,7.17876 2.19005,10.35509 -0.74092,2.11755 -2.27483,3.57865 -4.31335,4.10106 -5.31294,1.35147 -7.39426,-2.05123 -8.91219,-4.53338 -1.55873,-2.54469 -2.42091,-3.73778 -5.11491,-2.90559 -1.47925,0.45695 -2.39056,1.18918 -2.77383,2.24119 -0.52156,1.4381 -0.0273,3.28141 0.47923,4.57366 q 0.008,0.0203 0.0158,0.0404 a 11.681069,11.681069 0 0 0 2.96385,4.3107 c 2.08428,1.92477 5.95369,4.66878 10.88537,4.40419 a 1.424301,1.424301 0 0 1 1.50986,1.33325 q 4.8e-4,0.007 0.001,0.0136 a 1.4555731,1.4555731 0 0 1 -1.02436,1.4432 z"
     id="path3275-5"
     inkscape:connector-curvature="0"
     style="fill:#ff3985;stroke-width:0.11571571" />
  <path
     d="m 540.60637,436.38527 a 1.4598165,1.4598165 0 0 1 -1.14217,-0.11934 c -4.46168,-2.52789 -7.59381,-5.92791 -9.84927,-10.69334 l -0.009,-0.0294 c -1.42148,-3.17729 -2.27718,-8.03171 -0.38965,-12.13461 1.39348,-3.02738 4.00913,-5.15532 7.76113,-6.31435 4.43774,-1.37085 8.56981,-0.36155 11.96112,2.90476 a 17.724231,17.724231 0 0 1 3.70106,5.24176 1.4483514,1.4483514 0 0 1 -2.66502,1.13444 14.84178,14.84178 0 0 0 -3.1204,-4.36946 c -2.614,-2.48697 -5.65273,-3.22233 -9.04226,-2.17528 -2.92911,0.90482 -4.94606,2.50441 -5.97856,4.75497 -1.48897,3.23932 -0.72236,7.28424 0.39003,9.77364 1.98874,4.21467 4.74728,7.20428 8.67415,9.42519 a 1.4181322,1.4181322 0 0 1 0.53861,1.93188 q -0.005,0.01 -0.011,0.0192 a 1.454386,1.454386 0 0 1 -0.81867,0.64995 z"
     id="path3277-3"
     inkscape:connector-curvature="0"
     style="fill:#ff3985;stroke-width:0.11571571" />
  <circle
     cx="541.07623"
     cy="420.29367"
     r="1.845556"
     id="circle3279-5"
     style="fill:#e6e6e6;stroke-width:0.11571571" />
</svg>
