<?xml version="1.0" encoding="UTF-8" standalone="no"?>
<!-- Created with Inkscape (http://www.inkscape.org/) -->

<svg
   xmlns:dc="http://purl.org/dc/elements/1.1/"
   xmlns:cc="http://creativecommons.org/ns#"
   xmlns:rdf="http://www.w3.org/1999/02/22-rdf-syntax-ns#"
   xmlns:svg="http://www.w3.org/2000/svg"
   xmlns="http://www.w3.org/2000/svg"
   xmlns:xlink="http://www.w3.org/1999/xlink"
   xmlns:sodipodi="http://sodipodi.sourceforge.net/DTD/sodipodi-0.dtd"
   xmlns:inkscape="http://www.inkscape.org/namespaces/inkscape"
   width="180mm"
   height="95mm"
   viewBox="0 0 180 95"
   version="1.1"
   id="svg8"
   inkscape:version="0.92.5 (2060ec1f9f, 2020-04-08)"
   sodipodi:docname="undraw_finance_0bdk.svg">
  <defs
     id="defs2">
    <linearGradient
       gradientUnits="userSpaceOnUse"
       y2="230.62"
       x2="569.11"
       y1="596.37"
       x1="569.11"
       id="6beaf3f8-3e45-4d0f-940e-4f825d2ab248">
      <stop
         id="stop1109"
         stop-opacity="0.25"
         stop-color="gray"
         offset="0" />
      <stop
         id="stop1111"
         stop-opacity="0.12"
         stop-color="gray"
         offset="0.54" />
      <stop
         id="stop1113"
         stop-opacity="0.1"
         stop-color="gray"
         offset="1" />
    </linearGradient>
    <linearGradient
       xlink:href="#6beaf3f8-3e45-4d0f-940e-4f825d2ab248"
       y2="175.07"
       x2="878.33"
       y1="643.77"
       x1="878.33"
       id="618658e0-5682-4211-900b-639feb09c488"
       gradientTransform="matrix(0.60656492,0,0,0.60656492,149.67951,-54.159148)" />
    <linearGradient
       inkscape:collect="always"
       xlink:href="#6beaf3f8-3e45-4d0f-940e-4f825d2ab248"
       id="linearGradient1596"
       gradientUnits="userSpaceOnUse"
       x1="569.11"
       y1="596.37"
       x2="569.11"
       y2="230.62"
       gradientTransform="matrix(0.60656492,0,0,0.60656492,149.67951,-54.159148)" />
  </defs>
  <sodipodi:namedview
     id="base"
     pagecolor="#ffffff"
     bordercolor="#666666"
     borderopacity="1.0"
     inkscape:pageopacity="0.0"
     inkscape:pageshadow="2"
     inkscape:zoom="0.7"
     inkscape:cx="125.44861"
     inkscape:cy="-216.32196"
     inkscape:document-units="mm"
     inkscape:current-layer="g1594"
     showgrid="false"
     inkscape:window-width="2560"
     inkscape:window-height="1377"
     inkscape:window-x="1072"
     inkscape:window-y="476"
     inkscape:window-maximized="1" />
  <metadata
     id="metadata5">
    <rdf:RDF>
      <cc:Work
         rdf:about="">
        <dc:format>image/svg+xml</dc:format>
        <dc:type
           rdf:resource="http://purl.org/dc/dcmitype/StillImage" />
        <dc:title></dc:title>
      </cc:Work>
    </rdf:RDF>
  </metadata>
  <g
     inkscape:label="Layer 1"
     inkscape:groupmode="layer"
     id="layer1"
     transform="translate(0,-202)">
    <g
       id="g922"
       transform="matrix(0.26458333,0,0,0.26458333,-40.991517,17.382658)">
      <g
         id="g1107"
         transform="matrix(0.59944468,0,0,0.59944468,36.641231,731.21792)">
        <g
           id="g1594"
           transform="matrix(1.6682107,0,0,1.6682107,-92.876334,-110.95838)">
          <path
             id="path1367"
             d="m 367.88518,270.46227 c -34.98667,-12.08884 -74.98962,-22.32159 -107.67741,-4.94957 -4.14284,2.20183 -8.22502,4.97383 -10.45718,9.09847 -5.89581,10.85145 3.47562,24.92375 -1.09181,36.39389 -4.56744,11.47015 -21.75749,17.24464 -20.35025,29.49726 0.37,3.20266 2.10477,6.10204 4.1489,8.60108 12.80458,15.64332 36.27865,17.22645 56.11938,13.34443 19.84074,-3.88201 39.24475,-11.93113 59.44336,-10.91817 19.41009,1.00084 37.26735,10.31161 55.05184,18.14843 29.9825,13.24738 64.99949,22.75225 94.95774,9.43815 13.72656,-6.10205 25.07539,-16.4925 38.21359,-23.74702 a 94.053954,94.053954 0 0 1 58.04825,-10.65128 c 13.34443,1.88036 26.0823,6.61156 39.14164,9.87488 29.66102,7.40616 60.6201,7.16354 91.18491,6.87238 5.68957,-0.0546 11.47014,-0.12131 16.92316,-1.74691 8.07338,-2.42626 14.73346,-8.01272 21.14485,-13.47787 8.42519,-7.17566 17.29923,-15.06101 20.01664,-25.79114 3.20873,-12.73786 -3.43316,-26.27639 -13.28377,-34.93208 -9.85062,-8.65567 -22.4429,-13.38688 -34.7319,-17.94825 -3.03283,-1.11608 -6.27189,-2.25035 -9.3775,-1.40723 -2.03806,0.55804 -3.75464,1.91675 -5.27712,3.37856 -8.7224,8.39487 -16.09217,22.59455 -27.9869,20.31387 -4.24596,-0.8128 -7.72157,-3.76677 -11.08194,-6.49631 -17.94219,-14.55756 -42.07741,-25.79721 -63.73178,-17.75416 -15.83741,5.88368 -27.0164,20.99322 -43.06611,26.32492 -11.41555,3.79709 -23.8198,2.15331 -35.82979,2.89331 -17.46907,1.06756 -34.47108,7.24239 -51.96441,6.86631 -44.60679,-0.95837 -81.77102,-43.61201 -126.19583,-39.54803 -3.48169,0.31542 -7.27878,1.11609 -9.41389,3.86989"
             inkscape:connector-curvature="0"
             style="opacity:0.5;fill:#ff3985;stroke-width:0.60656488" />
          <path
             id="path1369"
             d="m 311.63235,229.88914 c 0,0 -37.06719,22.37618 31.28661,56.84119 0,0 15.06101,-27.96263 -1.5892,-50.76341 a 22.442902,22.442902 0 0 0 -29.11512,-6.38106 z"
             inkscape:connector-curvature="0"
             style="fill:#ff3985;stroke-width:0.60656488" />
          <path
             id="path1371"
             stroke-miterlimit="10"
             d="m 312.07514,229.42208 c 0,0 31.73548,24.2626 30.84989,57.29006"
             inkscape:connector-curvature="0"
             style="fill:none;stroke:#535461;stroke-width:0.60656488;stroke-miterlimit:10" />
          <path
             id="path1373"
             d="m 780.59801,211.2494 c 7.50927,27.45919 -24.52342,105.68787 -24.52342,105.68787 0,0 -67.4015,-51.0303 -74.91683,-78.4895 a 51.558018,51.558018 0 1 1 99.43419,-27.20444 z"
             inkscape:connector-curvature="0"
             style="fill:#ff3985;stroke-width:0.60656488" />
          <path
             id="path1375"
             d="m 780.59801,211.2494 c 7.50927,27.45919 -24.52342,105.68787 -24.52342,105.68787 0,0 -67.4015,-51.0303 -74.91683,-78.4895 a 51.558018,51.558018 0 1 1 99.43419,-27.20444 z"
             inkscape:connector-curvature="0"
             style="opacity:0.1;stroke-width:0.60656488" />
          <path
             id="path1377"
             stroke-miterlimit="10"
             d="m 717.55166,175.28617 c 0,0 41.95609,63.3375 38.82015,141.80274"
             inkscape:connector-curvature="0"
             style="fill:none;stroke:#535461;stroke-width:0.60656488;stroke-miterlimit:10" />
          <path
             id="path1379"
             d="m 791.30389,261.43658 c 0,0 -38.04376,-20.69599 -33.22764,55.70086 0,0 31.73549,-1.13428 42.9994,-27.02247 a 22.442902,22.442902 0 0 0 -9.21373,-28.35691 z"
             inkscape:connector-curvature="0"
             style="fill:#ff3985;stroke-width:0.60656488" />
          <path
             id="path1381"
             stroke-miterlimit="10"
             d="m 791.92865,261.57002 c 0,0 -4.91318,39.65722 -33.8524,55.56742"
             inkscape:connector-curvature="0"
             style="fill:none;stroke:#535461;stroke-width:0.60656488;stroke-miterlimit:10" />
          <path
             id="path1383"
             d="m 234.33171,252.92041 c 0,0 -37.08538,22.37011 31.27449,56.81694 0,0 15.06101,-27.96265 -1.5892,-50.76342 a 22.442902,22.442902 0 0 0 -29.11512,-6.38107 z"
             inkscape:connector-curvature="0"
             style="fill:#ff3985;stroke-width:0.60656488" />
          <path
             id="path1385"
             stroke-miterlimit="10"
             d="m 234.75631,252.45335 c 0,0 31.73547,24.2626 30.84989,57.29006"
             inkscape:connector-curvature="0"
             style="fill:none;stroke:#535461;stroke-width:0.60656488;stroke-miterlimit:10" />
          <path
             id="path1387"
             d="m 697.0619,282.04159 h -38.9718 a 12.99262,12.99262 0 0 0 1.3587,-5.80482 V 98.780131 A 13.047212,13.047212 0 0 0 646.40159,85.732921 H 344.73866 a 13.047212,13.047212 0 0 0 -13.04721,13.04721 V 276.24283 a 12.99262,12.99262 0 0 0 1.35871,5.80483 h -40.34871 a 3.4513544,3.4513544 0 0 0 -3.45135,3.46954 v 2.78414 a 19.300895,19.300895 0 0 0 19.3009,19.3009 h 372.66135 a 19.300895,19.300895 0 0 0 19.3009,-19.3009 v -2.78414 a 3.4513544,3.4513544 0 0 0 -3.45135,-3.47561 z m -240.13299,11.03948 -3.36037,-3.79103 h 82.96595 l -3.70005,3.7971 z"
             inkscape:connector-curvature="0"
             style="fill:url(#linearGradient1596);stroke-width:0.60656488" />
          <rect
             id="rect1389"
             ry="14.108701"
             rx="14.108701"
             height="198.94722"
             width="320.33905"
             y="88.244095"
             x="335.38541"
             style="fill:#535461;stroke-width:0.60656488" />
          <rect
             id="rect1391"
             height="162.52908"
             width="306.17575"
             y="117.24396"
             x="342.13043"
             style="fill:#ffffff;stroke-width:0.60656488" />
          <circle
             id="circle1393"
             cy="103.08067"
             cx="495.22134"
             style="fill:#ffffff;stroke-width:0.60656488"
             r="2.6992137" />
          <path
             id="path1395"
             d="m 542.49095,280.10665 -10.51783,10.79079 h -74.15863 l -9.50487,-10.79079 h -151.0286 a 3.372501,3.372501 0 0 0 -3.3725,3.3725 v 2.71741 a 18.864169,18.864169 0 0 0 18.86417,18.86417 h 364.21797 a 18.864169,18.864169 0 0 0 18.86417,-18.86417 v -2.71741 a 3.372501,3.372501 0 0 0 -3.37251,-3.3725 z"
             inkscape:connector-curvature="0"
             style="fill:#535461;stroke-width:0.60656488" />
          <polyline
             id="polyline1397"
             stroke-miterlimit="10"
             points="258.77 124.19 258.77 352.11 635.67 352.11"
             style="fill:none;stroke:#535461;stroke-width:2;stroke-miterlimit:10"
             transform="matrix(0.60656492,0,0,0.60656492,224.287,52.032171)" />
          <rect
             id="rect1399"
             height="36.418159"
             width="23.60144"
             y="223.79922"
             x="401.47672"
             style="opacity:0.5;fill:#ff3985;stroke-width:0.60656488" />
          <rect
             id="rect1401"
             height="68.790527"
             width="23.60144"
             y="191.42686"
             x="441.94067"
             style="opacity:0.7;fill:#ff3985;stroke-width:0.60656488" />
          <rect
             id="rect1403"
             height="27.565779"
             width="23.60144"
             y="232.64554"
             x="482.40463"
             style="opacity:0.5;fill:#ff3985;stroke-width:0.45389226" />
          <rect
             id="rect1405"
             height="31.056126"
             width="23.60144"
             y="229.16125"
             x="522.86859"
             style="opacity:0.8;fill:#ff3985;stroke-width:0.37891811" />
          <rect
             id="rect1407"
             height="53.310989"
             width="23.60144"
             y="206.90033"
             x="563.33252"
             style="fill:#ff3985;stroke-width:0.42635489" />
          <path
             id="path1421"
             d="m 750.36681,286.01459 c -2.48691,-0.81886 -6.17483,-1.7651 -9.09847,-1.4315 -2.78413,-1.01296 -9.32897,-3.63939 -13.79935,-7.59419 a 99.519109,99.519109 0 0 0 -0.29722,-11.65818 c -2.28675,-26.00343 2.85693,-43.14495 2.85693,-43.14495 0,0 4.03972,-13.07755 3.59692,-23.92899 0.26082,0.49131 0.4064,0.78247 0.4064,0.78247 0.35181,-9.3593 3.54234,-19.04614 5.93221,-25.08146 a 2.0137955,2.0137955 0 0 0 0.26689,-0.0971 l 2.66889,-6.33253 a 5.4954782,5.4954782 0 0 0 0.50344,-1.17067 l 0.43067,-1.00083 -0.12739,-0.0546 c 0.0425,-0.16377 0.0849,-0.33967 0.12739,-0.51557 v 0 c 1.70444,-7.21207 3.03282,-24.3172 3.03282,-24.3172 4.57349,-18.00284 -6.28401,-29.11511 -6.28401,-29.11511 L 722.15549,95.498571 a 2.3352749,2.3352749 0 0 1 0.18196,0.64903 l -0.15164,-0.13345 c -0.26082,-0.74608 -0.54591,-1.63772 -0.82493,-2.65675 a 14.011649,14.011649 0 0 0 1.8197,-1.55888 14.15116,14.15116 0 0 0 4.1307,-7.36976 27.944446,27.944446 0 0 0 0.27296,-6.67221 l -0.30329,-7.64879 a 24.262596,24.262596 0 0 0 -0.45492,-4.45825 c -1.38903,-6.06565 -7.60632,-10.3116 -13.84788,-10.59062 a 50.617842,50.617842 0 0 0 -5.94433,0.31541 39.990825,39.990825 0 0 1 -4.85252,0.10312 0.87345347,0.87345347 0 0 1 -0.52165,-0.13951 0.76427179,0.76427179 0 0 1 -0.22442,-0.52771 2.6324918,2.6324918 0 0 1 0.64295,-1.97134 2.4262596,2.4262596 0 0 1 0.83706,-0.47919 l -0.44279,0.10312 a 2.4262596,2.4262596 0 0 1 0.72788,-0.39427 14.126897,14.126897 0 0 0 -4.59777,1.66806 5.9382705,5.9382705 0 0 0 -1.07361,0.90378 4.6887468,4.6887468 0 0 0 -1.55281,2.88724 5.3741652,5.3741652 0 0 1 -1.63773,-2.42626 2.4262596,2.4262596 0 0 1 0,-1.17673 q -0.16377,0.20017 -0.31541,0.41246 c 0,-0.0425 0,-0.0849 0,-0.12737 a 12.264742,12.264742 0 0 0 -2.42626,4.93744 1.9228108,1.9228108 0 0 1 -0.43673,-1.41937 c -0.091,0.28509 -0.1759,0.57018 -0.25475,0.85526 a 1.9774016,1.9774016 0 0 1 0,-0.57017 19.537456,19.537456 0 0 0 -0.95231,6.7814 c 0,2.29281 1.01903,5.86548 3.47562,6.67221 0.12737,0.0425 0.25476,0.0728 0.3882,0.10312 a 15.424946,15.424946 0 0 0 10.40259,23.55897 q 0.0606,0.41853 0.11524,0.87953 h 0.0971 c 0.0667,0.60656 0.12131,1.27378 0.1577,1.95314 a 13.144262,13.144262 0 0 1 -2.02592,1.62558 16.704798,16.704798 0 0 1 -6.74501,2.232169 20.077298,20.077298 0 0 0 -8.10977,2.42625 c -2.94184,1.6438 -6.18696,4.03973 -7.20599,6.95124 -1.69838,4.85252 -11.05162,12.40425 -17.3235,13.34443 l -2.23215,-0.12738 -0.16378,-0.0485 v 0.0425 l -0.5459,-0.0303 h -0.0303 -0.14558 v 0.0303 l -0.5641,-0.0303 c 0,0 -0.0546,0.26082 -0.13344,0.72182 -3.15414,-1.08576 -9.85669,-4.09432 -18.57909,-12.00999 -9.70503,-8.81339 -22.83717,-7.07862 -27.90198,-5.9686 a 0.86738782,0.86738782 0 0 0 -0.23049,1.6074 c 2.04412,1.12214 5.21038,2.7538 6.67221,2.93577 0,0 -3.03282,3.17233 0.1941,4.85252 a 2.3413405,2.3413405 0 0 0 2.42626,-0.23656 c 1.56493,-1.14641 5.914,1.44969 12.21622,2.80233 0,0 17.78448,18.40318 26.61607,21.22977 a 12.695404,12.695404 0 0 0 0.67328,1.17067 l 0.54591,-0.0425 v 0.0425 h 0.23049 l 0.0668,0.60657 c 0,0 13.73263,-0.72182 18.19694,-5.70778 a 7.1514004,7.1514004 0 0 0 0.86739,-0.92804 l -4.77366,60.04992 h 0.0425 l -0.0425,0.57017 h 3.51201 a 132.38279,132.38279 0 0 1 -0.9523,22.11536 v 39.1477 c 0,0 -0.18198,3.44529 6.97549,8.49191 a 267.53153,267.53153 0 0 1 21.6665,16.79578 l 0.86738,0.75214 c -1.31624,11.97966 -4.07004,34.30731 -6.36892,35.13831 l 1.41936,0.24869 c -2.42626,3.07528 -9.31684,11.52474 -11.41556,11.74917 -2.57183,0.28508 -4.28841,4.28841 0,5.14366 a 48.046007,48.046007 0 0 0 25.47573,-2.51117 3.8880811,3.8880811 0 0 0 2.42626,-4.13678 l -0.83099,-6.30827 a 0.88558477,0.88558477 0 0 1 0.36393,0.38213 c 0.57018,1.71658 0,-2.28675 0,-2.28675 a 178.77288,178.77288 0 0 0 5.52581,-23.04946 l 8.49191,7.33943 c 0,0 0.16984,-0.2123 0.46706,-0.60657 2.08051,4.71908 5.79269,14.3756 4.96169,21.44814 -1.14033,9.70504 9.70504,1.14034 8.57077,-4.5735 -0.92198,-4.62203 3.20267,-24.21407 4.81006,-31.54137 a 3.2572536,3.2572536 0 0 0 -2.18364,-3.7971 z"
             inkscape:connector-curvature="0"
             style="fill:url(#618658e0-5682-4211-900b-639feb09c488);stroke-width:0.60656488" />
          <path
             id="path1423"
             d="m 661.6203,127.50098 c 0,0 -8.09157,-1.3951 -20.08943,-12.27687 -9.49274,-8.60716 -22.29732,-6.91484 -27.23476,-5.8291 a 0.84312522,0.84312522 0 0 0 -0.22443,1.56495 c 1.9956,1.09181 5.08908,2.68708 6.53877,2.86905 0,0 -2.99037,3.09348 0.18804,4.7494 a 2.2867497,2.2867497 0 0 0 2.38986,-0.23049 c 1.52854,-1.11608 5.7745,1.41936 11.93113,2.73561 0,0 23.99571,24.83276 29.57611,20.6232 z"
             inkscape:connector-curvature="0"
             style="fill:#fec3be;stroke-width:0.60656488" />
          <path
             id="path1425"
             d="m 702.93344,93.739581 c 0,0 2.23216,9.486669 0,16.183149 l 10.04471,1.3951 8.92864,-4.46432 v -5.85941 c 0,0 -4.18529,-8.928649 -3.06922,-19.252379 z"
             inkscape:connector-curvature="0"
             style="fill:#fec3be;stroke-width:0.60656488" />
          <path
             id="path1427"
             d="m 731.37527,299.36508 c 0,0 7.27878,14.23001 6.13844,23.71669 -1.14035,9.48668 9.48667,1.11608 8.37059,-4.46432 -0.90378,-4.51284 3.12381,-23.65603 4.69482,-30.7771 a 3.1784002,3.1784002 0 0 0 -2.11085,-3.70611 c -3.35431,-1.10395 -8.9711,-2.45659 -11.79163,-0.3882 -4.1671,3.06315 -5.30137,15.61904 -5.30137,15.61904 z"
             inkscape:connector-curvature="0"
             style="fill:#8b416f;stroke-width:0.60656488" />
          <path
             id="path1429"
             d="m 703.7705,314.9902 c 0,0 -9.48668,12.27687 -11.99786,12.55589 -2.51118,0.27902 -4.18529,4.1853 0,5.02236 a 46.911731,46.911731 0 0 0 24.86916,-2.42626 3.7970964,3.7970964 0 0 0 2.38381,-4.03973 l -1.60133,-11.94932 z"
             inkscape:connector-curvature="0"
             style="fill:#8b416f;stroke-width:0.60656488" />
          <path
             id="path1431"
             d="m 688.14539,184.69398 -9.09848,1.21313 a 133.1592,133.1592 0 0 1 -0.10918,31.98417 v 38.21359 c 0,0 -0.1759,3.36644 6.81173,8.26142 a 261.22931,261.22931 0 0 1 21.15698,16.37725 l 25.31802,21.93338 c 0,0 10.04471,-12.27687 8.64962,-19.53139 0,0 -16.74119,-5.30137 -18.97335,-13.95099 -1.27986,-4.94956 -7.77011,-9.09847 -13.08361,-11.7067 a 16.268071,16.268071 0 0 1 -8.7042,-18.46384 14.236079,14.236079 0 0 1 1.42542,-3.58479 c 4.46431,-7.81256 10.88178,-25.39081 10.88178,-25.39081 l -12.27688,-23.40128 z"
             inkscape:connector-curvature="0"
             style="fill:#4d4981;stroke-width:0.60656488" />
          <path
             id="path1433"
             d="m 688.14539,184.69398 -9.09848,1.21313 a 133.1592,133.1592 0 0 1 -0.10918,31.98417 v 38.21359 c 0,0 -0.1759,3.36644 6.81173,8.26142 a 261.22931,261.22931 0 0 1 21.15698,16.37725 l 25.31802,21.93338 c 0,0 10.04471,-12.27687 8.64962,-19.53139 0,0 -16.74119,-5.30137 -18.97335,-13.95099 -1.27986,-4.94956 -7.77011,-9.09847 -13.08361,-11.7067 a 16.268071,16.268071 0 0 1 -8.7042,-18.46384 14.236079,14.236079 0 0 1 1.42542,-3.58479 c 4.46431,-7.81256 10.88178,-25.39081 10.88178,-25.39081 l -12.27688,-23.40128 z"
             inkscape:connector-curvature="0"
             style="opacity:0.05;stroke-width:0.60656488" />
          <path
             id="path1437"
             d="m 703.47329,100.9941 c 0,0 1.67411,10.3116 18.4153,5.85941 l -11.13652,84.81597 c 0,0 -32.36631,1.11608 -32.08729,-2.79019 l 6.67221,-51.33359 z"
             inkscape:connector-curvature="0"
             style="fill:#ffffff;stroke-width:0.60656488" />
          <path
             id="path1439"
             d="m 703.91001,100.43605 a 13.599185,13.599185 0 0 1 -8.06124,3.82742 19.610244,19.610244 0 0 0 -7.92175,2.35348 c -2.86905,1.6074 -6.06565,3.94268 -7.03615,6.78746 -1.95314,5.5804 -14.23001,14.78805 -19.81041,12.83491 l 1.95314,16.74119 c 0,0 15.90413,-0.83705 18.69433,-6.97549 l -4.73727,59.74058 h 4.1853 c 0,0 2.23216,-16.18315 3.90627,-19.53139 1.67412,-3.34824 5.02236,-21.76355 5.30138,-26.22786 0.27902,-4.46433 4.46432,-30.13415 8.09158,-34.5742 l 5.45908,-13.25345 z"
             inkscape:connector-curvature="0"
             style="opacity:0.1;stroke-width:0.60656488" />
          <path
             id="path1441"
             d="m 703.91001,101.27311 a 17.268903,17.268903 0 0 1 -8.61929,3.5484 19.610244,19.610244 0 0 0 -7.91567,2.36561 c -2.86905,1.6074 -6.06565,3.94267 -7.03615,6.78747 -1.95314,5.58039 -14.23002,14.78805 -19.81042,12.8349 l 1.95314,16.7412 c 0,0 15.90414,-0.83706 18.69434,-6.9755 l -4.74334,59.70419 h 4.1853 c 0,0 2.23215,-16.18316 3.90627,-19.53139 1.67413,-3.34824 5.02236,-21.76355 5.30138,-26.22787 0.27902,-4.46432 4.46432,-30.13414 8.09158,-34.5742 l 5.99286,-13.00475 z"
             inkscape:connector-curvature="0"
             style="opacity:0.1;stroke-width:0.60656488" />
          <path
             id="path1443"
             d="m 703.91001,100.71507 a 17.268903,17.268903 0 0 1 -8.61929,3.5484 19.610244,19.610244 0 0 0 -7.92174,2.35348 c -2.86905,1.6074 -6.06565,3.94268 -7.03615,6.78746 -1.95313,5.5804 -14.23001,14.78805 -19.81041,12.83491 l 1.95314,16.74119 c 0,0 15.90414,-0.83705 18.69433,-6.97549 l -4.73727,59.74058 h 4.1853 c 0,0 2.23215,-16.18315 3.90627,-19.53139 1.67413,-3.34824 5.02236,-21.76355 5.30138,-26.22786 0.27902,-4.46433 4.46432,-30.13415 8.09158,-34.5742 l 5.99892,-12.97443 z"
             inkscape:connector-curvature="0"
             style="fill:#fd6f8d;stroke-width:0.60656488" />
          <path
             id="path1445"
             d="m 718.14002,89.972811 c -0.36394,-2.64463 0.36394,-4.29448 0.69755,-7.39403 l -15.90413,11.99785 c 0,0 0.38213,1.61954 0.67329,3.99121 a 15.164123,15.164123 0 0 0 2.42625,0.19409 c 5.51975,0 9.49275,-4.31267 12.10704,-8.78912 z"
             inkscape:connector-curvature="0"
             style="opacity:0.1;stroke-width:0.60656488" />
          <circle
             id="circle1447"
             cy="82.863861"
             cx="706.00262"
             style="fill:#fec3be;stroke-width:0.60656488"
             r="15.067073" />
          <path
             id="path1449"
             d="m 689.55869,68.094011 a 19.070401,19.070401 0 0 1 1.21313,-7.45468 1.8621543,1.8621543 0 0 0 0.31541,2.42626 11.937197,11.937197 0 0 1 3.78496,-6.70861 c -1.07362,0.1759 -1.6256,1.50428 -1.3587,2.55971 a 5.8230232,5.8230232 0 0 0 1.86215,2.62036 c -0.091,-1.59527 0.96444,-3.08742 2.29888,-3.96088 a 13.793286,13.793286 0 0 1 4.48858,-1.62559 2.6021635,2.6021635 0 0 0 -1.72264,2.66888 0.74607485,0.74607485 0 0 0 0.22442,0.51559 0.85525652,0.85525652 0 0 0 0.50952,0.13344 39.05065,39.05065 0 0 0 4.71301,-0.10311 49.428975,49.428975 0 0 1 5.80483,-0.30935 c 6.06565,0.25476 12.16163,4.39759 13.52033,10.3116 a 23.710623,23.710623 0 0 1 0.4428,4.35513 l 0.29721,7.46682 a 27.295422,27.295422 0 0 1 -0.26689,6.52664 13.82968,13.82968 0 0 1 -7.10288,9.38963 c -2.1897,-3.17234 -2.38379,-7.24846 -3.142,-11.02736 a 5.5803972,5.5803972 0 0 0 -0.94625,-2.42626 2.1290428,2.1290428 0 0 0 -2.33527,-0.78853 c -0.81886,0.32755 -1.17067,1.57707 -0.49132,2.13511 -0.60656,0.71574 -1.74084,0.18197 -2.42626,-0.45492 a 13.029014,13.029014 0 0 1 -3.7789,-6.75107 c -0.27295,-1.29805 -0.5459,-2.89938 -1.81969,-3.34218 a 3.3846323,3.3846323 0 0 0 -1.34657,-0.091 c -2.65676,0.18197 -6.81172,1.27985 -9.38356,0.43672 -2.35954,-0.77033 -3.3543,-4.26415 -3.3543,-6.50237 z"
             inkscape:connector-curvature="0"
             style="opacity:0.1;stroke-width:0.60656488" />
          <path
             id="path1451"
             d="m 689.83771,67.814991 a 19.070401,19.070401 0 0 1 1.21313,-7.45468 1.8621543,1.8621543 0 0 0 0.31541,2.42626 11.937197,11.937197 0 0 1 3.78496,-6.70861 c -1.07362,0.1759 -1.62559,1.50428 -1.3587,2.5597 a 5.8230232,5.8230232 0 0 0 1.86215,2.62037 c -0.091,-1.59527 0.96444,-3.08743 2.29888,-3.96088 a 13.793286,13.793286 0 0 1 4.48858,-1.62559 2.6021635,2.6021635 0 0 0 -1.72264,2.66888 0.74607485,0.74607485 0 0 0 0.22443,0.51559 0.85525652,0.85525652 0 0 0 0.50951,0.13344 39.05065,39.05065 0 0 0 4.71301,-0.10311 49.428975,49.428975 0 0 1 5.80483,-0.30935 c 6.06565,0.25476 12.16163,4.3976 13.52033,10.3116 a 23.710623,23.710623 0 0 1 0.44279,4.35513 l 0.29722,7.46682 a 27.295422,27.295422 0 0 1 -0.26689,6.52664 13.82968,13.82968 0 0 1 -7.10287,9.38963 c -2.18971,-3.17234 -2.38381,-7.24846 -3.14201,-11.02736 a 5.5803972,5.5803972 0 0 0 -0.94624,-2.42626 2.1290428,2.1290428 0 0 0 -2.33528,-0.78853 c -0.81886,0.32755 -1.17067,1.57707 -0.49132,2.13511 -0.60656,0.71574 -1.74084,0.18196 -2.42626,-0.45492 a 13.029014,13.029014 0 0 1 -3.7789,-6.75107 c -0.27295,-1.29805 -0.5459,-2.89938 -1.81969,-3.34218 a 3.3846323,3.3846323 0 0 0 -1.34657,-0.091 c -2.65676,0.18197 -6.81172,1.27985 -9.38356,0.43672 -2.35954,-0.7764 -3.3543,-4.26415 -3.3543,-6.50237 z"
             inkscape:connector-curvature="0"
             style="fill:#784f69;stroke-width:0.60656488" />
          <path
             id="path1453"
             d="m 659.8006,126.24539 c 0,0 -2.23215,10.31161 1.95315,16.7412 l 2.37167,-0.1941 -1.29199,-16.37726 z"
             inkscape:connector-curvature="0"
             style="opacity:0.1;stroke-width:0.60656488" />
          <path
             id="path1455"
             d="m 660.40717,126.24539 c 0,0 -2.23215,10.31161 1.95314,16.7412 l 2.37167,-0.1941 -1.29199,-16.37726 z"
             inkscape:connector-curvature="0"
             style="fill:#fd6f8d;stroke-width:0.60656488" />
          <path
             id="path1457"
             d="m 720.37218,98.088651 17.99678,15.485599 c 0,0 10.60276,10.88177 6.13844,28.46003 0,0 -1.95314,25.66982 -4.1853,26.7859 0,0 -7.81256,15.62511 -8.37059,30.41316 0,0 -10.46325,-21.06599 -15.20659,-8.23108 -4.74333,12.83492 -15.77069,14.64855 -15.77069,14.64855 l 6.13845,-75.91767 c 0,0 15.49166,-26.92542 13.2595,-31.644489 z"
             inkscape:connector-curvature="0"
             style="opacity:0.1;stroke-width:0.60656488" />
          <path
             id="path1459"
             d="M 720.93022,98.088651 738.927,113.57425 c 0,0 10.60276,10.88177 6.13844,28.46003 0,0 -1.95314,25.66982 -4.1853,26.7859 0,0 -7.81256,15.62511 -8.3706,30.41316 0,0 -11.02128,-22.18207 -15.77068,-9.34716 -4.74941,12.83492 -15.20658,15.77069 -15.20658,15.77069 l 6.13843,-75.88734 c 0,0 15.49167,-26.96181 13.25951,-31.680879 z"
             inkscape:connector-curvature="0"
             style="fill:#fd6f8d;stroke-width:0.60656488" />
          <path
             id="path1461"
             d="m 729.16131,163.49454 c 0,0 4.46431,-3.06922 11.71883,5.30138 l -17.85727,32.36631 -5.99893,-9.05602 c 0,0 12.69541,-24.98441 12.13737,-28.61167 z"
             inkscape:connector-curvature="0"
             style="fill:#fec3be;stroke-width:0.60656488" />
          <path
             id="path1463"
             d="m 724.8365,165.30817 c 0,0 9.87488,11.08801 13.72656,9.31077 l 3.5666,-8.30387 -13.38688,-5.75024 z"
             inkscape:connector-curvature="0"
             style="opacity:0.1;stroke-width:0.60656488" />
          <path
             id="path1465"
             d="m 724.8365,164.75014 c 0,0 9.87488,11.088 13.72656,9.31077 l 3.5666,-8.30388 -13.38688,-5.75023 z"
             inkscape:connector-curvature="0"
             style="fill:#fd6f8d;stroke-width:0.60656488" />
          <path
             id="path1467"
             d="m 717.6305,189.9893 c 0,0 4.70089,9.63225 7.206,10.19029 l -3.63939,4.18529 -5.30138,-10.04471 z"
             inkscape:connector-curvature="0"
             style="opacity:0.1;stroke-width:0.60656488" />
          <path
             id="path1469"
             d="m 717.35149,190.28651 c 0,0 4.70088,9.63226 7.20599,10.19029 l -3.63939,4.18531 -5.31351,-10.06292 z"
             inkscape:connector-curvature="0"
             style="fill:#4d4981;stroke-width:0.60656488" />
          <path
             id="path1435"
             d="m 701.53834,315.84545 c 0,0 16.46217,2.7902 17.02021,4.46432 0.55804,1.67412 0,-2.23216 0,-2.23216 0,0 9.48667,-28.73904 7.27878,-54.12379 -2.20789,-25.38474 2.7902,-42.13199 2.7902,-42.13199 0,0 5.85942,-18.97336 2.51118,-29.85513 -3.34824,-10.88178 -38.50474,-6.13844 -38.50474,-6.13844 0,0 12.27687,28.73905 11.99785,42.41102 0,0 1.3951,41.29494 3.90628,46.03828 -0.0243,-0.0243 -3.93054,40.43362 -6.99976,41.56789 z"
             inkscape:connector-curvature="0"
             style="fill:#4d4981;stroke-width:0.60656488" />
          <path
             id="path1471"
             d="m 726.2316,130.70971 c 0,0 0.55804,20.08943 -1.67412,27.62296"
             inkscape:connector-curvature="0"
             style="opacity:0.1;stroke-width:0.60656488" />
          <path
             id="path1473"
             d="m 681.03038,134.61599 c 0,0 3.34824,-1.11608 3.34824,-3.90628"
             inkscape:connector-curvature="0"
             style="opacity:0.1;stroke-width:0.60656488" />
          <path
             id="path1475"
             stroke-miterlimit="10"
             d="m 274.44385,137.97636 c 0,0 -15.90413,32.90008 -5.45908,71.83548 10.44505,38.93541 7.12713,85.52565 -3.28759,97.05039"
             inkscape:connector-curvature="0"
             style="fill:none;stroke:#535461;stroke-width:1.21312976;stroke-miterlimit:10" />
          <circle
             id="circle1477"
             cy="137.98242"
             cx="274.44385"
             style="fill:#ff3985;stroke-width:0.60656488"
             r="4.3854642" />
          <path
             id="path1479"
             stroke-miterlimit="10"
             d="m 267.83229,159.13941 c 0,0 16.48644,2.97216 20.8719,-3.03283"
             inkscape:connector-curvature="0"
             style="fill:none;stroke:#535461;stroke-width:1.21312976;stroke-miterlimit:10" />
          <path
             id="path1481"
             stroke-miterlimit="10"
             d="m 266.26736,168.6928 c 0,0 -9.91734,-10.97275 -9.37143,-17.55399"
             inkscape:connector-curvature="0"
             style="fill:none;stroke:#535461;stroke-width:1.21312976;stroke-miterlimit:10" />
          <path
             id="path1483"
             stroke-miterlimit="10"
             d="m 265.42423,188.79437 c 0,0 9.01962,2.37773 17.25071,-15.16413"
             inkscape:connector-curvature="0"
             style="fill:none;stroke:#535461;stroke-width:1.21312976;stroke-miterlimit:10" />
          <path
             id="path1485"
             stroke-miterlimit="10"
             d="m 267.83229,203.41258 c 0,0 -22.4429,-14.44231 -19.70729,-23.75914"
             inkscape:connector-curvature="0"
             style="fill:none;stroke:#535461;stroke-width:1.21312976;stroke-miterlimit:10" />
          <path
             id="path1487"
             stroke-miterlimit="10"
             d="m 271.33824,219.94147 c 0,0 15.72216,-13.95099 14.07837,-27.67755"
             inkscape:connector-curvature="0"
             style="fill:none;stroke:#535461;stroke-width:1.21312976;stroke-miterlimit:10" />
          <path
             id="path1489"
             stroke-miterlimit="10"
             d="m 273.04875,229.65864 c 0,0 -20.01664,-5.59253 -19.41008,-14.36345"
             inkscape:connector-curvature="0"
             style="fill:none;stroke:#535461;stroke-width:1.21312976;stroke-miterlimit:10" />
          <path
             id="path1491"
             stroke-miterlimit="10"
             d="m 274.44385,241.23797 c 0,0 12.61049,-11.68244 14.25427,-18.80352"
             inkscape:connector-curvature="0"
             style="fill:none;stroke:#535461;stroke-width:1.21312976;stroke-miterlimit:10" />
          <path
             id="path1493"
             stroke-miterlimit="10"
             d="m 275.32337,261.10297 c 0,0 -12.93803,-15.10347 -13.49001,-22.77652"
             inkscape:connector-curvature="0"
             style="fill:none;stroke:#535461;stroke-width:1.21312976;stroke-miterlimit:10" />
          <path
             id="path1495"
             stroke-miterlimit="10"
             d="m 275.32337,273.60427 c 0,0 14.4787,-16.0861 15.57052,-23.75914"
             inkscape:connector-curvature="0"
             style="fill:none;stroke:#535461;stroke-width:1.21312976;stroke-miterlimit:10" />
          <circle
             id="circle1497"
             cy="152.23669"
             cx="256.89594"
             style="fill:#ff3985;stroke-width:0.60656488"
             r="4.3854642" />
          <circle
             id="circle1499"
             cy="215.2952"
             cx="251.96455"
             style="fill:#ff3985;stroke-width:0.60656488"
             r="4.3854642" />
          <circle
             id="circle1501"
             cy="179.65344"
             cx="248.125"
             style="fill:#ff3985;stroke-width:0.60656488"
             r="4.3854642" />
          <circle
             id="circle1503"
             cy="156.07625"
             cx="288.70419"
             style="fill:#ff3985;stroke-width:0.60656488"
             r="4.3854642" />
          <circle
             id="circle1505"
             cy="223.52023"
             cx="288.70419"
             style="fill:#ff3985;stroke-width:0.60656488"
             r="4.3854642" />
          <circle
             id="circle1507"
             cy="173.62418"
             cx="281.57706"
             style="fill:#ff3985;stroke-width:0.60656488"
             r="4.3854642" />
          <circle
             id="circle1509"
             cy="252.58682"
             cx="290.34799"
             style="fill:#ff3985;stroke-width:0.60656488"
             r="4.3854642" />
          <circle
             id="circle1511"
             cy="241.06812"
             cx="260.73547"
             style="fill:#ff3985;stroke-width:0.60656488"
             r="4.3854642" />
          <circle
             id="circle1513"
             cy="192.26393"
             cx="285.96252"
             style="fill:#ff3985;stroke-width:0.60656488"
             r="4.3854642" />
        </g>
      </g>
    </g>
  </g>
</svg>
