<?xml version="1.0" encoding="UTF-8" standalone="no"?>
<svg
   xmlns:dc="http://purl.org/dc/elements/1.1/"
   xmlns:cc="http://creativecommons.org/ns#"
   xmlns:rdf="http://www.w3.org/1999/02/22-rdf-syntax-ns#"
   xmlns:svg="http://www.w3.org/2000/svg"
   xmlns="http://www.w3.org/2000/svg"
   xmlns:sodipodi="http://sodipodi.sourceforge.net/DTD/sodipodi-0.dtd"
   xmlns:inkscape="http://www.inkscape.org/namespaces/inkscape"
   id="a3a44bd2-1d5c-46a0-ab88-fbd2ff893ca0"
   data-name="Layer 1"
   width="1055.5006"
   height="371.70685"
   viewBox="0 0 1055.5006 371.70682"
   version="1.1"
   sodipodi:docname="undraw_two_factor_authentication_namy.svg"
   inkscape:version="0.92.5 (2060ec1f9f, 2020-04-08)">
  <metadata
     id="metadata103">
    <rdf:RDF>
      <cc:Work
         rdf:about="">
        <dc:format>image/svg+xml</dc:format>
        <dc:type
           rdf:resource="http://purl.org/dc/dcmitype/StillImage" />
        <dc:title>two_factor_authentication</dc:title>
      </cc:Work>
    </rdf:RDF>
  </metadata>
  <defs
     id="defs101" />
  <sodipodi:namedview
     pagecolor="#ffffff"
     bordercolor="#666666"
     borderopacity="1"
     objecttolerance="10"
     gridtolerance="10"
     guidetolerance="10"
     inkscape:pageopacity="0"
     inkscape:pageshadow="2"
     inkscape:window-width="2560"
     inkscape:window-height="1377"
     id="namedview99"
     showgrid="false"
     inkscape:zoom="0.51612875"
     inkscape:cx="484.58789"
     inkscape:cy="140.0226"
     inkscape:window-x="1072"
     inkscape:window-y="476"
     inkscape:window-maximized="1"
     inkscape:current-layer="a3a44bd2-1d5c-46a0-ab88-fbd2ff893ca0" />
  <title
     id="title2">two_factor_authentication</title>
  <path
     d="m 1009.4381,99.716457 h -1.8586 V 48.801097 A 29.4685,29.4685 0 0 0 978.11088,19.332506 H 870.23962 A 29.4685,29.4685 0 0 0 840.77103,48.801097 V 328.12675 a 29.46851,29.46851 0 0 0 29.46859,29.46854 h 107.87126 a 29.46851,29.46851 0 0 0 29.46862,-29.46854 V 135.95873 h 1.8586 z"
     id="path4"
     inkscape:connector-curvature="0"
     style="fill:#3f3d56" />
  <path
     d="M 1001.3088,50.532577 V 329.4519 a 22.01111,22.01111 0 0 1 -22.01002,22.01 H 870.90876 a 22.00248,22.00248 0 0 1 -22,-22.01 V 50.532577 a 22.00031,22.00031 0 0 1 22,-22.000041 h 13.15 a 10.4608,10.4608 0 0 0 9.68,14.40002 h 61.8 a 10.44027,10.44027 0 0 0 9.67993,-14.40002 h 14.08009 a 22.00894,22.00894 0 0 1 22.01002,22.000041 z"
     id="path6"
     inkscape:connector-curvature="0"
     style="fill:#d0cde1" />
  <rect
     x="854.78876"
     y="171.33197"
     width="126"
     height="34"
     id="rect8"
     style="fill:#ff3985" />
  <path
     d="M 985.78878,199.3322 H 863.78876 a 3.00328,3.00328 0 0 1 -3,-2.99999 v -29.99994 a 3.00328,3.00328 0 0 1 3,-3 h 122.00002 a 3.00328,3.00328 0 0 1 3,3 v 29.99994 a 3.00328,3.00328 0 0 1 -3,2.99999 z M 863.78876,165.33227 a 1.001,1.001 0 0 0 -1,1 v 29.99994 a 1.00067,1.00067 0 0 0 1,1 h 122.00002 a 1.00067,1.00067 0 0 0 1,-1 v -29.99994 a 1.001,1.001 0 0 0 -1,-1 z"
     id="path10"
     inkscape:connector-curvature="0"
     style="fill:#3f3d56" />
  <rect
     x="868.78876"
     y="190.33194"
     width="16"
     height="2"
     id="rect12"
     style="fill:#3f3d56" />
  <rect
     x="890.78876"
     y="190.33194"
     width="16"
     height="2"
     id="rect14"
     style="fill:#3f3d56" />
  <rect
     x="912.78876"
     y="190.33194"
     width="16"
     height="2"
     id="rect16"
     style="fill:#3f3d56" />
  <rect
     x="934.78876"
     y="190.33194"
     width="16"
     height="2"
     id="rect18"
     style="fill:#3f3d56" />
  <rect
     x="956.78876"
     y="190.33194"
     width="16"
     height="2"
     id="rect20"
     style="fill:#3f3d56" />
  <path
     d="m 1001.3088,301.09205 v 28.36 a 22.01111,22.01111 0 0 1 -22.01002,22.01 H 870.90876 a 22.00248,22.00248 0 0 1 -22,-22.01 V 198.99221 Z"
     id="path22"
     inkscape:connector-curvature="0"
     style="opacity:0.1" />
  <rect
     x="12.663742"
     y="77.706902"
     width="473"
     height="232"
     id="rect24"
     style="fill:#d0cde1" />
  <path
     d="M 365.41376,309.70678 H 14.663772 a 2.00591,2.00591 0 0 1 -2,-2 V 79.707407 a 2.00587,2.00587 0 0 1 2,-1.999996 h 4.44 z"
     id="path26"
     inkscape:connector-curvature="0"
     style="opacity:0.1" />
  <rect
     x="198.72621"
     y="224.95685"
     width="732.99951"
     height="2"
     id="rect28"
     style="fill:#3f3d56" />
  <rect
     x="197.16374"
     y="180.70689"
     width="16"
     height="2"
     id="rect52"
     style="fill:#3f3d56" />
  <rect
     x="219.16374"
     y="180.70689"
     width="16"
     height="2"
     id="rect54"
     style="fill:#3f3d56" />
  <rect
     x="241.16374"
     y="180.70689"
     width="16"
     height="2"
     id="rect56"
     style="fill:#3f3d56" />
  <rect
     x="263.16376"
     y="180.70689"
     width="16"
     height="2"
     id="rect58"
     style="fill:#3f3d56" />
  <rect
     x="285.16376"
     y="180.70689"
     width="16"
     height="2"
     id="rect60"
     style="fill:#3f3d56" />
  <path
     d="M 506.66335,292.70689 H 37.663842 a 4.00428,4.00428 0 0 1 -4,-4 V 60.707555 a 4.00427,4.00427 0 0 1 4,-3.999992 H 506.66335 a 4.004,4.004 0 0 1 4,3.999992 V 288.70689 a 4.004,4.004 0 0 1 -4,4 z M 37.663842,60.707555 V 288.70689 H 506.66628 l -0.003,-227.999335 z"
     id="path62"
     inkscape:connector-curvature="0"
     style="fill:#3f3d56" />
  <circle
     cx="58.663734"
     cy="88.706902"
     r="6"
     id="circle64"
     style="fill:#3f3d56" />
  <circle
     cx="79.663734"
     cy="88.706902"
     r="6"
     id="circle66"
     style="fill:#3f3d56" />
  <circle
     cx="100.66373"
     cy="88.706902"
     r="6"
     id="circle68"
     style="fill:#3f3d56" />
  <path
     d="m 316.66376,194.7071 h -135 a 3.00328,3.00328 0 0 1 -3,-2.99999 v -33.99994 a 3.00328,3.00328 0 0 1 3,-2.99999 h 135 a 3.00328,3.00328 0 0 1 3,2.99999 v 33.99994 a 3.00328,3.00328 0 0 1 -3,2.99999 z m -135,-37.99992 a 1.001,1.001 0 0 0 -1,0.99999 v 33.99994 a 1.001,1.001 0 0 0 1,1 h 135 a 1.001,1.001 0 0 0 1,-1 v -33.99994 a 1.001,1.001 0 0 0 -1,-0.99999 z"
     id="path70"
     inkscape:connector-curvature="0"
     style="fill:#3f3d56" />
  <circle
     cx="350.66376"
     cy="177.70689"
     r="18"
     id="circle72"
     style="fill:#ff3985" />
  <path
     d="m 356.66376,193.7071 a 19,19 0 1 1 19,-18.99996 19.02162,19.02162 0 0 1 -19,18.99996 z m 0,-35.99993 a 17,17 0 1 0 17,16.99997 17.019,17.019 0 0 0 -17,-16.99997 z"
     id="path74"
     inkscape:connector-curvature="0"
     style="fill:#3f3d56" />
  <polygon
     points="434.437,554.121 437.265,551.293 443.584,557.611 461.216,532.555 464.487,534.858 444.118,563.803 "
     id="polygon76"
     transform="translate(-87.187548,-381.99989)"
     style="fill:#3f3d56" />
  <circle
     cx="906.78876"
     cy="87.332016"
     r="11"
     id="circle92"
     style="fill:#3f3d56" />
  <circle
     cx="960.78876"
     cy="308.33188"
     r="11"
     id="circle94"
     style="fill:#3f3d56" />
  <circle
     cx="234.66374"
     cy="110.7069"
     r="11"
     id="circle96"
     style="fill:#3f3d56" />
</svg>
