<?xml version="1.0" encoding="UTF-8" standalone="no"?>
<svg
   xmlns:dc="http://purl.org/dc/elements/1.1/"
   xmlns:cc="http://creativecommons.org/ns#"
   xmlns:rdf="http://www.w3.org/1999/02/22-rdf-syntax-ns#"
   xmlns:svg="http://www.w3.org/2000/svg"
   xmlns="http://www.w3.org/2000/svg"
   xmlns:xlink="http://www.w3.org/1999/xlink"
   xmlns:sodipodi="http://sodipodi.sourceforge.net/DTD/sodipodi-0.dtd"
   xmlns:inkscape="http://www.inkscape.org/namespaces/inkscape"
   id="a2995fdc-ba4a-4390-a70c-27b90cf54d89"
   data-name="Layer 1"
   width="908.62314"
   height="777.89947"
   viewBox="0 0 908.62314 777.89947"
   version="1.1"
   sodipodi:docname="undraw_social_distancing_2g0u.svg"
   inkscape:version="0.92.5 (2060ec1f9f, 2020-04-08)">
  <metadata
     id="metadata2512">
    <rdf:RDF>
      <cc:Work
         rdf:about="">
        <dc:format>image/svg+xml</dc:format>
        <dc:type
           rdf:resource="http://purl.org/dc/dcmitype/StillImage" />
        <dc:title>social_distancing</dc:title>
      </cc:Work>
    </rdf:RDF>
  </metadata>
  <defs
     id="defs2510">
    <linearGradient
       inkscape:collect="always"
       id="linearGradient6800">
      <stop
         style="stop-color:#ffffff;stop-opacity:1;"
         offset="0"
         id="stop6796" />
      <stop
         style="stop-color:#ffffff;stop-opacity:0;"
         offset="1"
         id="stop6798" />
    </linearGradient>
    <linearGradient
       id="linearGradient919"
       inkscape:collect="always">
      <stop
         id="stop915"
         offset="0"
         style="stop-color:#ffffff;stop-opacity:1;" />
      <stop
         id="stop917"
         offset="1"
         style="stop-color:#ffffff;stop-opacity:0;" />
    </linearGradient>
    <inkscape:perspective
       id="perspective863"
       inkscape:persp3d-origin="155.08184 : 64.604166 : 1"
       inkscape:vp_z="260.08184 : 114.10417 : 1"
       inkscape:vp_y="0 : 1000 : 0"
       inkscape:vp_x="50.081844 : 114.10417 : 1"
       sodipodi:type="inkscape:persp3d" />
    <linearGradient
       gradientUnits="userSpaceOnUse"
       y2="312.80836"
       x2="223.59961"
       y1="312.80836"
       x1="123.46289"
       id="linearGradient921"
       xlink:href="#linearGradient919"
       inkscape:collect="always" />
    <radialGradient
       inkscape:collect="always"
       xlink:href="#linearGradient6800"
       id="radialGradient6802"
       cx="173.53125"
       cy="312.80836"
       fx="173.53125"
       fy="312.80836"
       r="51.110356"
       gradientTransform="matrix(1,0,0,0.36163714,0,199.68524)"
       gradientUnits="userSpaceOnUse" />
    <inkscape:perspective
       sodipodi:type="inkscape:persp3d"
       inkscape:vp_x="50.081844 : 114.10417 : 1"
       inkscape:vp_y="0 : 999.99999 : 0"
       inkscape:vp_z="260.08184 : 114.10417 : 1"
       inkscape:persp3d-origin="155.08184 : 64.604168 : 1"
       id="perspective863-2" />
  </defs>
  <sodipodi:namedview
     pagecolor="#000000"
     bordercolor="#666666"
     borderopacity="1"
     objecttolerance="10"
     gridtolerance="10"
     guidetolerance="10"
     inkscape:pageopacity="0"
     inkscape:pageshadow="2"
     inkscape:window-width="2560"
     inkscape:window-height="1377"
     id="namedview2508"
     showgrid="false"
     inkscape:zoom="0.6067622"
     inkscape:cx="228.0182"
     inkscape:cy="107.93272"
     inkscape:window-x="1072"
     inkscape:window-y="476"
     inkscape:window-maximized="1"
     inkscape:current-layer="layer1"
     inkscape:snap-bbox="true"
     inkscape:snap-bbox-edge-midpoints="true" />
  <title
     id="title2337">social_distancing</title>
  <ellipse
     cx="123.57123"
     cy="330.54811"
     rx="95.37247"
     ry="194.59837"
     fill="#ff3985"
     id="ellipse2339" />
  <path
     d="M268.38406,393.61678c4.7574-84.70728,14.34278-141.9244,14.43909-142.49248l-2.07973-.35229c-.09631.5686-9.69868,57.8774-14.46381,142.69386-4.39739,78.28064-5.45837,196.68479,14.4633,316.21379l2.08075-.3461C262.936,590.00748,263.99439,471.78256,268.38406,393.61678Z"
     transform="translate(-145.68843 -61.05027)"
     fill="#3f3d56"
     id="path2341" />
  <rect
     x="262.97947"
     y="375.08617"
     width="97.80632"
     height="2.10972"
     transform="translate(-286.27613 130.6363) rotate(-28.1569)"
     fill="#3f3d56"
     id="rect2343" />
  <rect
     x="219.80149"
     y="350.35844"
     width="2.10972"
     height="97.80632"
     transform="translate(-381.06222 344.64643) rotate(-61.8584)"
     fill="#3f3d56"
     id="rect2345" />
  <ellipse
     cx="784.89356"
     cy="252.45832"
     rx="123.72957"
     ry="252.45832"
     fill="#ff3985"
     id="ellipse2347" />
  <path
     d="M929.07915,316.0948C935.252,206.18367,947.69,131.94294,947.815,131.20564l-1.97168-.334c-.125.73779-12.5791,75.06542-18.75928,185.08007-5.70459,101.5376-7.08057,255.11768,18.75879,410.15284l1.97266-.32813C922.00835,570.93269,923.38237,417.52351,929.07915,316.0948Z"
     transform="translate(-145.68843 -61.05027)"
     fill="#3f3d56"
     id="path2349" />
  <rect
     x="922.43432"
     y="292.45509"
     width="126.88732"
     height="2.00012"
     transform="translate(-167.49547 438.9048) rotate(-28.1571)"
     fill="#3f3d56"
     id="rect2351" />
  <rect
     x="866.7871"
     y="260.00661"
     width="2.00012"
     height="126.88732"
     transform="translate(27.59148 875.04534) rotate(-61.8584)"
     fill="#3f3d56"
     id="rect2353" />
  <ellipse
     cx="635.81992"
     cy="478.96817"
     rx="46.22863"
     ry="94.32509"
     fill="#e6e6e6"
     id="ellipse2355" />
  <path
     d="M781.46764,544.08223l.27362.51159,41.79785-22.37207-.94336-1.76367-41.041,21.967c2.27112-41.80139,6.91614-69.86267,7.00977-70.41522l-1.97168-.334c-.10223.6034-5.62122,33.92652-7.58014,82.1449l-41.39349-22.15564-.94336,1.76367,41.79785,22.37207.499-.9328c-1.56732,39.79737-.68884,89.55964,7.61969,139.41034l1.97266-.32812C779.50633,639.59779,779.30681,585.34749,781.46764,544.08223Z"
     transform="translate(-145.68843 -61.05027)"
     fill="#3f3d56"
     id="path2357" />
  <path
     d="M1015.74556,746.816c-246.23242-77.94726-469.50879-73.79492-613.45459-56.585C246.3437,708.87559,147.38716,746.41954,146.4062,746.79649l-.71777-1.86719c.98389-.37793,100.17334-38.01074,256.36524-56.68457a1486.92035,1486.92035,0,0,1,276.89013-7.083,1444.325,1444.325,0,0,1,337.40528,63.748Z"
     transform="translate(-145.68843 -61.05027)"
     fill="#3f3d56"
     id="path2359" />
  <path
     d="M462.20019,724.78684s.69057-14.46983,14.84713-12.78791"
     transform="translate(-145.68843 -61.05027)"
     fill="#3f3d56"
     id="path2361" />
  <circle
     cx="312.51176"
     cy="642.88148"
     r="7.08526"
     fill="#ff3985"
     id="circle2363" />
  <rect
     x="311.35889"
     y="654.81263"
     width="2"
     height="14"
     fill="#3f3d56"
     id="rect2365" />
  <path
     d="M720.20019,727.78684s.69057-14.46983,14.84713-12.78791"
     transform="translate(-145.68843 -61.05027)"
     fill="#3f3d56"
     id="path2367" />
  <circle
     cx="570.51176"
     cy="645.88148"
     r="7.08526"
     fill="#ff3985"
     id="circle2369" />
  <rect
     x="569.35889"
     y="657.81263"
     width="2"
     height="14"
     fill="#3f3d56"
     id="rect2371" />
  <path
     d="M295.20019,702.78684s.69057-14.46983,14.84713-12.78791"
     transform="translate(-145.68843 -61.05027)"
     fill="#3f3d56"
     id="path2373" />
  <circle
     cx="145.51176"
     cy="620.88148"
     r="7.08526"
     fill="#ff3985"
     id="circle2375" />
  <rect
     x="144.35889"
     y="632.81263"
     width="2"
     height="14"
     fill="#3f3d56"
     id="rect2377" />
  <path
     d="M404.20019,683.78684s.69057-14.46983,14.84713-12.78791"
     transform="translate(-145.68843 -61.05027)"
     fill="#3f3d56"
     id="path2379" />
  <circle
     cx="254.51176"
     cy="601.88148"
     r="7.08526"
     fill="#ff3985"
     id="circle2381" />
  <rect
     x="253.35889"
     y="613.81263"
     width="2"
     height="14"
     fill="#3f3d56"
     id="rect2383" />
  <path
     d="M677.20019,710.78684s.69057-14.46983,14.84713-12.78791"
     transform="translate(-145.68843 -61.05027)"
     fill="#3f3d56"
     id="path2385" />
  <circle
     cx="527.51176"
     cy="628.88148"
     r="7.08526"
     fill="#ff3985"
     id="circle2387" />
  <rect
     x="526.35889"
     y="640.81263"
     width="2"
     height="14"
     fill="#3f3d56"
     id="rect2389" />
  <path
     d="M984.7021,681.77975l41.15828,61.0278L987.5406,781.12733l-4.96738-9.93476,8.51551-19.86951s-1.41925-18.45027-6.38663-23.41765-26.96577-34.77165-26.96577-34.77165Z"
     transform="translate(-145.68843 -61.05027)"
     fill="#ffb8b8"
     id="path2391" />
  <path
     d="M932.18981,484.50385s7.80435,12.35225-8.517,65.57417c0,0,76.13,128.48795,64.06637,137.00346s-44.70886,27.361-53.22437,21.684S864.06576,510.76,864.06576,510.76Z"
     transform="translate(-145.68843 -61.05027)"
     fill="#2f2e41"
     id="path2393" />
  <path
     d="M1018.40931,731.80835l12.41845,12.41845c6.38663,6.38663,10.64439,15.61176-1.41925,23.41764S975.477,804.545,961.28446,795.31984s17.031-17.74064,17.031-17.74064,5.163-19.14312,7.90367-14.89375,2.74071,12.76488,2.74071,12.76488Z"
     transform="translate(-145.68843 -61.05027)"
     fill="#2f2e41"
     id="path2395" />
  <path
     d="M868.32351,715.13215s-22.708,41.86791-22.708,46.83529,1.41925,19.15989,1.41925,19.15989l-43.28716,10.64438-14.90213-7.09625,4.96738-12.77326s26.96577-9.22513,32.64277-26.96577,12.06364-36.19091,12.06364-36.19091Z"
     transform="translate(-145.68843 -61.05027)"
     fill="#ffb8b8"
     id="path2397" />
  <circle
     cx="748.89122"
     cy="207.72741"
     r="29.80427"
     fill="#ffb8b8"
     id="circle2399" />
  <path
     d="M886.77377,294.3242l14.22936,40.88508L932.18981,321.29S910.901,288.64719,910.901,284.38944Z"
     transform="translate(-145.68843 -61.05027)"
     fill="#ffb8b8"
     id="path2401" />
  <path
     d="M882.516,439.79744h37.61015s26.96578,41.15828,11.354,84.44544c-2.39072,6.62882-4.764,15.91425-7.13271,26.89228-5.44757,25.2469-10.87142,59.44586-16.42968,90.87152-7.80743,44.1422-15.88,82.81253-24.65611,83.51462-17.74064,1.41925-52.23873,1.18244-52.23873-5.91382s23.108-212.39562,23.108-212.39562l4.96738-8.5155.93889-37.0924A22.37292,22.37292,0,0,1,882.516,439.79744Z"
     transform="translate(-145.68843 -61.05027)"
     fill="#2f2e41"
     id="path2403" />
  <path
     d="M845.26068,761.61263s8.16069,13.8377,6.03182,23.77245-5.677,8.51551-21.28877,9.93476S761.17,796.73909,761.17,786.80433s41.51765-22.83651,41.69278-18.86932,1.59438,11.77307-2.66337,13.19232-.35482.35481-.35482.35481Z"
     transform="translate(-145.68843 -61.05027)"
     fill="#2f2e41"
     id="path2405" />
  <path
     d="M886.77975,528.37025s-3.08711,50.40877-23.6759,35.40206,8.02355-42.1147,8.02355-42.1147Z"
     transform="translate(-145.68843 -61.05027)"
     fill="#fff"
     id="path2407" />
  <path
     d="M927.87211,461.98051a5.97691,5.97691,0,0,0,6.11867-.72426,6.26925,6.26925,0,0,0,2.32148-3.95407c2.97657-17.16055,6.60075-64.73426,8.68825-88.79059,2.61936-30.18586-10.46455-53.5657-10.57424-53.708l-7.71042-10.60184a6.0519,6.0519,0,0,0-7.24767-2.03428S895.39669,327.142,895.308,328.10625c-.37768,4.14064-3.24252,13.31657-18.17514,28.2492-16.33872,16.33871-16.4295,30.59879-16.06776,34.58039q.03561.39265.03644.78467A17.50508,17.50508,0,0,0,861.82111,397c6.84364,21.5755,1.48429,47.40621-7.122,74.36917a6.08122,6.08122,0,0,0,2.45109,6.599c2.51349,1.71-.5007-.82731.39588.2713,5.93143,7.268,14.46694-2.86172,24.23053-13.91462,3.40121-3.85027,7.25633-8.2144,11.7996-12.75767,6.24665-6.247,18.18242,8.00789,23.73192,8.00789A25.77032,25.77032,0,0,1,927.87211,461.98051Z"
     transform="translate(-145.68843 -61.05027)"
     fill="#575a89"
     id="path2409" />
  <path
     d="M931.18174,325.81116s15.58848,13.14643,6.7324,30.19594-7.67868,29.62436-7.67868,29.62436-2.35783,117.12469-30.03044,111.4341l-12.5875,34.75249-22.73355-8.2052,13.14558-30.65251s-10.529-.6548-7.45237-7.8288c2.16091-5.03874,13.80288-59.71868,20.54161-91.82185,2.85564-13.60421,4.83077-23.15415,4.83077-23.15415S904.90629,322.264,931.18174,325.81116Z"
     transform="translate(-145.68843 -61.05027)"
     fill="#575a89"
     id="path2411" />
  <polygon
     points="788.763 324.281 779.998 381.79 784.727 320.297 788.763 324.281"
     opacity="0.2"
     id="polygon2413" />
  <path
     d="m 862.06229,255.57216 c 0,0 -5.01067,-38.99525 35.873,-26.2078 0,0 29.1994,-5.35766 38.775,31.16631 l 9.696,38.28613 -4.72533,-2.572 -2.203,4.81545 -7.65722,1.93919 -3.27672,-6.50366 -1.58513,7.89789 8.97514,37.97811 c 0,0 -43.60238,-48.33777 -43.15695,-78.11049 l -5.35049,5.65407 z"
     transform="translate(-145.68843,-61.05027)"
     id="path2415"
     inkscape:connector-curvature="0"
     style="fill:#2f2e41"
     sodipodi:nodetypes="ccccccccccccc" />
  <polygon
     points="763.014 583.199 776.999 490.013 765.625 590.611 763.014 583.199"
     opacity="0.2"
     id="polygon2417" />
  <circle
     cx="785.86943"
     cy="168.69591"
     r="15.77018"
     fill="#2f2e41"
     id="circle2419" />
  <path
     d="M915.30806,225.8854a15.75777,15.75777,0,0,1,15.76272-14.73946c-.32565-.04131-.64837-.09154-.98042-.11288a15.77018,15.77018,0,1,0-2.02364,31.47537c.332.02135.65854.01287.9868.0136A15.75777,15.75777,0,0,1,915.30806,225.8854Z"
     transform="translate(-145.68843 -61.05027)"
     fill="#2f2e41"
     id="path2421" />
  <polygon
     points="740.865 342.202 726.99 416.567 744.974 334.43 740.865 342.202"
     opacity="0.2"
     id="polygon2423" />
  <path
     d="M887.41861,290.2558l-8.0868,6.0971c-8.32851-4.19115-14.575-13.88834-16.84527-23.14382l8.81225-4.44638C871.99144,278.20274,878.69229,284.4787,887.41861,290.2558Z"
     transform="translate(-145.68843 -61.05027)"
     fill="#fff"
     id="path2425" />
  <path
     d="M890.77691,270.106H870.62713a.67166.67166,0,0,1,0-1.34332h20.14978a.67166.67166,0,0,1,0,1.34332Z"
     transform="translate(-145.68843 -61.05027)"
     fill="#fff"
     id="path2427" />
  <path
     d="M886.747,290.2558a.67107.67107,0,0,1-.62312-.92091l5.37327-13.43319a.67113.67113,0,1,1,1.24625.4985l-5.37328,13.43319A.67052.67052,0,0,1,886.747,290.2558Z"
     transform="translate(-145.68843 -61.05027)"
     fill="#fff"
     id="path2429" />
  <ellipse
     cx="746.44397"
     cy="210.09264"
     rx="4.92818"
     ry="6.89945"
     fill="#ffb8b8"
     id="ellipse2431" />
  <polygon
     points="399.191 230.876 451.677 242.887 473.853 201.062 428.974 183.54 399.191 230.876"
     fill="#2f2e41"
     id="polygon2433" />
  <path
     d="M572.76549,517.07715s-16.87156,38.664-16.87156,49.91169c0,0,6.67833,30.5797,4.56938,39.01548L553.082,621.82141l-15.46559-6.32683-4.21789-42.1789.703-67.48624Z"
     transform="translate(-145.68843 -61.05027)"
     fill="#ffb9b9"
     id="path2435" />
  <path
     d="M582.25574,285.79618s1.406,23.1984-1.406,30.22821,10.54472,20.38647,10.54472,20.38647L612.484,308.99458s-14.05963-14.05963-10.54472-29.52523Z"
     transform="translate(-145.68843 -61.05027)"
     fill="#ffb9b9"
     id="path2437" />
  <path
     d="M538.31939,446.42749s-20.38647,37.961-.703,35.14908S550.62157,445.373,550.62157,445.373"
     transform="translate(-145.68843 -61.05027)"
     fill="#e6e6e6"
     id="path2439" />
  <polyline
     points="404.933 384.323 411.611 317.891 411.26 277.47 395.794 280.281 395.794 317.539 392.631 385.377"
     fill="#ffb9b9"
     id="polyline2441" />
  <path
     d="M533.75,610.5737,563.97822,598.623l3.51491,59.75344S573.82,676.654,571.711,683.6838c0,0,1.406,11.95068-2.10895,12.65367s-13.35665,2.10894-14.05963,1.406-.703-2.81193-.703-2.81193-7.02982,4.92087-7.7328,10.54473c0,0-29.52523,9.13876-30.22821.703s14.76261-15.4656,14.76261-15.4656l11.95069-18.27752Z"
     transform="translate(-145.68843 -61.05027)"
     fill="#2f2e41"
     id="path2443" />
  <path
     d="M635.68235,517.07715s-16.87156,38.664-16.87156,49.91169c0,0,6.67832,30.5797,4.56938,39.01548l-7.38131,15.81709-15.4656-6.32683-4.21789-42.1789.703-67.48624Z"
     transform="translate(-145.68843 -61.05027)"
     fill="#ffb9b9"
     id="path2445" />
  <path
     d="M597.72134,610.5737,627.94955,598.623l3.51491,59.75344s6.32683,18.27752,4.21789,25.30734c0,0,1.406,11.95068-2.109,12.65367s-13.35665,2.10894-14.05963,1.406-.703-2.81193-.703-2.81193-7.02982,4.92087-7.7328,10.54473c0,0-29.52523,9.13876-30.22821.703s14.76261-15.4656,14.76261-15.4656l11.95069-18.27752Z"
     transform="translate(-145.68843 -61.05027)"
     fill="#2f2e41"
     id="path2447" />
  <path
     d="M611.78584,269.631a22.4967,22.4967,0,0,1-44.44619,4.92186,21.79764,21.79764,0,0,1-.55068-4.92186,22.49844,22.49844,0,0,1,44.99687,0Z"
     transform="translate(-145.68843 -61.05027)"
     fill="#ffb9b9"
     id="path2449" />
  <path
     d="M592.09748,314.61843l17.45674-9.06537,7.8506,6.25344s18.98051-.703,26.01033,7.7328S654.31136,349.416,654.31136,349.416s-23.19839-4.92087-20.38647,14.76262L629.707,352.93093l-3.8664,9.49025-47.09977,16.16858L557.65138,342.7377s-14.05963-4.21789-18.9805,5.62385c0,0,1.05447-35.50057,14.76261-36.555,9.21905-.70915,16.16858-.703,16.16858-.703l7.7328-1.406,4.95194-1.75745Z"
     transform="translate(-145.68843 -61.05027)"
     fill="#575a89"
     id="path2451" />
  <path
     d="M621.97412,391.595s36.90662,110.71956,26.3619,126.18516c0,0-39.367,19.68348-118.10092-7.02982l31.9856-124.07624Q591.69189,380.647,621.97412,391.595Z"
     transform="translate(-145.68843 -61.05027)"
     fill="#2f2e41"
     id="path2453" />
  <path
     d="M621.97412,391.595l10.38705-35.69436c-12.45993-13.55038-1.70576-43.59776-1.70576-43.59776l-15.03427-3.22163s-15.08788,40.68629-30.55347,35.76542-7.02982-36.555-7.02982-36.555l-14.05963,1.406-6.32684,24.60436,4.56932,52.37215C581.27734,385.03955,601.26367,386.94165,621.97412,391.595Z"
     transform="translate(-145.68843 -61.05027)"
     fill="#575a89"
     id="path2455" />
  <polyline
     points="494.563 384.323 499.484 317.539 500.89 277.47 485.425 280.281 485.425 317.539 482.261 385.377"
     fill="#ffb9b9"
     id="polyline2457" />
  <path
     d="M627.94955,446.42749s-20.38647,37.961-.703,35.14908S640.25173,445.373,640.25173,445.373"
     transform="translate(-145.68843 -61.05027)"
     fill="#fff"
     id="path2459" />
  <path
     d="M654.31136,349.416s-2.49889-36.10212-23.39337-35.97709v41.7504S646.57856,345.90111,654.31136,349.416Z"
     transform="translate(-145.68843 -61.05027)"
     fill="#575a89"
     id="path2461" />
  <path
     d="M596.48087,275.43624a.57367.57367,0,0,1-.35852-1.0218l11.47291-9.17833a.57392.57392,0,1,1,.717.89632l-11.47291,9.17833A.57433.57433,0,0,1,596.48087,275.43624Z"
     transform="translate(-145.68843 -61.05027)"
     fill="#fff"
     id="path2463" />
  <path
     d="M597.3491,289.20374c-.25237.30972-.50474.61951-.76859.90633a22.498,22.498,0,0,1-31.24086-15.55726l10.87124-2,21.13821,2C592.50757,280.4499,593.0927,282.492,597.3491,289.20374Z"
     transform="translate(-145.68843 -61.05027)"
     fill="#fff"
     id="path2465" />
  <path
     d="M576.58438,238.14142s-11.62689,2.187-14.31567,16.68788a26.62077,26.62077,0,0,0-.2277,7.40429c.26848,2.79126-.121,8.68672-6.18175,15.62856a151.96767,151.96767,0,0,0-11.03539,14.17242h0l12.14907,3.23424L562.40111,275.14a102.97,102.97,0,0,1,12.03225-27.655l.1116-.17906s4.03511,10.7817,14.8503,12.25976l-3.33469-4.39044s12.643,7.30862,19.806,9.54126a4.7063,4.7063,0,0,1,1.51868,8.1838q-.0762.05994-.15523.12c-5.26853,4.00163-16.01675,13.54991-11.77049,22.78659s-.70555,10.92077-.70555,10.92077l9.13111-3.47375,4.17929-1.78966-.4223,3.09005,20.40208.42743s5.51317-.03349-4.27975-14.74985c0,0-2.36295-5.51806-.42307-9.73367a22.393,22.393,0,0,0,2.2614-10.26077C624.986,255.40061,618.73585,225.21642,576.58438,238.14142Z"
     transform="translate(-145.68843 -61.05027)"
     id="path2467"
     fill="#2f2e41" />
  <path
     d="M290.38435,660.7632s0,95.4619-21.90929,120.50109c0,0-4.69485,12.5196-6.2598,17.21445a65.79875,65.79875,0,0,1-3.12989,7.82474v6.2598s-42.25363-4.69485-46.94848-15.64949l7.82474-9.3897s1.56495-1.56495,0-6.2598,3.1299-4.69484,3.1299-4.69484l10.95465-25.03919L232.48123,648.2436,240.306,505.83322l67.29282-3.1299Z"
     transform="translate(-145.68843 -61.05027)"
     fill="#2f2e41"
     id="path2469" />
  <path
     d="M255.95547,803.17358s10.95464,32.86394,0,34.42889-106.41655,3.1299-104.8516-9.3897,32.86393-10.95464,32.86393-10.95464l32.86394-20.34434Z"
     transform="translate(-145.68843 -61.05027)"
     fill="#2f2e41"
     id="path2471" />
  <path
     d="M352.98232,505.83322s3.1299,20.34434-9.38969,42.25363-4.69485,95.46191-4.69485,95.46191l111.1114,97.02685s-21.90929,37.55878-29.734,35.99384S288.8194,674.84774,288.8194,674.84774L240.306,512.093Z"
     transform="translate(-145.68843 -61.05027)"
     fill="#2f2e41"
     id="path2473" />
  <path
     d="M448.48225,736.429s33.62247,8.341,29.07974,18.43142-54.32622,91.5584-64.06288,83.53426,8.341-33.62247,8.341-33.62247l.41015-38.64922Z"
     transform="translate(-145.68843 -61.05027)"
     fill="#2f2e41"
     id="path2475" />
  <path
     d="M327.943,214.75529a35.79163,35.79163,0,0,1-8.02355,22.63684,35.90387,35.90387,0,0,1-34.93408,12.67061,34.92342,34.92342,0,0,1-9.24888-3.18261,35.97122,35.97122,0,0,1-18.73706-23.51835,35.453,35.453,0,0,1-1.04585-8.60649,35.99471,35.99471,0,1,1,71.98942,0Z"
     transform="translate(-145.68843 -61.05027)"
     fill="#a0616a"
     id="path2477" />
  <path
     d="M320.26988,227.45253l-1.592,46.31734-30.28613,11.96646s-2.97008-47.42592-7.16265-50.05519S320.26988,227.45253,320.26988,227.45253Z"
     transform="translate(-145.68843 -61.05027)"
     fill="#a0616a"
     id="path2479" />
  <path
     d="M280.99466,291.43516s42.25363-42.25363,53.20827-40.68868,10.95465,6.2598,10.95465,9.3897-3.1299,4.69485,0,6.2598,6.25979,0,6.25979,4.69484,28.16909,51.64333,18.7794,103.28666-20.34434,76.68251-15.6495,104.8516,1.56495,34.42888,1.56495,34.42888S238.741,523.04766,237.17608,512.093s4.69484-4.69485-3.1299-12.5196-4.69485-7.82475-4.69485-12.51959S263.78021,291.43516,280.99466,291.43516Z"
     transform="translate(-145.68843 -61.05027)"
     fill="#575a89"
     id="path2481" />
  <path
     d="M302.904,504.26827S284.12455,549.6518,270.04,538.69715s6.2598-48.51343,6.2598-48.51343Z"
     transform="translate(-145.68843 -61.05027)"
     fill="#fff"
     id="path2483" />
  <path
     d="M348.28748,294.56506s36.76854,4.20949,23.07911,71.745S304.4689,512.093,304.4689,512.093l-35.99384-17.21445,46.94848-92.332L304.4689,344.64344S298.2091,289.87022,348.28748,294.56506Z"
     transform="translate(-145.68843 -61.05027)"
     fill="#575a89"
     id="path2485" />
  <polygon
     points="170.518 342.279 118.874 428.351 123.569 433.046 170.518 342.279"
     opacity="0.2"
     id="polygon2487" />
  <polygon
     points="197.853 382.389 156.433 450.26 170.518 450.26 197.853 382.389"
     opacity="0.2"
     id="polygon2489" />
  <rect
     x="268.4153"
     y="563.38362"
     width="2.22678"
     height="115.56155"
     transform="translate(-349.35204 75.77956) rotate(-20.87686)"
     opacity="0.2"
     id="rect2491" />
  <circle
     cx="135.52808"
     cy="236.75108"
     r="2.22625"
     fill="#d0cde1"
     id="circle2493" />
  <line
     x1="135.52808"
     y1="236.75108"
     x2="116.60494"
     y2="297.973"
     fill="none"
     id="line2495" />
  <path
     d="M262.29338,360.13639a1.11255,1.11255,0,0,0,1.06312-.78484l18.92314-61.22137a1.11282,1.11282,0,1,0-2.12625-.65766L261.23025,358.695a1.114,1.114,0,0,0,1.06313,1.44141Z"
     transform="translate(-145.68843 -61.05027)"
     fill="#d0cde1"
     id="path2497" />
  <path
     d="M284.73145,242.32291l-8.995,8.55722c-9.26383-4.66183-18.2118-17.22344-20.73706-27.51835l11.8019-4.94573C267.57175,228.91625,275.02513,235.897,284.73145,242.32291Z"
     transform="translate(-145.68843 -61.05027)"
     fill="#fff"
     id="path2499" />
  <path
     d="M286.97418,222.89859a.74632.74632,0,0,1-.10652-.0073l-20.9185-2.98836a.74721.74721,0,1,1,.21012-1.47958l20.9185,2.98835a.74714.74714,0,0,1-.1036,1.48689Z"
     transform="translate(-145.68843 -61.05027)"
     fill="#fff"
     id="path2501" />
  <path
     d="M283.98436,242.32291a.7464.7464,0,0,1-.65078-1.11334l6.931-12.33865a.74677.74677,0,1,1,1.30157.7325l-6.931,12.33865A.74537.74537,0,0,1,283.98436,242.32291Z"
     transform="translate(-145.68843 -61.05027)"
     fill="#fff"
     id="path2503" />
  <path
     d="M308.24058,236.38118c-2.91392-1.54067-6.29879-1.85831-9.45277-2.81594-11.284-3.4261-18.84319-16.18211-16.42984-27.72523a14.14679,14.14679,0,0,0,.59266-4.56945c-.42187-3.41873-3.92005-5.62462-7.27446-6.40793s-6.92345-.66954-10.12956-1.92914c-4.95028-1.94484-8.23855-7.03211-8.95138-12.30275s.85107-10.64613,3.39478-15.317l1.21166,3.48662a12.9329,12.9329,0,0,0,3.959-5.92118,8.15635,8.15635,0,0,1,6.21452,4.9975c1.94489,1.14685,2.22506-3.56292,4.37334-4.25772.89956-.29094,1.82459.26175,2.68142.66138,4.32884,2.019,9.35827.29275,14.00184-.82639a52.709,52.709,0,0,1,24.46832-.02881c5.3451,1.27491,10.6358,3.495,14.46058,7.44041,3.14109,3.24017,5.09822,7.43011,6.76463,11.62394,4.10226,10.32412,6.81231,21.49515,5.45807,32.52157a46.03362,46.03362,0,0,1-10.84846,24.3902C329.63751,242.96991,319.532,255.42,313.991,253.29741,307.02865,250.63029,316.444,240.71857,308.24058,236.38118Z"
     transform="translate(-145.68843 -61.05027)"
     fill="#2f2e41"
     id="path2505" />
  <g
     id="layer1"
     inkscape:label="Layer 1"
     transform="matrix(3.7795276,0,0,3.7795276,99.114843,-100.84271)">
    <g
       transform="matrix(0.55068302,0,0,0.55068302,32.744309,-88.371114)"
       id="layer1-1"
       inkscape:label="Layer 1">
      <g
         transform="matrix(0.26458333,0,0,0.26458333,-8.4722852,22.861548)"
         id="g983">
        <g
           transform="matrix(0.76999633,0,0,0.76999633,-58.006404,114.25599)"
           id="g1225">
          <flowRoot
             transform="matrix(1.2987075,0,0,1.2987075,116.91957,583.6611)"
             style="font-style:normal;font-variant:normal;font-weight:normal;font-stretch:normal;font-size:40px;line-height:1.25;font-family:Modak;-inkscape-font-specification:'Modak, Normal';font-variant-ligatures:normal;font-variant-caps:normal;font-variant-numeric:normal;font-feature-settings:normal;text-align:start;letter-spacing:0px;word-spacing:0px;writing-mode:lr-tb;text-anchor:start;fill:#ffffff;fill-opacity:1;stroke:none"
             id="flowRoot1624"
             xml:space="preserve"><flowRegion
               style="font-style:normal;font-variant:normal;font-weight:normal;font-stretch:normal;font-size:40px;font-family:Modak;-inkscape-font-specification:'Modak, Normal';font-variant-ligatures:normal;font-variant-caps:normal;font-variant-numeric:normal;font-feature-settings:normal;text-align:start;writing-mode:lr-tb;text-anchor:start;fill:#ffffff;fill-opacity:1"
               id="flowRegion1626"><rect
                 style="font-style:normal;font-variant:normal;font-weight:normal;font-stretch:normal;font-size:40px;font-family:Modak;-inkscape-font-specification:'Modak, Normal';font-variant-ligatures:normal;font-variant-caps:normal;font-variant-numeric:normal;font-feature-settings:normal;text-align:start;writing-mode:lr-tb;text-anchor:start;fill:#ffffff;fill-opacity:1"
                 y="482.44095"
                 x="-794.28571"
                 height="44.285713"
                 width="87.14286"
                 id="rect1628" /></flowRegion><flowPara
               id="flowPara1630">2m</flowPara></flowRoot>          <g
             transform="matrix(4.9085008,0,0,4.9085008,-116.76892,1019.3831)"
             inkscape:label="Layer 1"
             id="layer1-2">
            <g
               id="flowRoot815"
               style="font-style:normal;font-variant:normal;font-weight:normal;font-stretch:normal;font-size:40px;line-height:1.25;font-family:Modak;-inkscape-font-specification:'Modak, Normal';font-variant-ligatures:normal;font-variant-caps:normal;font-variant-numeric:normal;font-feature-settings:normal;text-align:start;letter-spacing:0px;word-spacing:0px;writing-mode:lr-tb;text-anchor:start;fill:#ffffff;fill-opacity:1;stroke:#000000;stroke-width:2.08399391;stroke-miterlimit:4;stroke-dasharray:none;stroke-opacity:0.97340423"
               transform="matrix(1.8218289,0,0,1.8218289,-122.77491,-571.82234)"
               aria-label="ouly">
              <path
                 inkscape:connector-curvature="0"
                 id="path3179"
                 style="fill:#ffffff;fill-opacity:1;stroke:#000000;stroke-width:2.08399391;stroke-miterlimit:4;stroke-dasharray:none;stroke-opacity:0.97340423"
                 d="m 133.75586,312.32007 v 3.41797 q 0.13672,0.13672 0.44922,0.13672 0.3125,0 0.44922,-0.21484 0.13672,-0.21485 0.13672,-0.74219 v -2.79297 q 0,-1.875 -0.15625,-2.48047 -0.15625,-0.625 -0.58594,-0.625 -0.27344,0 -0.46875,0.19532 0.17578,1.93359 0.17578,3.10546 z m -7.30469,8.65235 q -3.20312,-3.08594 -3.20312,-8.35938 0,-5.29297 3.00781,-8.33984 3.02734,-3.06641 7.92969,-3.06641 4.90234,0 7.92968,3.1836 3.00782,3.18359 3.00782,8.30078 0,5.09765 -2.91016,8.10547 -2.89062,3.00781 -7.87109,3.00781 -4.98047,0 -7.89063,-2.83203 z" />
              <path
                 inkscape:connector-curvature="0"
                 id="path3181"
                 style="fill:#ffffff;fill-opacity:1;stroke:#000000;stroke-width:2.08399391;stroke-miterlimit:4;stroke-dasharray:none;stroke-opacity:0.97340423"
                 d="m 156.8418,314.68336 q 0.23437,0 0.50781,-0.19532 -0.19531,-0.64453 -0.19531,-2.01172 v -9.64843 q 2.07031,-1.25 4.98047,-1.25 1.64062,0 2.87109,0.44922 1.25,0.42968 1.91406,1.15234 v 10.17578 q 0,2.91016 1.40625,3.78906 0.0195,0.0977 0.0195,0.3711 v 0.35156 q 0,2.85156 -1.5039,4.31641 -1.36719,1.36718 -3.76953,1.36718 -1.50391,0 -2.73438,-0.68359 -1.21094,-0.68359 -1.81641,-1.99219 -0.66406,0 -0.66406,0.64453 0,0.44922 0.44922,0.89844 -0.625,0.50781 -1.50391,0.82031 -0.8789,0.3125 -2.59765,0.3125 -1.69922,0 -3.32031,-0.70312 -2.01172,-0.85938 -3.08594,-2.63672 -1.3086,-2.10938 -1.3086,-5.35156 v -4.90235 q -0.99609,-1.73828 -0.99609,-3.82812 0,-1.07422 0.27344,-2.22656 0.27344,-1.15235 0.8789,-2.05079 h 4.29688 q 2.42187,0 3.78906,1.15235 1.38672,1.13281 1.38672,3.45703 v 6.32812 q 0,1.89454 0.72266,1.89454 z" />
              <path
                 inkscape:connector-curvature="0"
                 id="path3183"
                 style="fill:#ffffff;fill-opacity:1;stroke:#000000;stroke-width:2.08399391;stroke-miterlimit:4;stroke-dasharray:none;stroke-opacity:0.97340423"
                 d="m 179.14648,299.62476 v 13.73047 q 0,2.91016 1.40625,3.78906 0.0195,0.0977 0.0195,0.3711 v 0.35156 q 0,2.79297 -1.42579,4.23828 -1.40625,1.44531 -4.0039,1.44531 -2.59766,0 -4.1211,-1.44531 -1.8164,-1.71875 -1.8164,-5.19531 v -20.29297 q 2.05078,-1.25 4.6875,-1.25 2.65625,0 3.94531,1.13281 1.30859,1.11328 1.30859,3.125 z" />
              <path
                 inkscape:connector-curvature="0"
                 id="path3185"
                 style="fill:#ffffff;fill-opacity:1;stroke:#000000;stroke-width:2.08399391;stroke-miterlimit:4;stroke-dasharray:none;stroke-opacity:0.97340423"
                 d="m 190.82617,313.3357 v 0.44922 q 0,0.3125 0.0195,0.44922 0.19532,0.0976 0.42969,0.0976 0.56641,0 0.56641,-0.85937 0,-2.8711 0.3125,-5.95703 0.33203,-3.10547 0.70312,-4.78516 1.58203,-1.15234 4.21875,-1.15234 2.63672,0 4.0625,1.03515 1.44531,1.01563 1.44531,2.46094 0,0.60547 -0.72265,5 -0.80078,4.47266 -2.05078,9.41406 -0.25391,0.9961 -0.91797,2.79297 -0.64453,1.79688 -1.38672,2.98828 -2.32422,3.69141 -5.74219,4.57032 -1.60156,0.41015 -3.22265,0.41015 -3.14454,0 -4.86329,-1.5625 -1.58203,-1.40625 -1.58203,-3.49609 0,-2.07031 1.23047,-3.90625 0.29297,-0.0781 1.07422,-0.0781 0.78125,0 1.95313,0.19532 3.24218,0.60546 3.30078,0.60546 0.13672,0.0195 0.29297,0.0586 0.17578,0.0195 0.44921,0.0195 0.27344,0 0.46875,-0.15625 0.19532,-0.15625 0.19532,-0.625 l -4.60938,-0.87891 q -1.69922,-0.70312 -2.94922,-2.94922 -1.54297,-2.77343 -2.08984,-7.51953 -1.28906,-1.67968 -1.28906,-4.02343 0,-2.34375 1.17187,-4.08204 h 5.01953 q 2.51953,0 3.76953,1.44532 0.91797,1.07422 1.17188,3.14453 -0.42969,3.39844 -0.42969,6.89453 z" />
            </g>
            <path
               style="font-style:normal;font-variant:normal;font-weight:normal;font-stretch:normal;font-size:40px;line-height:1.25;font-family:Modak;-inkscape-font-specification:'Modak, Normal';font-variant-ligatures:normal;font-variant-caps:normal;font-variant-numeric:normal;font-feature-settings:normal;text-align:start;letter-spacing:0px;word-spacing:0px;writing-mode:lr-tb;text-anchor:start;fill:#ff3985;fill-opacity:0.9372549;stroke:#000000;stroke-width:2.13708043;stroke-opacity:1"
               d="m 76.871935,-36.101794 c -12.45314,0 -18.67927,1.289822 -18.67927,3.869731 v 42.736728 c 0,2.748171 1.20087,4.865981 3.60314,6.352225 2.18135,1.374086 4.77703,2.06124 7.78677,2.06124 3.03734,0 5.60515,-0.378484 7.70369,-1.135631 2.12614,-0.757148 3.82408,-1.696647 5.09425,-2.818343 V 4.322106 c -0.74554,-0.02814 -1.54574,-0.04266 -2.40172,-0.04266 -0.85597,0 -1.62946,-0.04176 -2.31977,-0.125737 -0.6627,-0.0842 -0.99368,-0.351126 -0.99368,-0.799804 0,-0.280441 0.11033,-0.532764 0.33123,-0.757103 h 20.29504 c 1.684341,-2.13123295 2.526361,-5.104034 2.526361,-8.917821 0,-3.05664 -0.70496,-5.804119 -2.113191,-8.243821 h -18.3065 c -0.0552,-0.05606 -0.0831,-0.168841 -0.0831,-0.336989 v -0.29431 c 0,-0.897354 0.52493,-1.345675 1.57419,-1.345675 h 14.3306 c 5.550075,0 8.325765,-3.211634 8.325765,-9.633375 0,-1.458211 -0.19386,-3.098361 -0.58051,-4.921127 -0.38657,-1.850808 -0.98004,-3.519128 -1.7808,-5.005378 z"
               id="flowRoot879"
               inkscape:connector-curvature="0" />
          </g>
        </g>
      </g>
    </g>
  </g>
</svg>
