<?xml version="1.0" encoding="UTF-8" standalone="no"?>
<!-- Created with Inkscape (http://www.inkscape.org/) -->

<svg
   xmlns:dc="http://purl.org/dc/elements/1.1/"
   xmlns:cc="http://creativecommons.org/ns#"
   xmlns:rdf="http://www.w3.org/1999/02/22-rdf-syntax-ns#"
   xmlns:svg="http://www.w3.org/2000/svg"
   xmlns="http://www.w3.org/2000/svg"
   xmlns:sodipodi="http://sodipodi.sourceforge.net/DTD/sodipodi-0.dtd"
   xmlns:inkscape="http://www.inkscape.org/namespaces/inkscape"
   width="210mm"
   height="125mm"
   viewBox="0 0 210 125"
   version="1.1"
   id="svg8"
   inkscape:version="0.92.5 (2060ec1f9f, 2020-04-08)"
   sodipodi:docname="waiting.svg">
  <defs
     id="defs2" />
  <sodipodi:namedview
     id="base"
     pagecolor="#ffffff"
     bordercolor="#666666"
     borderopacity="1.0"
     inkscape:pageopacity="0.0"
     inkscape:pageshadow="2"
     inkscape:zoom="0.7"
     inkscape:cx="284.17774"
     inkscape:cy="358.70109"
     inkscape:document-units="mm"
     inkscape:current-layer="g983"
     showgrid="false"
     inkscape:window-width="2560"
     inkscape:window-height="1377"
     inkscape:window-x="1072"
     inkscape:window-y="476"
     inkscape:window-maximized="1" />
  <metadata
     id="metadata5">
    <rdf:RDF>
      <cc:Work
         rdf:about="">
        <dc:format>image/svg+xml</dc:format>
        <dc:type
           rdf:resource="http://purl.org/dc/dcmitype/StillImage" />
        <dc:title></dc:title>
      </cc:Work>
    </rdf:RDF>
  </metadata>
  <g
     inkscape:label="Layer 1"
     inkscape:groupmode="layer"
     id="layer1"
     transform="translate(0,-172)">
    <g
       id="g983"
       transform="matrix(0.26458333,0,0,0.26458333,-8.4722852,22.861548)">
      <circle
         id="circle817"
         cy="614.18677"
         cx="153.89615"
         style="fill:#ff6584"
         r="46" />
      <ellipse
         id="ellipse819"
         ry="18"
         rx="371.86032"
         cy="1011.3734"
         cx="440.43173"
         style="fill:#e6e6e6;stroke-width:0.9151597" />
      <circle
         id="circle821"
         cy="738.50513"
         cx="191.57143"
         style="fill:#ff3985"
         r="113" />
      <polygon
         id="polygon823"
         points="123.892,524.581 100.747,524.581 111.298,167.201 "
         style="fill:#3f3d56"
         transform="translate(78.57143,491.42858)" />
      <polygon
         id="polygon825"
         points="138.187,200.557 113,243.442 110.277,238.677 113.34,234.933 "
         style="fill:#3f3d56"
         transform="translate(78.57143,491.42858)" />
      <polygon
         id="polygon827"
         points="85.771,235.274 110.958,278.159 113.681,273.394 110.617,269.65 "
         style="fill:#3f3d56"
         transform="translate(78.57143,491.42858)" />
      <circle
         id="circle835"
         cy="887.16089"
         cx="400.57373"
         style="fill:#3f3d56;stroke-width:0.600025"
         r="126.30741" />
      <circle
         id="circle837"
         cy="887.16089"
         cx="400.57373"
         style="fill:#ffffff;stroke-width:0.600025"
         r="115.8515" />
      <circle
         id="circle839"
         cy="887.5791"
         cx="400.15549"
         style="fill:#3f3d56;stroke-width:0.600025"
         r="15.474747" />
      <rect
         id="rect841"
         height="12.547092"
         width="6.6917844"
         y="777.16467"
         x="396.8096"
         style="fill:#3f3d56;stroke-width:0.600025" />
      <rect
         id="rect843"
         height="12.547092"
         width="6.6917844"
         y="985.44641"
         x="396.8096"
         style="fill:#3f3d56;stroke-width:0.600025" />
      <rect
         id="rect845"
         transform="rotate(90)"
         height="12.547092"
         width="6.6917844"
         y="-302.28818"
         x="884.23322"
         style="fill:#3f3d56;stroke-width:0.600025" />
      <rect
         id="rect847"
         transform="rotate(90)"
         height="20.91095"
         width="11.15251"
         y="-598.08923"
         x="786.65686"
         style="fill:#3f3d56" />
      <polygon
         id="polygon849"
         points="450.924,326.286 460.455,304.493 579.88,370.635 "
         style="fill:#3f3d56"
         transform="matrix(0.600025,0,0,0.600025,125.12888,698.51706)" />
      <rect
         id="rect851"
         height="37.641285"
         width="32.622448"
         y="730.3222"
         x="384.26251"
         style="fill:#3f3d56;stroke-width:0.600025" />
      <ellipse
         id="ellipse853"
         ry="10.45591"
         rx="37.641285"
         cy="730.3222"
         cx="400.57373"
         style="fill:#3f3d56;stroke-width:0.600025" />
      <path
         id="path855"
         d="m 532.21974,828.82732 -3.48516,4.87922 c 0,0 -16.03173,18.81986 -16.72876,9.75845 -0.69703,-9.06141 11.84954,-15.3347 11.84954,-15.3347 l 6.97032,-4.18219 z"
         inkscape:connector-curvature="0"
         style="fill:#ffb8b8" />
      <path
         id="path857"
         d="m 631.43902,845.28909 2.91833,5.238 c 0,0 10.14839,22.54357 1.66044,19.29564 -8.48799,-3.24793 -8.78836,-17.27221 -8.78836,-17.27221 l -0.79685,-8.08957 z"
         inkscape:connector-curvature="0"
         style="fill:#ffb8b8" />
      <circle
         id="circle859"
         cy="731.1853"
         cx="615.74774"
         style="fill:#2f2e41"
         r="21.224251" />
      <path
         id="path861"
         d="m 613.77246,905.50081 2.78812,18.12283 v 5.57623 h 16.03173 v -6.9703 c 0,0 0.697,-12.54657 -2.09109,-16.03173 -2.78809,-3.48516 -16.72876,-0.69703 -16.72876,-0.69703 z"
         inkscape:connector-curvature="0"
         style="fill:#ffb8b8" />
      <path
         id="path863"
         d="m 585.19415,905.50081 2.78813,18.12283 v 5.57623 h 16.03173 v -6.9703 c 0,0 0.697,-12.54657 -2.09109,-16.03173 -2.78809,-3.48516 -16.72877,-0.69703 -16.72877,-0.69703 z"
         inkscape:connector-curvature="0"
         style="fill:#ffb8b8" />
      <path
         id="path865"
         d="m 595.98253,759.92758 c 0,0 -6.16626,3.25 -1.9546,10.64285 4.21166,7.39285 28.92249,83.8766 28.92249,83.8766 l 14.25582,-4.04685 -12.57235,-48.37053 -7.1988,-30.40158 z"
         inkscape:connector-curvature="0"
         style="fill:#ff3985" />
      <circle
         id="circle867"
         cy="737.16766"
         cx="613.42389"
         style="fill:#ffb8b8"
         r="16.031731" />
      <path
         id="path869"
         d="m 620.74277,739.60726 -2.09109,32.76049 -14.63767,-10.45548 c 0,0 4.87922,-19.51689 3.48516,-20.911 z"
         inkscape:connector-curvature="0"
         style="fill:#ffb8b8" />
      <path
         id="path871"
         d="m 620.74277,769.57962 -15.769,-11.67706 c 0,0 -7.23305,-2.9606 -9.32415,0.52455 -2.0911,3.48515 -12.54657,55.06551 -6.97032,64.824 0,0 29.97237,6.27328 36.24565,2.78812 l 2.78813,-18.12282 c 0,0 3.48516,-11.15251 -2.0911,-18.12283 z"
         inkscape:connector-curvature="0"
         style="fill:#ff3985" />
      <path
         id="path873"
         d="m 599.83182,759.12415 c 0,0 -5.57625,-4.18219 -10.45548,2.78812 -4.87923,6.97031 -63.42988,62.03583 -63.42988,62.03583 l 9.75844,11.15251 38.33675,-32.06346 24.39611,-19.51689 z"
         inkscape:connector-curvature="0"
         style="fill:#ff3985" />
      <path
         id="path875"
         d="m 625.27348,825.69068 c 0,0 -34.50307,-6.6218 -37.98823,-1.74258 l -0.697,7.66735 c 0,0 -7.66735,14.63766 -3.48516,38.33674 4.18219,23.69908 1.39406,38.33675 1.39406,38.33675 0,0 18.81986,-2.0911 32.76049,0 13.94063,2.0911 16.03173,0 16.03173,0 z"
         inkscape:connector-curvature="0"
         style="fill:#2f2e41" />
      <path
         id="path877"
         d="m 633.98638,926.41176 -20.21392,0.697 6.97031,52.27739 c 0,0 -5.57625,22.30505 0.697,23.69905 a 70.7125,70.7125 0 0 0 13.24361,1.3941 c 0,0 6.27328,6.2733 13.24356,5.5762 a 39.034,39.034 0 0 0 13.2436,-4.1821 c 0,0 1.3941,-4.1822 -3.4851,-5.5763 -4.8793,-1.39406 -18.12284,-5.57626 -20.91102,-20.21392 z"
         inkscape:connector-curvature="0"
         style="fill:#2f2e41" />
      <path
         id="path879"
         d="m 605.40807,926.41176 -20.21392,0.697 6.97032,52.27739 c 0,0 -5.57625,22.30505 0.697,23.69905 a 70.7125,70.7125 0 0 0 13.24361,1.3941 c 0,0 6.27328,6.2733 13.2436,5.5762 a 39.034,39.034 0 0 0 13.2436,-4.1821 c 0,0 1.39407,-4.1822 -3.48516,-5.5763 -4.87923,-1.39406 -18.12279,-5.57623 -20.91088,-20.21389 z"
         inkscape:connector-curvature="0"
         style="fill:#2f2e41" />
      <circle
         id="circle881"
         cy="708.84698"
         cx="623.17224"
         style="fill:#2f2e41"
         r="8.7824497" />
      <path
         id="path883"
         d="m 634.88224,704.0898 a 8.78336,8.78336 0 0 0 -7.86761,-8.735 8.881,8.881 0 0 1 0.91484,-0.0475 8.782445,8.782445 0 0 1 0,17.56489 8.881,8.881 0 0 1 -0.91484,-0.0475 8.78336,8.78336 0 0 0 7.86761,-8.73493 z"
         inkscape:connector-curvature="0"
         style="fill:#2f2e41" />
      <ellipse
         id="ellipse885"
         ry="8.7824497"
         rx="14.63741"
         cy="726.68518"
         cx="613.27875"
         style="fill:#2f2e41" />
    </g>
  </g>
</svg>
